<svg xmlns="http://www.w3.org/2000/svg" xmlns:xlink="http://www.w3.org/1999/xlink" width="286.47" height="199.511" viewBox="0 0 286.47 199.511">
  <defs>
    <linearGradient id="linear-gradient" x1="0.5" y1="1" x2="0.5" gradientUnits="objectBoundingBox">
      <stop offset="0" stop-color="gray" stop-opacity="0.251"/>
      <stop offset="0.54" stop-color="gray" stop-opacity="0.122"/>
      <stop offset="1" stop-color="gray" stop-opacity="0.102"/>
    </linearGradient>
    <linearGradient id="linear-gradient-2" x1="0.495" y1="1.014" x2="0.495" y2="0" xlink:href="#linear-gradient"/>
    <linearGradient id="linear-gradient-3" x1="0.5" y1="1" x2="0.5" y2="0" xlink:href="#linear-gradient"/>
    <linearGradient id="linear-gradient-4" x1="0.5" y1="1" x2="0.5" y2="0" xlink:href="#linear-gradient"/>
  </defs>
  <g id="undraw_celebration_0jvk" transform="translate(0.02 -0.02)">
    <circle id="Ellipse_56" data-name="Ellipse 56" cx="14.022" cy="14.022" r="14.022" transform="translate(14.656 5.908)" fill="#ed1500"/>
    <path id="Path_136" data-name="Path 136" d="M174.862,167.713c5.887,13.3-1.623,28.61-10.463,40.141-2.959,3.867-6.225,7.92-6.635,12.77-.495,5.933,3.523,11.386,8.288,14.951a34.9,34.9,0,0,0,30.908,5.227c8.94-2.832,16.456-9.229,25.474-11.808,15.08-4.319,31.065,2.841,43.98,11.763,9.142,6.307,18.932,13.991,29.952,12.64,7.754-.95,14.335-6.394,18.8-12.8,2.156-3.094,4.032-6.563,7.172-8.65a17.953,17.953,0,0,1,6.252-2.371c20.024-4.28,41.275,6.165,61.033.793,13.346-3.619,23.987-14.175,30.6-26.321s9.706-25.86,12.278-39.447c1.828-9.651,3.345-20.078-.857-28.954-4.446-9.4-14.736-15.1-25.078-16.163s-20.714,1.879-30.242,6.035c-11.9,5.206-23.573,12.492-36.567,12.517-8.849.018-17.288-3.378-25.748-5.969-14.145-4.328-28.854-6.478-43.513-8.463-14.034-1.9-28.206-3.668-42.324-2.546-9.989.793-18.811,4.612-28.5,6.379-6.319,1.152-12.667.3-18.868,2.232-7.637,2.389-15.49,7.923-15.913,16.64C164.5,154.6,171.741,160.658,174.862,167.713Z" transform="translate(-147.898 -119.24)" fill="#ed1500" opacity="0.1"/>
    <path id="Path_137" data-name="Path 137" d="M529.073,270.149c-1.288-3.357-4.609-11.247-6.8-9.682-2.763,1.979,2.763,10.719,2.763,10.719.157,1.6-2.95,4.943-4.615,6.608v-.208a.725.725,0,0,1-.072.181l-.139-.075a.9.9,0,0,1-.2.359,3.526,3.526,0,0,0-.015-.359c-.32,1.354-5.9,3.07-5.9,3.07h-.41c-1.55,0-5.586-.35-7.456-3.342a16.546,16.546,0,0,0-3.658-4.268,3.116,3.116,0,0,0-1.734-.658,22.314,22.314,0,0,1-10.185-3.5l-.154-.106-.033.1c-.2-.28-.386-.579-.564-.887h0l-.09-.166A7.576,7.576,0,0,0,494,261.191v-.157a5.161,5.161,0,0,0,.694-2.585v-.9l1.179-1.05a4.85,4.85,0,0,0,1.372-1.647,1.952,1.952,0,0,0,.145-.844,1.463,1.463,0,0,0-.555-1.309c-.9-.624-2.413,0-3.067-.869-.3-.392-.247-.926-.4-1.387a2.483,2.483,0,0,0-2.392-1.46,10.332,10.332,0,0,0-2.932.624,17.212,17.212,0,0,1-6.243.585,4.078,4.078,0,0,0-1.71.06,2.355,2.355,0,0,0-1.387,1.614,3.793,3.793,0,0,0-.133.826,5.2,5.2,0,0,0-1.309,3.441v2.319a5.2,5.2,0,0,0,1.252,3.375,7.54,7.54,0,0,0,3.158,5.5v.184l.039.024a12.47,12.47,0,0,1-.332,2.132v-.154a21.8,21.8,0,0,1-8.747,2.3h-.5a3.369,3.369,0,0,0-2.413.9c-1.339,1.261-3.686,3.254-5.127,3.254-.3,0-7.914,1.487-9.175,1.734l-2.356-2.307-.072.136-.139-.136a5.729,5.729,0,0,0-.766.112,18.256,18.256,0,0,1-4.177-9.214s5.209-5.933,3.294-11.461c-1.635-4.711-6.138,5.387-7.416,8.43a2.431,2.431,0,0,0-.078,1.674l4.232,13.639a6.4,6.4,0,0,0-.335,3.318h-.048l3.082,3.954a16.276,16.276,0,0,0,5.948.971,20.793,20.793,0,0,0,7.763-1.49h.715l-.136.051H468.6l2.334,7.061c-.078.642-1.206,9.609-2.111,11.615a5.04,5.04,0,0,0-.356,2.111,16.118,16.118,0,0,0,.673,4.087l2.045-.075-.078.16a106.458,106.458,0,0,0-6.334,15.786l-2.977,6.032,2.232,27.054h.09l.172.027h0c.241.036.6.09,1.08.151l-.175.3-4.919,8.143s-3.508,7.181,4.253,5.827c0,0,2.868-.832,4.038-5.73l5.1-4.786s.238-3.179-1.206-4.449c-.09-1.469-.32-5.758.033-6.789.425-1.249-1.81-15.608-1.81-15.608s8.077-16.754,12.969-17.17a2.681,2.681,0,0,1,1.059.139c4.02,1.309,8.891,11.03,10.324,14.055h0l.066.139v.027l.054.118v.033l.048.1v.027l.042.094v.021l.036.075v.03l.027.057v.024l.018.042v.051h0l.015.036.636,18.835h0l.063.033h.03l-.054.389-.277,1.945s3.508,7.389,3.294,8.324,2.337,4.684,5.951,3.643,1.463-6.907,1.463-6.907l-3.48-7.172-.154-.32a6.842,6.842,0,0,0,.977-.727s-1.062-7.7,0-9.365,1.381-9.262,1.381-9.262-.745-5.2-2.021-7.492l-5.344-19.076c1.6,1.49,2.847,2.072,3.888,2.033h.172a2.6,2.6,0,0,0,1.309-.326,3.69,3.69,0,0,0,.6-.425.955.955,0,0,0,.1-.1h0c1.487-1.249-1.7-6.141-3.508-9.048-1.74-2.8.657-10.426.838-10.993a2.878,2.878,0,0,1,.516-.3,3.182,3.182,0,0,1,1.182-.256c1.731.06,3.861,1.056,6.5,1.556a30.65,30.65,0,0,0,5.547.431h.109c.739,0,1.408-.015,1.951-.036a3.3,3.3,0,0,0,1.418-.383h0a4.28,4.28,0,0,0,1.007-.814l4.627-5.227-.121.057a2.6,2.6,0,0,0,0-1.84l4.889-8.445A3.212,3.212,0,0,0,529.073,270.149Z" transform="translate(-347.552 -209.835)" fill="url(#linear-gradient)"/>
    <path id="Path_138" data-name="Path 138" d="M513.174,613.552l-4.925,4.72c-1.128,4.826-3.9,5.643-3.9,5.643-7.489,1.333-4.1-5.73-4.1-5.73l4.75-8.038.585-.992s3.387-1.026,5.643-.41a1.932,1.932,0,0,1,.769.416C513.406,610.389,513.174,613.552,513.174,613.552Z" transform="translate(-386.581 -460.956)" fill="#444176"/>
    <path id="Path_139" data-name="Path 139" d="M624.918,603.234c-3.49,1.026-5.951-2.666-5.73-3.592s-3.188-8.2-3.188-8.2l.265-1.918.247-1.776,5.73.41.54,1.134,3.36,7.073S628.408,602.209,624.918,603.234Z" transform="translate(-467.957 -446.431)" fill="#444176"/>
    <path id="Path_140" data-name="Path 140" d="M524.819,609.928c-.54.926-4.916.458-7.049.169l.585-.992s3.387-1.025,5.643-.41a1.93,1.93,0,0,1,.769.416C524.8,609.612,524.819,609.928,524.819,609.928Z" transform="translate(-399.353 -460.921)" opacity="0.1"/>
    <path id="Path_141" data-name="Path 141" d="M623.39,589.274a6.636,6.636,0,0,1-6.53.232l.247-1.776,5.73.41Z" transform="translate(-468.557 -446.417)" opacity="0.1"/>
    <path id="Path_142" data-name="Path 142" d="M547.342,466.866c-1.025,1.641,0,9.235,0,9.235-3.387,3.079-7.386.82-7.386.82l-.6-18.57s-6.668-15.288-11.389-14.878S515.447,460.4,515.447,460.4s2.153,14.157,1.743,15.382,0,7.181,0,7.181c-.718,1.231-8.207,0-8.207,0l-2.153-26.677,2.859-5.954a105.544,105.544,0,0,1,6.108-15.563c.829-1.74,1.384-2.8,1.384-2.8l5.459-1.137,17.719-3.674,6.367,23.175c1.231,2.256,1.948,7.386,1.948,7.386S548.367,465.226,547.342,466.866Z" transform="translate(-391.713 -334.276)" fill="#565387"/>
    <g id="Group_49" data-name="Group 49" transform="translate(115.105 92.872)" opacity="0.1">
      <path id="Path_143" data-name="Path 143" d="M592.9,514.679l-.6-18.57s-6.668-15.288-11.389-14.878a2.567,2.567,0,0,0-.618.139c4.6,1.529,10.366,14.739,10.366,14.739l.6,18.57a7.238,7.238,0,0,0,4.081.745,7.261,7.261,0,0,1-2.44-.745Z" transform="translate(-558.122 -464.905)"/>
      <path id="Path_144" data-name="Path 144" d="M510.584,482.947l-2.153-26.677,2.871-5.963a105.548,105.548,0,0,1,6.107-15.563c.829-1.74,1.384-2.8,1.384-2.8l5.459-1.137,16.175-3.363-.087-.323-17.728,3.686-5.459,1.137s-.555,1.062-1.384,2.8a105.41,105.41,0,0,0-6.108,15.563l-2.871,5.951,2.153,26.677a38.536,38.536,0,0,0,6.515.525A48.473,48.473,0,0,1,510.584,482.947Z" transform="translate(-506.79 -427.12)"/>
    </g>
    <path id="Path_145" data-name="Path 145" d="M466.175,338.21s-5.848.3-5.028,6.463l1.641.205,2.461-2.666,1.231-2.256v-.513Z" transform="translate(-359.753 -272.153)" fill="#ced2df"/>
    <path id="Path_146" data-name="Path 146" d="M466.175,338.21s-5.848.3-5.028,6.463l1.641.205,2.461-2.666,1.231-2.256v-.513Z" transform="translate(-359.753 -272.153)" opacity="0.1"/>
    <path id="Path_147" data-name="Path 147" d="M693.019,345.69s4.826,2.564,3.592,5.54l-1.538.6-2.051-1.128-.3-2.666.205-1.846Z" transform="translate(-521.537 -277.377)" fill="#ced2df"/>
    <path id="Path_148" data-name="Path 148" d="M693.019,345.69s4.826,2.564,3.592,5.54l-1.538.6-2.051-1.128-.3-2.666.205-1.846Z" transform="translate(-521.537 -277.377)" opacity="0.1"/>
    <rect id="Rectangle_59" data-name="Rectangle 59" width="16.827" height="12.722" rx="6.361" transform="translate(130.032 41.841)" fill="#88455e"/>
    <path id="Path_149" data-name="Path 149" d="M457.3,289.3l-3.592,5.73-.3-1.019-4.88-15.9a2.446,2.446,0,0,1,.075-1.65c1.234-3,5.583-12.969,7.16-8.309,1.846,5.429-3.182,11.286-3.182,11.286a18.073,18.073,0,0,0,4.292,9.392C457.14,289.142,457.3,289.3,457.3,289.3Z" transform="translate(-350.92 -222.374)" fill="#ec8c9c"/>
    <path id="Path_150" data-name="Path 150" d="M691.16,307.011s5.643-5.335,5.429-7.489c0,0-5.335-8.617-2.666-10.556,2.111-1.544,5.317,6.237,6.56,9.546a3.227,3.227,0,0,1-.214,2.714l-6.744,11.941Z" transform="translate(-520.448 -237.622)" fill="#ec8c9c"/>
    <path id="Path_151" data-name="Path 151" d="M564.4,299.912s1.025,6.566-1.948,9.03,8.517,2.449,8.517,2.449l4.1-3.8s-4.72-4.412-3.284-7.694Z" transform="translate(-430.215 -245.398)" fill="#ec8c9c"/>
    <path id="Path_152" data-name="Path 152" d="M549.756,323.82a7.193,7.193,0,0,0,8.822-.41l7.181,14.878-.41,18.16s-14.878,7.694-21.034,2.977-1.025-7.181-1.025-7.181l-1.436-13.952,1.538-9.03s2.769-4.31,2.977-4.31S549.756,323.82,549.756,323.82Z" transform="translate(-415.776 -261.817)" opacity="0.1"/>
    <path id="Path_153" data-name="Path 153" d="M549.763,323.14a7.187,7.187,0,0,0,8.825-.41l7.181,14.878-.41,18.16s-14.878,7.694-21.034,2.977-1.025-7.181-1.025-7.181l-1.436-13.952,1.538-9.03s2.769-4.31,2.977-4.31S549.763,323.14,549.763,323.14Z" transform="translate(-415.783 -261.342)" fill="#ebf1f6"/>
    <path id="Path_154" data-name="Path 154" d="M494.292,319a19.038,19.038,0,0,1-8.725,2.265,3.215,3.215,0,0,0-2.319.887c-1.294,1.243-3.559,3.209-4.961,3.209-.3,0-9.03,1.743-9.03,1.743l-2.307-2.307s-3.438,6.72-5.079,6.412l2.977,3.9s5.643,2.461,13.029-.513h4.31l2.256,6.976s-1.128,9.44-2.051,11.491.3,6.053.3,6.053l8.1-.3s.41-4,1.025-4.524-2.153-18.16-2.153-18.16-1.846-9.953,4.925-13.542Z" transform="translate(-360.313 -258.737)" opacity="0.1"/>
    <path id="Path_155" data-name="Path 155" d="M543.4,439.38a26.783,26.783,0,0,0-.636,3.7l-6.2.235c.829-1.74,1.384-2.8,1.384-2.8Z" transform="translate(-412.476 -342.81)" opacity="0.1"/>
    <path id="Path_156" data-name="Path 156" d="M468.854,340l-3.592,5.73-.3-1.019a26.522,26.522,0,0,0,3.477-5.185A6.075,6.075,0,0,0,468.854,340Z" transform="translate(-362.471 -273.075)" opacity="0.1"/>
    <path id="Path_157" data-name="Path 157" d="M493.8,319a20.389,20.389,0,0,1-8.93,2.265,3.215,3.215,0,0,0-2.319.887c-1.294,1.243-3.559,3.209-4.961,3.209-.3,0-9.03,1.743-9.03,1.743l-2.316-2.31s-3.438,6.72-5.079,6.412l2.977,3.9s5.643,2.461,13.029-.513h4.31l2.256,6.973s-1.128,9.44-2.051,11.491.3,6.053.3,6.053l8.1-.3s.41-4,1.025-4.524-2.153-18.16-2.153-18.16-1.846-9.953,4.925-13.542Z" transform="translate(-359.817 -258.737)" fill="#ced2df"/>
    <path id="Path_158" data-name="Path 158" d="M595.354,316.94a19.965,19.965,0,0,0,9.775,3.559,2.971,2.971,0,0,1,1.674.648,16.2,16.2,0,0,1,3.532,4.222c2.256,3.695,7.8,3.284,7.8,3.284s5.387-1.692,5.694-3.016c0,0,.154,7.239,3.541,5.489l-4.455,5.133a3.143,3.143,0,0,1-2.247,1.083,33.027,33.027,0,0,1-7.036-.389c-3.695-.718-6.361-2.461-8.309-.923,0,0-2.564,8-.82,10.876s4.826,7.694,3.387,8.928-3.182,1.128-6.053-1.846-3.182-8-3.182-8l.718-12.927s-2.769-9.748-5.429-11.7Z" transform="translate(-452.55 -257.299)" opacity="0.1"/>
    <path id="Path_159" data-name="Path 159" d="M628.7,331.228l-4.467,5.154a3.139,3.139,0,0,1-1.077.8h0a3.128,3.128,0,0,1-1.164.274,32.636,32.636,0,0,1-7.036-.389c-3.456-.673-6.014-2.241-7.926-1.182a2.8,2.8,0,0,0-.386.256s-2.564,8-.82,10.876,4.826,7.694,3.387,8.928a3.318,3.318,0,0,1-.8.522c-1.291.582-2.892.078-5.251-2.368-2.871-2.977-3.182-8-3.182-8l.718-12.927s-2.769-9.748-5.429-11.7l1.173-4.207a21.3,21.3,0,0,0,9.832,3.456,2.971,2.971,0,0,1,1.674.648,16.213,16.213,0,0,1,3.532,4.222c2.256,3.695,7.8,3.284,7.8,3.284a29.941,29.941,0,0,0,3.882-1.544h0a5.916,5.916,0,0,0,1.81-1.206.9.9,0,0,0,.2-.362S625.312,332.972,628.7,331.228Z" transform="translate(-453.472 -257.529)" opacity="0.1"/>
    <path id="Path_160" data-name="Path 160" d="M627.995,331.107l-4.464,5.16a3.139,3.139,0,0,1-.869.7h0a3.13,3.13,0,0,1-1.369.377,32.634,32.634,0,0,1-7.036-.389c-3.333-.648-5.833-2.132-7.718-1.285a2.79,2.79,0,0,0-.6.359s-2.564,8-.82,10.876,4.826,7.694,3.387,8.928a3.559,3.559,0,0,1-.6.419c-1.327.733-2.968.3-5.456-2.265-2.871-2.977-3.182-8-3.182-8l.718-12.927s-2.769-9.748-5.429-11.7l1.231-4.412.148.1a21.3,21.3,0,0,0,9.832,3.456,2.971,2.971,0,0,1,1.674.648,16.215,16.215,0,0,1,3.532,4.222c2.256,3.695,7.8,3.284,7.8,3.284a29.944,29.944,0,0,0,3.882-1.544h0c.932-.477,1.692-1,1.81-1.475v.259C624.545,327.15,625,332.648,627.995,331.107Z" transform="translate(-452.976 -257.306)" fill="#ced2df"/>
    <path id="Path_161" data-name="Path 161" d="M577.39,300.45h-7.54a18.449,18.449,0,0,1,.142,3.619,7.751,7.751,0,0,0,7.968.573A4.812,4.812,0,0,1,577.39,300.45Z" transform="translate(-435.726 -245.782)" opacity="0.1"/>
    <circle id="Ellipse_57" data-name="Ellipse 57" cx="7.489" cy="7.489" r="7.489" transform="translate(131.211 44.561)" fill="#ec8c9c"/>
    <path id="Path_162" data-name="Path 162" d="M566.278,263.038a7.994,7.994,0,0,1,2.494-.229c.748.151,1.384.667,2.132.823,1.442.3,2.781-.76,3.87-1.749l2.353-2.141a4.8,4.8,0,0,0,1.327-1.623,1.629,1.629,0,0,0-.4-1.918c-.86-.6-2.34,0-2.962-.857a4.47,4.47,0,0,1-.383-1.366,2.4,2.4,0,0,0-2.31-1.439,10.22,10.22,0,0,0-2.829.6,16.286,16.286,0,0,1-6.032.576,3.854,3.854,0,0,0-1.65.057,2.307,2.307,0,0,0-1.339,1.589c-.464,1.641.329,4.286,1.125,5.755S564.689,263.234,566.278,263.038Z" transform="translate(-429.135 -212.321)" opacity="0.1"/>
    <path id="Path_163" data-name="Path 163" d="M566.278,262.358a7.994,7.994,0,0,1,2.494-.229c.748.151,1.384.667,2.132.823,1.442.3,2.781-.76,3.87-1.749l2.353-2.141a4.8,4.8,0,0,0,1.327-1.623,1.629,1.629,0,0,0-.4-1.918c-.86-.6-2.34,0-2.962-.857a4.47,4.47,0,0,1-.383-1.366,2.4,2.4,0,0,0-2.31-1.439,10.219,10.219,0,0,0-2.829.6,16.287,16.287,0,0,1-6.032.576,3.855,3.855,0,0,0-1.65.057,2.307,2.307,0,0,0-1.339,1.589c-.464,1.641.329,4.286,1.125,5.755S564.689,262.539,566.278,262.358Z" transform="translate(-429.135 -211.846)" fill="#88455e"/>
    <path id="Path_164" data-name="Path 164" d="M536.55,394a4.228,4.228,0,0,1,2.461,1.231,4.421,4.421,0,0,0,2.256,1.333" transform="translate(-412.469 -311.117)" opacity="0.1"/>
    <path id="Path_165" data-name="Path 165" d="M487.425,349.09s1.339,2.989.513,3.291-.513,2.461-.513,2.461" transform="translate(-378.119 -279.752)" opacity="0.1"/>
    <g id="Group_50" data-name="Group 50" transform="translate(109.673 60.311)" opacity="0.1">
      <path id="Path_166" data-name="Path 166" d="M488.873,332.41s8.719-1.743,9.021-1.743c1.405,0,3.667-1.966,4.961-3.209a3.167,3.167,0,0,1,1.405-.781h-.112a3.215,3.215,0,0,0-2.319.887c-1.294,1.243-3.559,3.209-4.961,3.209-.244,0-5.824,1.107-8.089,1.556Z" transform="translate(-488.78 -324.408)"/>
      <path id="Path_167" data-name="Path 167" d="M553.934,319.543v-.383a21.77,21.77,0,0,1-6.684,2.138A20.654,20.654,0,0,0,553.934,319.543Z" transform="translate(-529.615 -319.16)"/>
      <path id="Path_168" data-name="Path 168" d="M521.885,395.04s-1.231-4-.3-6.053,2.051-11.491,2.051-11.491l-2.25-6.976h-4.322l-.262.1h3.544l2.247,6.979s-1.128,9.44-2.051,11.491.3,6.053.3,6.053l8.1-.3v-.063Z" transform="translate(-508.349 -355.03)"/>
    </g>
    <g id="Group_51" data-name="Group 51" transform="translate(146.388 73.808)" opacity="0.1">
      <path id="Path_169" data-name="Path 169" d="M619.751,418.968a3.561,3.561,0,0,1-.6.419c-1.327.733-2.968.3-5.456-2.265-2.28-2.362-2.944-6.032-3.122-7.422l-.06,1.062s.3,5.028,3.182,8c2.488,2.576,4.129,3,5.456,2.265a3.56,3.56,0,0,0,.6-.419c.431-.371.455-1.068.229-1.936A.95.95,0,0,1,619.751,418.968Z" transform="translate(-610.51 -395.89)"/>
      <path id="Path_170" data-name="Path 170" d="M649.851,364.058l-2.9,3.357a3.139,3.139,0,0,1-.869.7h0a3.13,3.13,0,0,1-1.369.377,32.636,32.636,0,0,1-7.036-.389c-3.333-.648-5.833-2.132-7.718-1.285a2.792,2.792,0,0,0-.6.359s-1.656,5.169-1.4,8.689a33.932,33.932,0,0,1,1.4-7.048,2.792,2.792,0,0,1,.6-.359c1.888-.848,4.385.636,7.718,1.285a33.018,33.018,0,0,0,7.036.389,3.131,3.131,0,0,0,1.369-.377h0a3.139,3.139,0,0,0,.869-.691l4.467-5.154a1.758,1.758,0,0,1-1.562.148Z" transform="translate(-622.671 -363.91)"/>
    </g>
    <path id="Path_171" data-name="Path 171" d="M265.74,486.89a.232.232,0,0,0,.274.036.934.934,0,0,1-.274-.036Z" transform="translate(-223.337 -375.991)" fill="url(#linear-gradient-2)"/>
    <path id="Path_172" data-name="Path 172" d="M198.24,286.135c-.543-.157-1.318-.413-2.25-.739a11.8,11.8,0,0,0,2.084-4.2l-.078.03c.027-.093.054-.184.078-.28-1.789.727-3.767-.5-5.028-2.084s-2.111-3.541-3.493-4.995a15.982,15.982,0,0,0-1.852-1.6,2.56,2.56,0,0,0-1.342-.658c-.805-.024-1.436.766-2.211,1a3.016,3.016,0,0,1-1.541-.057,53.032,53.032,0,0,0-5.963-1.529,6.988,6.988,0,0,0-3.236.365c-1.025.389-1.493,1.164-2.322,1.785-.9.667-2.672.651-3.725.769a26.692,26.692,0,0,1-3.848.16,9.01,9.01,0,0,0-2.214.081,8.537,8.537,0,0,0-3.9,2.714,2.012,2.012,0,0,0-.645,1.01,1.276,1.276,0,0,0,0,.335,2.174,2.174,0,0,0,.154.89,11.762,11.762,0,0,0,1.481,2.947,8.509,8.509,0,0,1,1.279,2.093,4.062,4.062,0,0,1,.2,1.206,8.773,8.773,0,0,1-.136,1.3,16.288,16.288,0,0,1-.992,3.453,6.273,6.273,0,0,0-.579,1.81,2.887,2.887,0,0,0,0,.386c-.075,1.991,1.933,3.423,2.322,5.4a3.226,3.226,0,0,1,.057.5,3.37,3.37,0,0,1-1.782,2.92c.09.036.184.066.277.1a2.515,2.515,0,0,1-.277.151,5.628,5.628,0,0,0,.579.187A13.452,13.452,0,0,0,156.4,305.2c-3.49,6.5-27.123,19.221-27.123,19.221l.35.2-.284.184c-2.045,1.36-6.843,5.326-2.506,10.342a54.76,54.76,0,0,1,5.761-7.622c.106-.1.211-.2.3-.284a.694.694,0,0,1,.09.549l15.539-8.731s5.522-3.867,7.064-4.738a12.714,12.714,0,0,1,3.5-1.508l-.181.075a7.093,7.093,0,0,1,1.782-.253c2.751.042,5.73,2.057,6.711,10.034,1.315,10.683.706,12.61.284,12.872a.776.776,0,0,1-.154-.027.26.26,0,0,0,.042.03.808.808,0,0,1-.169-.03.241.241,0,0,0,.229.054.214.214,0,0,0,.172-.021h0a1.793,1.793,0,0,0,.208,0,2.217,2.217,0,0,1-.021.3c-.021,0-.124.057,0,.063h0c-.033.6-.03,1.258,0,1.942-1.366.075-2.733.157-3.921.229l.106-.564.048-.253c1.05-.084,2.045-.392,2.163-1.243.256-1.87-2.31-2.868-4.494-2.992s-15.279.748-15.279.748-1.963,2.543,4.265,3.318l.576.3a69.227,69.227,0,0,1,7.335,5.212l.22.175-.712.579c3.851.872,7.576,15.59,9.63,22.319s6.548,6.485,10.273,5.486c3.49-.935,3.921-11.069,3.978-12.342v-.13l6.207,7.667.471.582q.271.142.537.265c4.7,2.235,9.89-2.051,8.415-6.937-1.493-4.925-3.809-12.209-5.353-15.288-1.294-2.579-2.965-6.862-3.978-9.543a3.228,3.228,0,0,0,.383-.184s-.024-.121-.063-.341l.063-.033a92.471,92.471,0,0,1-1.574-13.271v-.48c1.122-.256,1.834-.356,1.834-.356l.021-.241-.13.027.624-7.145s2.292-4.877.537-6.907a4.265,4.265,0,0,1-1.028-2.111c-.3-1.867,0-4.983,4.087-7.57,6.291-3.99,8.747-7.238,8.747-7.238S202.091,287.269,198.24,286.135Zm-12.5,4.958v-3.3c1.167-.057,2.359.078,3.532,0a8.938,8.938,0,0,0,1.7-.287l.284.2a31.064,31.064,0,0,1-5.519,3.393ZM167.9,342.861c.461.32.926.651,1.381.986.284,1.629.534,2.778.552,2.859A22.578,22.578,0,0,0,167.9,342.861Z" transform="translate(-125.1 -225.197)" fill="url(#linear-gradient-3)"/>
    <path id="Path_173" data-name="Path 173" d="M266.858,500.32l-.271,1.475-.208,1.128-.38,2.063-3.686,2.579s-.332-.284-.881-.733a64.6,64.6,0,0,0-7.015-5.127,7.842,7.842,0,0,0-1.927-.89Z" transform="translate(-214.083 -385.37)" fill="#ffbdc6"/>
    <path id="Path_174" data-name="Path 174" d="M266.851,500.32l-.271,1.475a11.463,11.463,0,0,1-2.431-.124l-8.6.124c-.407-.024-.787-.057-1.143-.094a7.841,7.841,0,0,0-1.927-.89Z" transform="translate(-214.076 -385.37)" opacity="0.1"/>
    <path id="Path_175" data-name="Path 175" d="M257.241,494.565s4.3.736,4.545-1.107-2.211-2.814-4.295-2.953-14.622.742-14.622.742-2.211,2.947,5.773,3.438Z" transform="translate(-207.168 -378.506)" fill="#7679b4"/>
    <path id="Path_176" data-name="Path 176" d="M266.858,500.32l-.271,1.475-.208,1.128-.38,2.063-3.686,2.579s-.332-.284-.881-.733a64.6,64.6,0,0,0-7.015-5.127,7.842,7.842,0,0,0-1.927-.89Z" transform="translate(-214.083 -385.37)" opacity="0.1"/>
    <path id="Path_177" data-name="Path 177" d="M266.851,500.32l-.271,1.475a11.463,11.463,0,0,1-2.431-.124l-8.6.124c-.407-.024-.787-.057-1.143-.094a7.841,7.841,0,0,0-1.927-.89Z" transform="translate(-214.076 -385.37)" opacity="0.1"/>
    <path id="Path_178" data-name="Path 178" d="M257.241,494.565s4.3.736,4.545-1.107-2.211-2.814-4.295-2.953-14.622.742-14.622.742-2.211,2.947,5.773,3.438Z" transform="translate(-207.168 -378.506)" opacity="0.1"/>
    <rect id="Rectangle_60" data-name="Rectangle 60" width="22.479" height="26.656" transform="translate(36.99 55.494)" fill="#a66477"/>
    <rect id="Rectangle_61" data-name="Rectangle 61" width="22.479" height="26.656" transform="translate(36.99 55.494)" opacity="0.1"/>
    <path id="Path_179" data-name="Path 179" d="M140.6,449.374a3.6,3.6,0,0,0-1.369.968,53.868,53.868,0,0,0-5.51,7.507c-4.15-4.94.443-8.846,2.413-10.188.477-.326.8-.5.8-.5Z" transform="translate(-129.963 -348.244)" fill="#ffbdc6"/>
    <path id="Path_180" data-name="Path 180" d="M271.726,331.09s1.107,7.739,4.913,9.582-4.913,5.281-4.913,5.281l-11.916-4.422s6.756-2.211,5.4-8.722Z" transform="translate(-219.195 -267.181)" fill="#ffbdc6"/>
    <path id="Path_181" data-name="Path 181" d="M223.728,485.45l-.271,1.475-.208,1.128-.38,2.063-3.686,2.579s-.332-.284-.881-.733a64.6,64.6,0,0,0-7.015-5.127,7.843,7.843,0,0,0-1.927-.89Z" transform="translate(-183.961 -374.985)" fill="#ffbdc6"/>
    <path id="Path_182" data-name="Path 182" d="M223.721,485.45l-.271,1.475a11.463,11.463,0,0,1-2.431-.124l-8.6.124c-.407-.024-.787-.057-1.143-.094a7.841,7.841,0,0,0-1.927-.89Z" transform="translate(-183.954 -374.985)" opacity="0.1"/>
    <path id="Path_183" data-name="Path 183" d="M214.064,479.707s4.3.736,4.545-1.107-2.211-2.826-4.3-2.947-14.619.736-14.619.736-2.211,2.947,5.773,3.438Z" transform="translate(-177.011 -368.135)" fill="#7679b4"/>
    <path id="Path_184" data-name="Path 184" d="M243.916,493.887l-.38,2.063-3.686,2.579s-.332-.284-.881-.733l4.874-4Z" transform="translate(-204.641 -380.817)" opacity="0.1"/>
    <path id="Path_185" data-name="Path 185" d="M267.131,509.354q-.253-.124-.513-.262l-.449-.573-5.936-7.54v.133c-.039,1.252-.467,11.235-3.8,12.155-3.562.983-7.863,1.228-9.826-5.4s-5.528-21.127-9.214-21.987l5.465-4.485a32.571,32.571,0,0,1,5.1,8.288c-.054-.259-2.555-11.934-.492-14h17.933s2.763,7.884,4.669,11.793c1.478,3.034,3.695,10.206,5.127,15.059A5.768,5.768,0,0,1,267.131,509.354Z" transform="translate(-203.537 -368.162)" fill="#7679b4"/>
    <path id="Path_186" data-name="Path 186" d="M288,443.191c-2.766,1.638-14.926.971-18.889.706l-1.077-.078c-.118,0,.018-.066.018-.066l.112-1.116,2.947-7.492L286.891,426a13.66,13.66,0,0,0-.4,4.129A96.237,96.237,0,0,0,288,443.191Z" transform="translate(-224.902 -333.466)" opacity="0.1"/>
    <path id="Path_187" data-name="Path 187" d="M287.694,442c-2.766,1.638-14.926.971-18.889.706l-1.077-.078h-.178l.2-.051.971-.256,2.087-8.354,15.786-9.151a13.659,13.659,0,0,0-.4,4.129A96.312,96.312,0,0,0,287.694,442Z" transform="translate(-224.601 -332.634)" fill="#f2f1f2"/>
    <path id="Path_188" data-name="Path 188" d="M286.608,428.864c-3.209.739-10.273,2.914-12.987,8.143-1.81,3.493-3.318,4.992-4.394,5.619l-1.077-.078.018-.066.971-.256,2.087-8.354,15.786-9.151A13.66,13.66,0,0,0,286.608,428.864Z" transform="translate(-225.02 -332.572)" opacity="0.1"/>
    <path id="Path_189" data-name="Path 189" d="M146.366,447.17l3.686,2.211a3.6,3.6,0,0,0-1.369.968c-.3-.9-2.238-2.147-3.113-2.678C146.047,447.345,146.366,447.17,146.366,447.17Z" transform="translate(-139.41 -348.251)" opacity="0.1"/>
    <path id="Path_190" data-name="Path 190" d="M265.4,484.263a.22.22,0,0,1-.259-.033A.886.886,0,0,0,265.4,484.263Z" transform="translate(-222.918 -374.133)" opacity="0.1"/>
    <path id="Path_191" data-name="Path 191" d="M190.066,317.748a7.307,7.307,0,0,1-5.652-2.087s-9.826,2.826-13.144,9.214-25.92,18.917-25.92,18.917,3.921,2.211,3.562,3.318l14.863-8.6s5.281-3.809,6.756-4.669,9.582-6.141,11.3,8.231,0,12.667,0,12.667,2.458.86,6.032-6.032,14.619-8.475,14.619-8.475l.6-7.239s2.193-4.8.513-6.8a4.252,4.252,0,0,1-.983-2.078c-.281-1.84,0-4.907,3.921-7.456,6.032-3.921,8.354-7.124,8.354-7.124s.124-2.334-3.562-3.438-18.672-7.124-18.672-7.124l-.492,2.087,11.793,8.354s-5.9,4.789-10.556,4.669C193.384,314.059,194.243,317.624,190.066,317.748Z" transform="translate(-139.257 -244.748)" fill="#565388"/>
    <path id="Path_192" data-name="Path 192" d="M284.168,335.276a24.13,24.13,0,0,1-.679-3.016l-6.512,1.731a7.178,7.178,0,0,1-.148,3.755,7,7,0,0,0,7.338-2.473Z" transform="translate(-231.082 -267.998)" opacity="0.1"/>
    <circle id="Ellipse_58" data-name="Ellipse 58" cx="7.003" cy="7.003" r="7.003" transform="translate(40.675 55.615)" fill="#ffbdc6"/>
    <path id="Path_193" data-name="Path 193" d="M251.436,273.857a50,50,0,0,1,5.7,1.508,2.817,2.817,0,0,0,1.475.057c.742-.229,1.345-1.007,2.111-.983a2.219,2.219,0,0,1,1.285.648,15.416,15.416,0,0,1,1.77,1.571c1.318,1.433,2.138,3.363,3.342,4.919s3.1,2.769,4.811,2.054c-1.161,4.524-4.973,7.983-9.093,8.264-1.644.112-3.318-.229-4.919.253a4.307,4.307,0,0,1-1.243.3c-.9,0-1.653-.841-2.226-1.659a70.266,70.266,0,0,0-3.921-5.86,3.2,3.2,0,0,0-1.789-1.237,3.312,3.312,0,0,0-1.979.555,9.394,9.394,0,0,0-2.9,2.009,4.015,4.015,0,0,0-.977,3.532,8.626,8.626,0,0,1,.6,1.975c0,1.116-.971,1.933-1.167,3.016a11.64,11.64,0,0,0-.048,1.375A5.61,5.61,0,0,1,240.2,299.8a2.623,2.623,0,0,0-.95,1.318c-.078.383,0,.79-.051,1.179a2.141,2.141,0,0,1-1.966,1.583,5.7,5.7,0,0,1-2.95-.35,3.391,3.391,0,0,0,1.65-3.619c-.38-1.994-2.383-3.423-2.214-5.456a6.313,6.313,0,0,1,.555-1.795,16.424,16.424,0,0,0,.947-3.4,5.764,5.764,0,0,0-.057-2.714,8.57,8.57,0,0,0-1.225-2.063,11.708,11.708,0,0,1-1.418-2.9,2.036,2.036,0,0,1-.136-.959,1.988,1.988,0,0,1,.6-1,8.2,8.2,0,0,1,3.734-2.678,8.372,8.372,0,0,1,2.111-.081,24.806,24.806,0,0,0,3.683-.157c1.007-.118,2.714-.1,3.565-.76.793-.6,1.243-1.372,2.223-1.758A6.506,6.506,0,0,1,251.436,273.857Z" transform="translate(-200.036 -227.166)" opacity="0.1"/>
    <path id="Path_194" data-name="Path 194" d="M308.48,513.76s4.054,7.983,2.826,10.442" transform="translate(-253.186 -394.757)" opacity="0.1"/>
    <path id="Path_195" data-name="Path 195" d="M318.992,563.273l-5.936-7.54v.133s-.344-2.437.787-1.617c2.476,1.792,6.439,4.729,6.524,5.236S319.565,562.025,318.992,563.273Z" transform="translate(-256.348 -422.916)" opacity="0.1"/>
    <g id="Group_52" data-name="Group 52" transform="translate(6.217 54.2)" opacity="0.1">
      <path id="Path_196" data-name="Path 196" d="M302.409,348.77a3.012,3.012,0,0,1-1.119,3.113,2.782,2.782,0,0,0,2.527-3.212A7.858,7.858,0,0,1,302.409,348.77Z" transform="translate(-254.381 -333.659)"/>
      <path id="Path_197" data-name="Path 197" d="M147.114,382.417s22.6-12.529,25.92-18.917c2.38-4.584,8.113-7.332,11.159-8.52-2.223.745-9.7,3.6-12.514,9.012-3.318,6.388-25.92,18.917-25.92,18.917Z" transform="translate(-145.76 -338.066)"/>
      <path id="Path_198" data-name="Path 198" d="M306.562,313.036a26.919,26.919,0,0,0,7.522-4.183L302.291,300.5l.268-1.146-1.128-.452-.492,2.087,11.793,8.354A28.457,28.457,0,0,1,306.562,313.036Z" transform="translate(-254.137 -298.9)"/>
      <path id="Path_199" data-name="Path 199" d="M319.83,436.375a29.219,29.219,0,0,1,4.624-1.167l.021-.238A31.294,31.294,0,0,0,319.83,436.375Z" transform="translate(-267.33 -393.931)"/>
      <path id="Path_200" data-name="Path 200" d="M249.358,430.039h-.109a.22.22,0,0,1-.259-.033.905.905,0,0,0,.259.033c.4-.235,1.01-2.069-.259-12.685-1.357-11.334-6.684-10.445-9.6-9.142,2.98-.82,7.082-.112,8.249,9.633,1.27,10.617.664,12.453.259,12.685A2.714,2.714,0,0,0,249.358,430.039Z" transform="translate(-211.151 -374.724)"/>
      <path id="Path_201" data-name="Path 201" d="M267,483.863a.905.905,0,0,1-.259-.033A.22.22,0,0,0,267,483.863Z" transform="translate(-230.252 -428.054)"/>
    </g>
    <path id="Path_202" data-name="Path 202" d="M251.436,273.067a50,50,0,0,1,5.7,1.508,2.817,2.817,0,0,0,1.475.057c.742-.229,1.345-1.007,2.111-.983a2.219,2.219,0,0,1,1.285.648,15.417,15.417,0,0,1,1.77,1.571c1.318,1.433,2.138,3.363,3.342,4.919s3.1,2.769,4.811,2.054c-1.161,4.524-4.973,7.983-9.093,8.264-1.644.112-3.318-.229-4.919.253a4.306,4.306,0,0,1-1.243.3c-.9,0-1.653-.841-2.226-1.659a70.273,70.273,0,0,0-3.921-5.86,3.205,3.205,0,0,0-1.789-1.237,3.312,3.312,0,0,0-1.979.555,9.393,9.393,0,0,0-2.9,2.009,4.015,4.015,0,0,0-.977,3.532,8.626,8.626,0,0,1,.6,1.975c0,1.116-.971,1.933-1.167,3.016a11.643,11.643,0,0,0-.048,1.375,5.61,5.61,0,0,1-2.078,3.646,2.623,2.623,0,0,0-.95,1.318c-.078.383,0,.79-.051,1.179a2.141,2.141,0,0,1-1.966,1.583,5.7,5.7,0,0,1-2.95-.35,3.391,3.391,0,0,0,1.65-3.619c-.38-1.994-2.383-3.423-2.214-5.456a6.313,6.313,0,0,1,.555-1.795,16.423,16.423,0,0,0,.947-3.4,5.763,5.763,0,0,0-.057-2.714,8.569,8.569,0,0,0-1.225-2.063,11.709,11.709,0,0,1-1.418-2.9,2.036,2.036,0,0,1-.136-.959,1.988,1.988,0,0,1,.6-1,8.2,8.2,0,0,1,3.734-2.678,8.372,8.372,0,0,1,2.111-.081,24.807,24.807,0,0,0,3.683-.157c1.007-.118,2.714-.1,3.565-.76.793-.6,1.243-1.372,2.223-1.758A6.506,6.506,0,0,1,251.436,273.067Z" transform="translate(-200.036 -226.615)" fill="#a66477"/>
    <path id="Path_203" data-name="Path 203" d="M810.578,202.869h0v-.112a.255.255,0,0,0-.018-.115h-.048v-.25c-.121-2.8-3.987-8.747-5.537-7.009-1.357,1.526.691,5.387,1.734,7.124l.094.157-.051-.033S802.435,215.5,801.926,216s-4.063,10.623-8.747,11.763c-.926.22-1.7.419-2.34.6l.051-.172a18.652,18.652,0,0,0,.823-3.016,3.905,3.905,0,0,0-.555-2.962c-.271-.265-.6-.3-.826-.724a3.342,3.342,0,0,1-.229-1.161l-.4-4.88.277-.084c1.677-.537,3.3-1.81,3.493-3.523a1.805,1.805,0,0,1-.178.057,3.038,3.038,0,0,0,.051-.3c-1.409.555-2.714-.9-4.072-1.559-2.235-1.095-4.789-.063-7.1.187-2.615.287-5.1-.8-7.769-.6-1.454.112-3.07,1.1-2.992,2.53a10.127,10.127,0,0,0,.832,2.208c.579,1.825-.709,3.655-1.837,5.212a7.758,7.758,0,0,0-1.58,3.468c-2.6-2.714-5.4-5.851-5.73-7.03l-7.513-12.872s-.178.19-.464.471c-.045-.139-.1-.3-.16-.464-.959-2.687-3.674-9.2-7.115-8s1.427,7.869,3.544,10.529l.3.368a.953.953,0,0,1-.537-.024l8.379,14.371s1.523,2.751,2.92,3.5c0,0,10.408,13.123,10.535,15.747s4.681,9.624,4.681,9.624,1.523,11.374-1.143,13.373h.44q-.19.185-.389.407c-1.976,2.19-4.5,6.883-1.05,14.863,5.076,11.763,5.839,16.371,5.839,16.371s-9.651.5-11.551.875c-1.683.332-8.225.564-9.721.6-.534-.621-2.111-2-4.241,0-2.666,2.5-4.569,10.858-4.569,10.858s-1.016,6.75,2.413,5c0,0,4.063-5.625,5.2-5.875.567-.124,1.167-.959,1.626-1.764l.024.015h0c.027,0,.139-.06.32-.133h0a9.779,9.779,0,0,1,5-.739,92.15,92.15,0,0,0,9.826.259c-1.019,2.443-2.847,8.747-2.847,8.747s-.763,5.878,1.77,5.637c1.81-.178,4.584-4.8,6.032-7.441,1.05-.769,4.057-3.526,6.279-3.318l14.978-5.749s3.553-2,1.65-8.623c-1.508-5.266-5.8-16.045-7.495-20.247h0l-.051-.109c-.41-1.016-.658-1.62-.658-1.62h0A24.792,24.792,0,0,1,794,264.7c-.015-.16-.027-.323-.039-.483a2.666,2.666,0,0,0,.588-.341s-1.4-14.121,0-15.623h0l.024-.027h0v-.018h0l.024-.03h0l.054-.069h0l.066-.084h0c.075-.1.166-.223.268-.374h0a10.353,10.353,0,0,0,1.861-7h0q-.027-.205-.066-.413h0a8.618,8.618,0,0,0-.869-2.449,6.8,6.8,0,0,1-.112-.968v-.857a2.9,2.9,0,0,1,.045-.434v-.054a.539.539,0,0,1,.027-.166v-.069a.789.789,0,0,1,.036-.163v-.057c.018-.072.036-.145.06-.217v-.036q.027-.09.06-.178l.027-.069.06-.145.03-.072c.024-.054.051-.109.078-.163l.021-.045q.054-.1.115-.2l.033-.051.1-.142.048-.063.106-.127.048-.054c.054-.057.109-.115.169-.169,1.65-1.508,9.012-12.622,9.012-12.622s1.776-2.5,1.776-4.123C807.755,216.517,810.9,206.051,810.578,202.869Zm-19.764,93.422c-.181-1.713-.362-3.836-.528-6.032l2.871,4.476S792.886,296.1,790.814,296.291Z" transform="translate(-559.205 -172.136)" fill="url(#linear-gradient-4)"/>
    <path id="Path_204" data-name="Path 204" d="M773.3,524.731s-1.719-2.714-4.3-.244-4.422,10.686-4.422,10.686-.983,6.635,2.334,4.913c0,0,3.921-5.528,5.037-5.773S774.28,531,774.28,531Z" transform="translate(-571.625 -401.523)" fill="#493545"/>
    <path id="Path_205" data-name="Path 205" d="M840.155,548.363s-2.334-1.107-3.07-.244-3.194,9.458-3.194,9.458-.736,5.652,1.719,5.4,6.756-9.1,6.756-9.1Z" transform="translate(-620.058 -418.523)" fill="#493545"/>
    <path id="Path_206" data-name="Path 206" d="M840.155,548.363s-2.334-1.107-3.07-.244-3.194,9.458-3.194,9.458-.736,5.652,1.719,5.4,6.756-9.1,6.756-9.1Z" transform="translate(-620.058 -418.523)" opacity="0.05"/>
    <path id="Path_207" data-name="Path 207" d="M860.118,459.646l5.281,8.231s-.368,1.843-3.562,1.475l-10.933,6.88s-.95,8.376,2.087,7.616c.492-.124,3.921-3.686,6.388-3.438l14.5-5.652s3.438-1.966,1.6-8.475-7.935-21.6-7.935-21.6l-9.63,5.387Z" transform="translate(-631.914 -346.512)" fill="#3e3d77"/>
    <path id="Path_208" data-name="Path 208" d="M860.118,459.646l5.281,8.231s-.368,1.843-3.562,1.475l-10.933,6.88s-.95,8.376,2.087,7.616c.492-.124,3.921-3.686,6.388-3.438l14.5-5.652s3.438-1.966,1.6-8.475-7.935-21.6-7.935-21.6l-9.63,5.387Z" transform="translate(-631.914 -346.512)" opacity="0.05"/>
    <path id="Path_209" data-name="Path 209" d="M819.809,451.287c.736,4.669-3.438,5.037-3.438,5.037s-18.8.368-21.007-.124-5.16.86-5.16.86c-3.809-2.334-.736-8.107-.736-8.107s7.863-.244,9.706-.6,11.177-.869,11.177-.869-.736-4.545-5.652-16.091c-3.339-7.842-.9-12.456,1.016-14.607A8.089,8.089,0,0,1,807.4,415.3l15.11.736a19.6,19.6,0,0,0,.084,2.283,24.318,24.318,0,0,0,2.006,7.54c-.86,0-6.388,5.16-6.388,5.16S819.07,446.622,819.809,451.287Z" transform="translate(-588.287 -325.993)" fill="#3e3d77"/>
    <path id="Path_210" data-name="Path 210" d="M790.574,449.466s7.863-.244,9.706-.6,11.177-.86,11.177-.86-.736-4.545-5.652-16.091c-3.339-7.842-.9-12.456,1.016-14.607a8.09,8.09,0,0,1,1.686-1.484l14,.682v-.437l-15.11-.736a8.089,8.089,0,0,0-1.686,1.484c-1.912,2.154-4.355,6.765-1.016,14.607,4.928,11.536,5.658,16.082,5.658,16.082s-9.35.492-11.177.86-9.706.6-9.706.6-3.07,5.776.736,8.119c0,0,.115-.054.3-.133C787.977,454.349,790.574,449.466,790.574,449.466Z" transform="translate(-588.29 -326.014)" opacity="0.1"/>
    <rect id="Rectangle_62" data-name="Rectangle 62" width="7.616" height="19.285" transform="translate(217.147 44.22)" fill="#493545"/>
    <rect id="Rectangle_63" data-name="Rectangle 63" width="7.616" height="19.285" transform="translate(217.147 44.22)" opacity="0.1"/>
    <path id="Path_211" data-name="Path 211" d="M876.8,248.88c.262.072.558.081.736.443a2.713,2.713,0,0,1,.178.9l.48,5.96a3.316,3.316,0,0,0,.223,1.14c.2.4.537.452.8.712a3.943,3.943,0,0,1,.537,2.91,19.128,19.128,0,0,1-.8,2.956,27.832,27.832,0,0,1-1.258,4.117c-.576,1.17-1.623,1.81-2.3.826s-.585-2.968-.712-4.593c-.211-2.714-1.27-5.055-1.342-7.787a31.222,31.222,0,0,1,.9-6.37c.265-1.439.28-3.185.667-4.479C875.244,247.158,875.86,248.621,876.8,248.88Z" transform="translate(-647.686 -207.489)" fill="#493545"/>
    <path id="Path_212" data-name="Path 212" d="M876.8,248.88c.262.072.558.081.736.443a2.713,2.713,0,0,1,.178.9l.48,5.96a3.316,3.316,0,0,0,.223,1.14c.2.4.537.452.8.712a3.943,3.943,0,0,1,.537,2.91,19.128,19.128,0,0,1-.8,2.956,27.832,27.832,0,0,1-1.258,4.117c-.576,1.17-1.623,1.81-2.3.826s-.585-2.968-.712-4.593c-.211-2.714-1.27-5.055-1.342-7.787a31.222,31.222,0,0,1,.9-6.37c.265-1.439.28-3.185.667-4.479C875.244,247.158,875.86,248.621,876.8,248.88Z" transform="translate(-647.686 -207.489)" opacity="0.1"/>
    <path id="Path_213" data-name="Path 213" d="M758.461,207.255l-2.947,2.458s-.35-.41-.872-1.074c-2.048-2.615-6.756-9.175-3.429-10.348s5.957,5.224,6.886,7.866C758.335,206.826,758.461,207.255,758.461,207.255Z" transform="translate(-561.582 -174.335)" fill="#c77485"/>
    <path id="Path_214" data-name="Path 214" d="M941.331,206.566c-1.228,1.843-2.947,0-2.947,0s-.22-.329-.531-.86c-1.01-1.71-2.992-5.5-1.68-7,1.508-1.716,5.245,4.141,5.359,6.889A1.635,1.635,0,0,1,941.331,206.566Z" transform="translate(-691.261 -174.507)" fill="#c77485"/>
    <path id="Path_215" data-name="Path 215" d="M854.08,286.651s2.458,7.863,1.719,10.194,5.284,5.046,5.284,5.046h6.88s2.458-5.037,1.843-6.512-5.9-2.579-5.9-2.579-3.07,0-2.947-8.231Z" transform="translate(-634.231 -234.691)" fill="#c77485"/>
    <path id="Path_216" data-name="Path 216" d="M769.078,225.8l-2.947,2.458s-.35-.41-.872-1.074c1.071-.19,2.733-1.752,3.459-2.482C768.952,225.37,769.078,225.8,769.078,225.8Z" transform="translate(-572.199 -192.879)" opacity="0.1"/>
    <path id="Path_217" data-name="Path 217" d="M946.228,223.213c-1.228,1.843-2.947,0-2.947,0s-.22-.329-.531-.86l.039-.124c.8.57,3.272.084,3.64,0a1.634,1.634,0,0,1-.2.983Z" transform="translate(-696.157 -191.154)" opacity="0.1"/>
    <path id="Path_218" data-name="Path 218" d="M862.89,418.3c-3.8,1.734-16.148-1.354-16.89-1.538a8.09,8.09,0,0,1,1.686-1.484l15.11.736a19.624,19.624,0,0,0,.094,2.286Z" transform="translate(-628.587 -325.979)" opacity="0.1"/>
    <path id="Path_219" data-name="Path 219" d="M793.116,250.463s-2.947.983-7.124-2.826c0,0-9.35-9.214-9.953-11.425L768.8,223.545s-3.07,3.318-4.3,2.826l8.107,14.127s1.475,2.714,2.826,3.438c0,0,10.074,12.9,10.194,15.478s4.539,9.485,4.539,9.485,1.475,11.177-1.107,13.144c0,0,14.371,3.686,17.442,1.228,0,0-1.351-13.874,0-15.355,0,0,4.177-4.913,1.351-10.318,0,0-.6-2.947.983-4.422s8.722-12.408,8.722-12.408,1.719-2.458,1.719-4.054c0,0,3.194-10.81,2.714-13.636,0,0-2.826.6-3.686,0,0,0-4.177,12.667-4.669,13.144s-3.921,10.442-8.475,11.548-5.281,1.6-5.281,1.6,8.843,5.528,4.545,7.983S793.116,250.463,793.116,250.463Z" transform="translate(-571.668 -191.747)" fill="#ffaac4"/>
    <path id="Path_220" data-name="Path 220" d="M861.548,289.66a23.471,23.471,0,0,1-.178-3.49l-6.88,2.087a9.279,9.279,0,0,1,.431,1.412c.787.347,1.849,1.167,2.763,1.167A6.264,6.264,0,0,0,861.548,289.66Z" transform="translate(-634.517 -235.809)" opacity="0.1"/>
    <circle id="Ellipse_59" data-name="Ellipse 59" cx="6.388" cy="6.388" r="6.388" transform="translate(216.655 41.886)" fill="#c77485"/>
    <path id="Path_221" data-name="Path 221" d="M826.943,246.42c-1.405.109-2.974,1.08-2.9,2.488a9.461,9.461,0,0,0,.805,2.172c.558,1.795-.685,3.6-1.776,5.127s-2.111,3.562-1.176,5.185a12.788,12.788,0,0,0,.863,1.125c1.155,1.559,1.14,3.664,1.653,5.537a9.715,9.715,0,0,0,11.413,6.937,6.074,6.074,0,0,1-1.282-4.108c.069-1.074.416-2.2,0-3.188-.537-1.276-2.111-1.779-2.923-2.9a4.628,4.628,0,0,1-.365-3.993c.392-1.33,1.071-2.564,1.4-3.921a11.786,11.786,0,0,1,.3-1.173c.567-1.611,2.262-2.546,3.921-2.947s3.4-.425,5.022-.953,3.194-1.764,3.381-3.462c-1.363.546-2.627-.878-3.942-1.532-2.166-1.074-4.636-.063-6.868.184C831.928,247.286,829.516,246.233,826.943,246.42Z" transform="translate(-611.5 -207.987)" opacity="0.1"/>
    <path id="Path_222" data-name="Path 222" d="M826.533,245.61c-1.406.109-2.974,1.08-2.9,2.488a9.458,9.458,0,0,0,.805,2.172c.558,1.795-.685,3.6-1.776,5.127s-2.111,3.562-1.176,5.185a12.78,12.78,0,0,0,.863,1.125c1.155,1.559,1.14,3.664,1.653,5.537a9.715,9.715,0,0,0,11.413,6.937,6.075,6.075,0,0,1-1.282-4.108c.069-1.074.416-2.2,0-3.188-.537-1.276-2.111-1.779-2.922-2.9a4.627,4.627,0,0,1-.365-3.993c.392-1.33,1.071-2.564,1.4-3.921a11.821,11.821,0,0,1,.3-1.173c.567-1.611,2.262-2.546,3.921-2.947s3.4-.425,5.022-.953,3.194-1.764,3.381-3.462c-1.363.546-2.627-.878-3.942-1.532-2.166-1.074-4.636-.063-6.868.184C831.524,246.473,829.121,245.408,826.533,245.61Z" transform="translate(-611.213 -207.422)" fill="#493545"/>
    <path id="Path_223" data-name="Path 223" d="M885.65,326.3a20.586,20.586,0,0,1,3.061,3.291" transform="translate(-656.279 -263.836)" opacity="0.1"/>
    <path id="Path_224" data-name="Path 224" d="M881.526,371.51a27.508,27.508,0,0,0-4.669.368,21.95,21.95,0,0,1-5.037,0" transform="translate(-646.62 -295.41)" opacity="0.1"/>
    <g id="Group_53" data-name="Group 53" transform="translate(192.829 31.324)" opacity="0.1">
      <path id="Path_225" data-name="Path 225" d="M886.325,318.193a3.072,3.072,0,0,1-.884.338,3.378,3.378,0,0,0,2.359-.338c4.3-2.458-4.545-7.983-4.545-7.983H881.78S890.626,315.738,886.325,318.193Z" transform="translate(-846.405 -283.922)"/>
      <path id="Path_226" data-name="Path 226" d="M951.579,223.273a1.29,1.29,0,0,0-.03-.223,14.432,14.432,0,0,1-1.529.232,6.775,6.775,0,0,0,1.559-.009Z" transform="translate(-894.063 -223.05)"/>
      <path id="Path_227" data-name="Path 227" d="M790.531,289.7c2.579-1.966,1.107-13.144,1.107-13.144s-4.422-6.88-4.545-9.458S776.9,251.615,776.9,251.615c-1.351-.736-2.826-3.438-2.826-3.438s-8.354-13.636-9.582-14.127l8.107,14.127s1.475,2.714,2.826,3.438c0,0,10.074,12.9,10.194,15.478s4.542,9.467,4.542,9.467,1.475,11.177-1.107,13.144c0,0,8.834,2.265,14.13,2.06A73.922,73.922,0,0,1,790.531,289.7Z" transform="translate(-764.49 -230.732)"/>
      <path id="Path_228" data-name="Path 228" d="M858.859,313.974l-.072-.094a1.946,1.946,0,0,1-.256.057C858.645,313.952,858.753,313.964,858.859,313.974Z" transform="translate(-830.167 -286.485)"/>
    </g>
    <g id="Group_54" data-name="Group 54" transform="translate(234.716 31.309)" opacity="0.1">
      <path id="Path_229" data-name="Path 229" d="M921.828,223l-.075.015c-.13,3.773-2.748,12.637-2.748,12.637,0,1.6-1.719,4.054-1.719,4.054s-7.124,10.933-8.722,12.408-.983,4.422-.983,4.422l.015.03a4.46,4.46,0,0,1,1.089-3.471c1.6-1.475,8.722-12.408,8.722-12.408s1.719-2.458,1.719-4.054C919.126,236.651,922.32,225.841,921.828,223Z" transform="translate(-906.229 -223)"/>
      <path id="Path_230" data-name="Path 230" d="M903.37,352.408c.184,1.044.06-.06.124.983,0,0,3.016-3.538,2.193-7.911A10.755,10.755,0,0,1,903.37,352.408Z" transform="translate(-903.37 -308.539)"/>
    </g>
    <ellipse id="Ellipse_60" data-name="Ellipse 60" cx="128.987" cy="12.39" rx="128.987" ry="12.39" transform="translate(12.689 174.752)" fill="#ed1500" opacity="0.1"/>
    <path id="Path_231" data-name="Path 231" d="M425.107,587.765s-4.391-14.914.823-25.89a23.555,23.555,0,0,0,1.906-14.779,39.616,39.616,0,0,0-2.093-6.937" transform="translate(-333.43 -413.194)" fill="none" stroke="#535461" stroke-miterlimit="10" stroke-width="2"/>
    <path id="Path_232" data-name="Path 232" d="M426.614,508.931c0,1.828-3.318,7.127-3.318,7.127s-3.318-5.3-3.318-7.127a3.318,3.318,0,1,1,6.617,0Z" transform="translate(-331.05 -388.896)" fill="#ed1500"/>
    <path id="Path_233" data-name="Path 233" d="M444.71,538.44c-.992,1.535-6.65,4.183-6.65,4.183s.1-6.246,1.095-7.781a3.318,3.318,0,1,1,5.556,3.6Z" transform="translate(-343.684 -408.283)" fill="#ed1500"/>
    <path id="Path_234" data-name="Path 234" d="M441.162,593.326c-1.632.823-7.842.253-7.842.253s3.242-5.341,4.874-6.165a3.318,3.318,0,1,1,2.98,5.908Z" transform="translate(-340.374 -445.866)" fill="#ed1500"/>
    <path id="Path_235" data-name="Path 235" d="M431.12,637.926c-1.469,1.086-7.7,1.577-7.7,1.577s2.292-5.812,3.764-6.9a3.318,3.318,0,0,1,3.921,5.32Z" transform="translate(-333.46 -477.419)" fill="#ed1500"/>
    <path id="Path_236" data-name="Path 236" d="M412.263,552.229c1.312,1.273,7.419,2.594,7.419,2.594s-1.508-6.065-2.808-7.341a3.318,3.318,0,1,0-4.612,4.747Z" transform="translate(-324.842 -417.533)" fill="#ed1500"/>
    <path id="Path_237" data-name="Path 237" d="M399.8,602.308c1.632.823,7.842.253,7.842.253s-3.23-5.341-4.862-6.15a3.318,3.318,0,0,0-2.98,5.908Z" transform="translate(-315.839 -452.302)" fill="#ed1500"/>
    <path id="Path_238" data-name="Path 238" d="M395.472,653.155c1.469,1.086,7.7,1.577,7.7,1.577s-2.292-5.812-3.764-6.9a3.318,3.318,0,1,0-3.921,5.32Z" transform="translate(-312.837 -487.81)" fill="#ed1500"/>
    <path id="Path_239" data-name="Path 239" d="M426.614,508.931c0,1.828-3.318,7.127-3.318,7.127s-3.318-5.3-3.318-7.127a3.318,3.318,0,1,1,6.617,0Z" transform="translate(-331.05 -388.896)" fill="#ed1500" opacity="0.1"/>
    <path id="Path_240" data-name="Path 240" d="M444.71,538.44c-.992,1.535-6.65,4.183-6.65,4.183s.1-6.246,1.095-7.781a3.318,3.318,0,1,1,5.556,3.6Z" transform="translate(-343.684 -408.283)" fill="#ed1500" opacity="0.1"/>
    <path id="Path_241" data-name="Path 241" d="M441.162,593.326c-1.632.823-7.842.253-7.842.253s3.242-5.341,4.874-6.165a3.318,3.318,0,1,1,2.98,5.908Z" transform="translate(-340.374 -445.866)" fill="#ed1500" opacity="0.1"/>
    <path id="Path_242" data-name="Path 242" d="M431.12,637.926c-1.469,1.086-7.7,1.577-7.7,1.577s2.292-5.812,3.764-6.9a3.318,3.318,0,0,1,3.921,5.32Z" transform="translate(-333.46 -477.419)" fill="#ed1500" opacity="0.1"/>
    <path id="Path_243" data-name="Path 243" d="M412.263,552.229c1.312,1.273,7.419,2.594,7.419,2.594s-1.508-6.065-2.808-7.341a3.318,3.318,0,1,0-4.612,4.747Z" transform="translate(-324.842 -417.533)" fill="#ed1500" opacity="0.1"/>
    <path id="Path_244" data-name="Path 244" d="M399.8,602.308c1.632.823,7.842.253,7.842.253s-3.23-5.341-4.862-6.15a3.318,3.318,0,0,0-2.98,5.908Z" transform="translate(-315.839 -452.302)" fill="#ed1500" opacity="0.1"/>
    <path id="Path_245" data-name="Path 245" d="M395.472,653.155c1.469,1.086,7.7,1.577,7.7,1.577s-2.292-5.812-3.764-6.9a3.318,3.318,0,1,0-3.921,5.32Z" transform="translate(-312.837 -487.81)" fill="#ed1500" opacity="0.1"/>
    <path id="Path_246" data-name="Path 246" d="M719.747,588.475s-4.391-14.914.823-25.89a23.555,23.555,0,0,0,1.906-14.779,39.611,39.611,0,0,0-2.093-6.937" transform="translate(-539.205 -413.69)" fill="none" stroke="#535461" stroke-miterlimit="10" stroke-width="2"/>
    <path id="Path_247" data-name="Path 247" d="M721.255,510.765c0,1.828-3.318,7.127-3.318,7.127s-3.318-5.3-3.318-7.127a3.318,3.318,0,0,1,6.617,0Z" transform="translate(-536.832 -390.519)" fill="#ed1500"/>
    <path id="Path_248" data-name="Path 248" d="M739.36,539.14c-.992,1.535-6.65,4.183-6.65,4.183s.1-6.246,1.095-7.781a3.318,3.318,0,1,1,5.556,3.6Z" transform="translate(-549.466 -408.772)" fill="#ed1500"/>
    <path id="Path_249" data-name="Path 249" d="M735.842,594.011c-1.632.823-7.842.253-7.842.253s3.242-5.341,4.874-6.165a3.318,3.318,0,1,1,2.968,5.911Z" transform="translate(-546.177 -446.341)" fill="#ed1500"/>
    <path id="Path_250" data-name="Path 250" d="M725.76,638.626c-1.469,1.086-7.7,1.577-7.7,1.577s2.292-5.812,3.764-6.9a3.318,3.318,0,0,1,3.921,5.32Z" transform="translate(-539.235 -477.907)" fill="#ed1500"/>
    <path id="Path_251" data-name="Path 251" d="M706.923,552.929c1.312,1.273,7.419,2.594,7.419,2.594s-1.508-6.065-2.808-7.341a3.318,3.318,0,1,0-4.612,4.747Z" transform="translate(-530.631 -418.022)" fill="#ed1500"/>
    <path id="Path_252" data-name="Path 252" d="M694.413,602.973c1.632.823,7.842.253,7.842.253s-3.242-5.341-4.874-6.165a3.318,3.318,0,0,0-2.98,5.908Z" transform="translate(-521.587 -452.757)" fill="#ed1500"/>
    <path id="Path_253" data-name="Path 253" d="M691.222,654.666c1.469,1.086,7.7,1.577,7.7,1.577s-2.292-5.812-3.764-6.9a3.318,3.318,0,0,0-3.921,5.32Z" transform="translate(-519.72 -489.11)" fill="#ed1500"/>
    <path id="Path_254" data-name="Path 254" d="M721.255,510.765c0,1.828-3.318,7.127-3.318,7.127s-3.318-5.3-3.318-7.127a3.318,3.318,0,0,1,6.617,0Z" transform="translate(-536.832 -390.519)" fill="#ed1500" opacity="0.1"/>
    <path id="Path_255" data-name="Path 255" d="M739.36,539.14c-.992,1.535-6.65,4.183-6.65,4.183s.1-6.246,1.095-7.781a3.318,3.318,0,1,1,5.556,3.6Z" transform="translate(-549.466 -408.772)" fill="#ed1500" opacity="0.1"/>
    <path id="Path_256" data-name="Path 256" d="M735.842,594.011c-1.632.823-7.842.253-7.842.253s3.242-5.341,4.874-6.165a3.318,3.318,0,1,1,2.968,5.911Z" transform="translate(-546.177 -446.341)" fill="#ed1500" opacity="0.1"/>
    <path id="Path_257" data-name="Path 257" d="M725.76,638.626c-1.469,1.086-7.7,1.577-7.7,1.577s2.292-5.812,3.764-6.9a3.318,3.318,0,0,1,3.921,5.32Z" transform="translate(-539.235 -477.907)" fill="#ed1500" opacity="0.1"/>
    <path id="Path_258" data-name="Path 258" d="M706.923,552.929c1.312,1.273,7.419,2.594,7.419,2.594s-1.508-6.065-2.808-7.341a3.318,3.318,0,1,0-4.612,4.747Z" transform="translate(-530.631 -418.022)" fill="#ed1500" opacity="0.1"/>
    <path id="Path_259" data-name="Path 259" d="M694.413,602.973c1.632.823,7.842.253,7.842.253s-3.242-5.341-4.874-6.165a3.318,3.318,0,0,0-2.98,5.908Z" transform="translate(-521.587 -452.757)" fill="#ed1500" opacity="0.1"/>
    <path id="Path_260" data-name="Path 260" d="M691.222,654.666c1.469,1.086,7.7,1.577,7.7,1.577s-2.292-5.812-3.764-6.9a3.318,3.318,0,0,0-3.921,5.32Z" transform="translate(-519.72 -489.11)" fill="#ed1500" opacity="0.1"/>
    <path id="Path_261" data-name="Path 261" d="M750.079,128.408h-1.894a1.327,1.327,0,1,0,0-2.651H732.828a1.327,1.327,0,0,0,0,2.651h1.894a1.327,1.327,0,0,0,0,2.651h-2.651a1.327,1.327,0,1,0,0,2.651h15.346a1.327,1.327,0,1,0,0-2.651h2.663a1.327,1.327,0,0,0,0-2.651Z" transform="translate(-548.049 -123.776)" fill="#dee3f3" opacity="0.5"/>
    <path id="Path_262" data-name="Path 262" d="M466.6,155.514h-1.442a1.01,1.01,0,1,0,0-2.018H453.479a1.01,1.01,0,0,0,0,2.018h1.442a1.01,1.01,0,1,0,0,2.018H452.9a1.01,1.01,0,1,0,0,2.018h11.678a1.01,1.01,0,1,0,0-2.018H466.6a1.01,1.01,0,0,0,0-2.018Z" transform="translate(-353.306 -143.149)" fill="#dee3f3" opacity="0.5"/>
    <path id="Path_263" data-name="Path 263" d="M173.84,634s5.278,10.36.977,16.027.392,21.112.392,21.112" transform="translate(-158.569 -478.732)" fill="none" stroke="#ed1500" stroke-miterlimit="10" stroke-width="1"/>
    <path id="Path_264" data-name="Path 264" d="M174.212,614.879a6.1,6.1,0,0,1-1.466,3.619,5.2,5.2,0,0,1,0-7.239A6.1,6.1,0,0,1,174.212,614.879Z" transform="translate(-157.366 -462.85)" fill="#ed1500"/>
    <path id="Path_265" data-name="Path 265" d="M178.68,634s-5.278,10.36-.977,16.027-.392,21.112-.392,21.112" transform="translate(-160.673 -478.732)" fill="none" stroke="#ed1500" stroke-miterlimit="10" stroke-width="1"/>
    <path id="Path_266" data-name="Path 266" d="M179.67,614.879a6.1,6.1,0,0,0,1.466,3.619,5.2,5.2,0,0,0,0-7.239A6.1,6.1,0,0,0,179.67,614.879Z" transform="translate(-163.226 -462.85)" fill="#ed1500"/>
    <path id="Path_267" data-name="Path 267" d="M179.67,614.879a6.1,6.1,0,0,0,1.466,3.619,5.2,5.2,0,0,0,0-7.239A6.1,6.1,0,0,0,179.67,614.879Z" transform="translate(-163.226 -462.85)" opacity="0.1"/>
    <path id="Path_268" data-name="Path 268" d="M190.06,634s5.278,10.36.977,16.027.392,21.112.392,21.112" transform="translate(-169.897 -478.732)" fill="none" stroke="#ed1500" stroke-miterlimit="10" stroke-width="1"/>
    <path id="Path_269" data-name="Path 269" d="M190.382,614.879a6.1,6.1,0,0,1-1.466,3.619,5.2,5.2,0,0,1,0-7.239A6.1,6.1,0,0,1,190.382,614.879Z" transform="translate(-168.659 -462.85)" fill="#ed1500"/>
    <path id="Path_270" data-name="Path 270" d="M186.185,642.4a6.094,6.094,0,0,1-3.565,1.589,5.193,5.193,0,0,1,5.016-5.209A6.158,6.158,0,0,1,186.185,642.4Z" transform="translate(-165.286 -482.07)" fill="#ed1500"/>
    <path id="Path_271" data-name="Path 271" d="M186.645,666.1a6.094,6.094,0,0,1-3.565,1.589,5.193,5.193,0,0,1,5.016-5.209A6.09,6.09,0,0,1,186.645,666.1Z" transform="translate(-165.607 -498.622)" fill="#ed1500"/>
    <path id="Path_272" data-name="Path 272" d="M161.947,683.41a6.091,6.091,0,0,1,1.264,3.692,5.195,5.195,0,0,1-4.741-5.462A6.092,6.092,0,0,1,161.947,683.41Z" transform="translate(-148.419 -512.003)" fill="#ed1500"/>
    <path id="Path_273" data-name="Path 273" d="M165.144,635.1a6.093,6.093,0,0,1,2.2,3.221,5.192,5.192,0,0,1-6.029-4A6.031,6.031,0,0,1,165.144,635.1Z" transform="translate(-150.41 -478.922)" fill="#ed1500"/>
    <path id="Path_274" data-name="Path 274" d="M165.144,635.1a6.093,6.093,0,0,1,2.2,3.221,5.192,5.192,0,0,1-6.029-4A6.031,6.031,0,0,1,165.144,635.1Z" transform="translate(-150.41 -478.922)" opacity="0.1"/>
    <path id="Path_275" data-name="Path 275" d="M194.88,634s-5.278,10.36-.977,16.027-.392,21.112-.392,21.112" transform="translate(-171.987 -478.732)" fill="none" stroke="#ed1500" stroke-miterlimit="10" stroke-width="1"/>
    <path id="Path_276" data-name="Path 276" d="M195.87,614.879a6.1,6.1,0,0,0,1.466,3.619,5.2,5.2,0,0,0,0-7.239A6.1,6.1,0,0,0,195.87,614.879Z" transform="translate(-174.54 -462.85)" fill="#ed1500"/>
    <path id="Path_277" data-name="Path 277" d="M195.87,614.879a6.1,6.1,0,0,0,1.466,3.619,5.2,5.2,0,0,0,0-7.239A6.1,6.1,0,0,0,195.87,614.879Z" transform="translate(-174.54 -462.85)" opacity="0.1"/>
    <path id="Path_278" data-name="Path 278" d="M193.778,647.707a6.176,6.176,0,0,0-1.508,3.619,6.085,6.085,0,0,0,3.583-1.547,6.177,6.177,0,0,0,1.508-3.619A6.086,6.086,0,0,0,193.778,647.707Z" transform="translate(-172.026 -487.224)" fill="#ed1500"/>
    <path id="Path_279" data-name="Path 279" d="M193.778,647.707a6.176,6.176,0,0,0-1.508,3.619,6.085,6.085,0,0,0,3.583-1.547,6.177,6.177,0,0,0,1.508-3.619A6.086,6.086,0,0,0,193.778,647.707Z" transform="translate(-172.026 -487.224)" opacity="0.1"/>
    <path id="Path_280" data-name="Path 280" d="M202.888,680.517a6.177,6.177,0,0,0-1.508,3.619,6.086,6.086,0,0,0,3.583-1.547,6.177,6.177,0,0,0,1.508-3.619A6.066,6.066,0,0,0,202.888,680.517Z" transform="translate(-178.388 -510.139)" fill="#ed1500"/>
    <path id="Path_281" data-name="Path 281" d="M193,665.017s3.176-5.007,7.637-5.127" transform="translate(-172.535 -496.813)" fill="none" stroke="#ed1500" stroke-miterlimit="10" stroke-width="1"/>
    <path id="Path_282" data-name="Path 282" d="M167.087,654.987s-3.176-5.007-7.637-5.127" transform="translate(-149.104 -489.808)" fill="none" stroke="#ed1500" stroke-miterlimit="10" stroke-width="1"/>
    <path id="Path_283" data-name="Path 283" d="M183.4,678.687s3.176-5.007,7.637-5.127" transform="translate(-165.831 -506.36)" fill="none" stroke="#ed1500" stroke-miterlimit="10" stroke-width="1"/>
    <circle id="Ellipse_61" data-name="Ellipse 61" cx="0.823" cy="0.823" r="0.823" transform="translate(27.124 162.226)" fill="#ed1500"/>
    <circle id="Ellipse_62" data-name="Ellipse 62" cx="0.823" cy="0.823" r="0.823" transform="translate(9.601 159.271)" fill="#ed1500"/>
    <path id="Path_284" data-name="Path 284" d="M173.467,684.127s-3.176-5.007-7.637-5.127" transform="translate(-153.56 -510.16)" fill="none" stroke="#ed1500" stroke-miterlimit="10" stroke-width="1"/>
    <circle id="Ellipse_63" data-name="Ellipse 63" cx="0.823" cy="0.823" r="0.823" transform="translate(11.525 168.065)" fill="#ed1500"/>
    <circle id="Ellipse_64" data-name="Ellipse 64" cx="0.823" cy="0.823" r="0.823" transform="translate(24.443 166.419)" fill="#ed1500"/>
    <path id="Path_285" data-name="Path 285" d="M179.778,719.735s-7.655-1.532-9.7-3.574-11.226-5.613-12.248-3.061-13.78,11.229-5.1,12.761,20.416,2.042,22.967,1.019S179.778,719.735,179.778,719.735Z" transform="translate(-142.308 -533.356)" fill="#a8a8a8"/>
    <path id="Path_286" data-name="Path 286" d="M152.735,742.2c8.677,1.532,20.416,2.042,22.967,1.019,1.942-.778,3.294-4.524,3.827-6.249l.256.054s-1.532,6.126-4.084,7.145-14.29.51-22.967-1.019c-2.5-.443-3.221-1.481-2.95-2.793C150,741.2,150.871,741.871,152.735,742.2Z" transform="translate(-142.317 -550.646)" opacity="0.2"/>
    <path id="Path_287" data-name="Path 287" d="M1003.829,641.78s2.527,3.318-1.167,8.294-6.741,9.2-5.507,12.315c0,0,5.574-9.268,10.11-9.4S1008.821,647.351,1003.829,641.78Z" transform="translate(-733.959 -484.165)" fill="#ed1500"/>
    <path id="Path_288" data-name="Path 288" d="M1004.16,641.78a4.093,4.093,0,0,1,.516,1.037c4.428,5.2,6.783,10.052,2.53,10.176-3.963.115-8.716,7.2-9.856,8.991a3.836,3.836,0,0,0,.136.407s5.574-9.268,10.11-9.4S1009.152,647.351,1004.16,641.78Z" transform="translate(-734.29 -484.165)" opacity="0.1"/>
    <path id="Path_289" data-name="Path 289" d="M1034.113,654.028c0,1.164-.13,2.111-.3,2.111s-.3-.944-.3-2.111.163-.6.323-.6S1034.113,652.867,1034.113,654.028Z" transform="translate(-759.544 -492.203)" fill="#ffd037"/>
    <path id="Path_290" data-name="Path 290" d="M1036.246,658.506c-1.022.558-1.912.9-1.988.751s.688-.709,1.71-1.264.618-.151.7,0S1037.265,657.948,1036.246,658.506Z" transform="translate(-760.062 -495.29)" fill="#ffd037"/>
    <path id="Path_291" data-name="Path 291" d="M962.535,641.78s-2.527,3.318,1.167,8.294,6.741,9.2,5.507,12.315c0,0-5.574-9.268-10.11-9.4S957.543,647.351,962.535,641.78Z" transform="translate(-706.013 -484.165)" fill="#ed1500"/>
    <path id="Path_292" data-name="Path 292" d="M962.535,641.78a4.091,4.091,0,0,0-.516,1.037c-4.428,5.2-6.783,10.052-2.531,10.176,3.963.115,8.716,7.2,9.856,8.991a3.836,3.836,0,0,1-.136.407s-5.574-9.268-10.11-9.4S957.543,647.351,962.535,641.78Z" transform="translate(-706.013 -484.165)" opacity="0.1"/>
    <path id="Path_293" data-name="Path 293" d="M960.09,654.028c0,1.164.13,2.111.3,2.111s.3-.944.3-2.111-.163-.6-.323-.6S960.09,652.867,960.09,654.028Z" transform="translate(-708.268 -492.203)" fill="#ffd037"/>
    <path id="Path_294" data-name="Path 294" d="M953.3,658.506c1.022.558,1.912.9,1.988.751s-.688-.709-1.71-1.264-.618-.151-.7,0S952.274,657.948,953.3,658.506Z" transform="translate(-703.088 -495.29)" fill="#ffd037"/>
    <path id="Path_295" data-name="Path 295" d="M962.76,699.831s7.067-.217,9.2-1.734,10.858-3.318,11.4-.9,10.619,12.1,2.642,12.161-18.537-1.243-20.663-2.536S962.76,699.831,962.76,699.831Z" transform="translate(-710.132 -522.042)" fill="#a8a8a8"/>
    <path id="Path_296" data-name="Path 296" d="M986.137,717.342c-7.977.063-18.537-1.243-20.663-2.536-1.62-.986-2.265-4.524-2.479-6.156h-.235s.446,5.7,2.573,6.994,12.685,2.6,20.663,2.536c2.3-.018,3.1-.838,3.055-2.051C988.731,716.869,987.866,717.327,986.137,717.342Z" transform="translate(-710.132 -530.867)" opacity="0.2"/>
    <path id="Path_297" data-name="Path 297" d="M258.34,187.738h-1.894a1.327,1.327,0,1,0,0-2.651H241.1a1.327,1.327,0,0,0,0,2.651h1.894a1.327,1.327,0,0,0,0,2.651h-2.651a1.327,1.327,0,0,0,0,2.651h15.346a1.327,1.327,0,1,0,0-2.651h2.651a1.327,1.327,0,0,0,0-2.651Z" transform="translate(-204.717 -165.212)" fill="#dee3f3" opacity="0.5"/>
  </g>
</svg>
