<svg xmlns="http://www.w3.org/2000/svg" width="1783.244" height="766.259" viewBox="0 0 1783.244 766.259">
  <g id="Group_158" data-name="Group 158" transform="translate(-352.343 113.569)">
    <g id="Group_105" data-name="Group 105" transform="matrix(-0.105, 0.995, -0.995, -0.105, 2400.55, -1853.536)" opacity="0.396">
      <g id="Path_350" data-name="Path 350" transform="translate(1865.248 171.31)" fill="none">
        <path d="M271.776-9.182c76.768-148.9,123.414,52.736,206.118,153.574s222.167,132.994,124.7,249.777C365.445,678.312,502.45,826.694,332.172,826.694c-37.02,0-56.964-109.775-135.117-209.98S19.56,480.781,19.56,425.876C19.56,232.832,141.438,243.615,271.776-9.182Z" stroke="none"/>
        <path d="M 325.5049133300781 -61.19305419921875 C 321.4246826171875 -61.19305419921875 317.2964172363281 -60.2264404296875 313.2349243164062 -58.320068359375 C 308.9890441894531 -56.32708740234375 304.66455078125 -53.238037109375 300.3816833496094 -49.138916015625 C 295.935302734375 -44.88330078125 291.388916015625 -39.40057373046875 286.8689270019531 -32.84320068359375 C 282.211669921875 -26.0865478515625 277.4326782226562 -17.9716796875 272.664794921875 -8.72406005859375 C 216.6677856445312 99.88494873046875 162.1509399414062 159.982177734375 118.345947265625 208.2711791992188 C 103.9560546875 224.1339416503906 90.36419677734375 239.1170654296875 78.4571533203125 253.9619445800781 C 65.26043701171875 270.4146728515625 55.45330810546875 285.0414428710938 47.59356689453125 299.992919921875 C 38.5709228515625 317.1563110351562 32.04815673828125 334.9999389648438 27.65240478515625 354.5435485839844 C 25.31951904296875 364.9154357910156 23.5440673828125 376.0361938476562 22.37530517578125 387.596923828125 C 21.1707763671875 399.5121765136719 20.56005859375 412.3911743164062 20.56005859375 425.8763122558594 C 20.56005859375 433.0516967773438 22.26739501953125 440.0315551757812 25.779541015625 447.2148132324219 C 29.009033203125 453.8199462890625 33.770263671875 460.5838012695312 40.33526611328125 467.8931884765625 C 52.8013916015625 481.7725524902344 70.17376708984375 495.8764343261719 90.2891845703125 512.2071533203125 C 106.4441528320312 525.3226928710938 124.754638671875 540.1880493164062 143.1353149414062 557.1806640625 C 164.2564086914062 576.7066650390625 182.1517944335938 595.9790649414062 197.8440551757812 616.0990600585938 C 214.2821655273438 637.1751708984375 229.5630493164062 660.4537963867188 244.5599060058594 687.2650756835938 C 257.5319213867188 710.4560546875 268.2386779785156 732.5924072265625 277.6849060058594 752.1229248046875 C 288.1341552734375 773.7269287109375 297.1584167480469 792.3847045898438 305.8900451660156 805.4125366210938 C 310.4564208984375 812.2257080078125 314.7005310058594 817.1464233398438 318.8650512695312 820.4559326171875 C 323.300048828125 823.98046875 327.6529235839844 825.6936645507812 332.1723022460938 825.6936645507812 C 353.0219116210938 825.6936645507812 369.4935302734375 823.4559326171875 382.5282897949219 818.8525390625 C 388.8867797851562 816.6070556640625 394.3926696777344 813.83544921875 399.3605346679688 810.3794555664062 C 404.1349182128906 807.0580444335938 408.279296875 803.1949462890625 412.0306701660156 798.569091796875 C 418.7701721191406 790.258544921875 424.1590576171875 779.5091552734375 428.9895324707031 764.7400512695312 C 433.4316711425781 751.1580810546875 437.0379333496094 735.455810546875 441.2135314941406 717.2742919921875 C 449.5655517578125 680.9072875976562 459.9599304199219 635.6475830078125 483.1552734375 581.6104125976562 C 489.1983032226562 567.5320434570312 495.9149169921875 553.3460693359375 503.118408203125 539.4462890625 C 510.9449157714844 524.3445434570312 519.613037109375 509.064453125 528.882080078125 494.0305786132812 C 538.830810546875 477.8939208984375 549.7881469726562 461.5270385742188 561.4495239257812 445.3845520019531 C 573.8575439453125 428.2088012695312 587.441650390625 410.7619323730469 601.8247680664062 393.528564453125 C 608.1826782226562 385.9106750488281 613.6805419921875 378.4544372558594 618.1654052734375 371.36669921875 C 622.5274047851562 364.4734191894531 626.074951171875 357.7015686035156 628.7094116210938 351.2391967773438 C 631.2589111328125 344.9854431152344 633.0396728515625 338.8094482421875 634.0020751953125 332.882568359375 C 634.9287719726562 327.1755676269531 635.129150390625 321.4966735839844 634.5977783203125 316.0036926269531 C 634.1751708984375 311.6350708007812 633.2761840820312 307.2402954101562 631.92578125 302.9415588378906 C 630.6279296875 298.8104248046875 628.8662719726562 294.6193237304688 626.6898193359375 290.4846801757812 C 622.6266479492188 282.7662963867188 617.0438232421875 275.0041809082031 609.6224365234375 266.7546691894531 C 595.6616821289062 251.2360534667969 576.96044921875 236.0381774902344 557.1613159179688 219.9478149414062 C 543.774169921875 209.0684204101562 529.9312744140625 197.8186950683594 516.2881469726562 185.4984436035156 C 500.7909240722656 171.5038146972656 487.9791870117188 158.2651977539062 477.1209106445312 145.0261840820312 C 466.3432922363281 131.8854370117188 455.2079162597656 115.8394165039062 443.0785522460938 95.9713134765625 C 432.3729248046875 78.435302734375 422.2421569824219 60.1842041015625 412.4450378417969 42.5340576171875 C 397.1347961425781 14.9517822265625 382.6736755371094 -11.1007080078125 368.3401794433594 -30.19769287109375 C 360.7122802734375 -40.36029052734375 353.7142944335938 -47.7794189453125 346.9461669921875 -52.87884521484375 C 343.3336791992188 -55.6005859375 339.7359313964844 -57.67706298828125 336.2526550292969 -59.050537109375 C 332.6473083496094 -60.47216796875 329.0311584472656 -61.19305419921875 325.5049133300781 -61.19305419921875 M 325.5048828125 -62.19305419921875 C 374.5570373535156 -62.19305419921875 416.1839904785156 69.1513671875 477.8941650390625 144.3920288085938 C 560.5982666015625 245.2299194335938 700.061279296875 277.3856811523438 602.592529296875 394.1693115234375 C 365.4446716308594 678.3117065429688 502.4496765136719 826.6936645507812 332.1723022460938 826.6936645507812 C 295.1522827148438 826.6936645507812 275.2086791992188 716.91845703125 197.0555419921875 616.7140502929688 C 118.9025268554688 516.5097045898438 19.56005859375 480.7808227539062 19.56005859375 425.8763122558594 C 19.56005859375 232.8318176269531 141.4380493164062 243.6148071289062 271.7759094238281 -9.18231201171875 C 291.2632446289062 -46.97900390625 308.8171081542969 -62.19305419921875 325.5048828125 -62.19305419921875 Z" stroke="none" fill="#aaa"/>
      </g>
      <g id="Path_349" data-name="Path 349" transform="translate(1838.882 133.285)" fill="none">
        <path d="M293.355-4.647C376.691-166.282,427.328,52.6,517.108,162.067S758.283,306.439,652.475,433.214c-257.438,308.453-108.711,469.53-293.557,469.53-40.187,0-61.837-119.167-146.677-227.945S19.56,527.236,19.56,467.634C19.56,258.073,151.866,269.779,293.355-4.647Z" stroke="none"/>
        <path d="M 351.6804504394531 -61.19305419921875 C 347.2383117675781 -61.19305419921875 342.7447204589844 -60.14105224609375 338.3243103027344 -58.066162109375 C 333.7067260742188 -55.898681640625 329.0045776367188 -52.5401611328125 324.3485717773438 -48.0838623046875 C 319.5175170898438 -43.46014404296875 314.5783081054688 -37.50390625 309.66845703125 -30.38055419921875 C 304.610595703125 -23.04296875 299.4208679199219 -14.23065185546875 294.2433776855469 -4.18853759765625 C 233.460693359375 113.7027587890625 174.2838134765625 178.9370727539062 126.7341918945312 231.3538513183594 C 111.1123046875 248.5747985839844 96.35687255859375 264.8406372070312 83.42938232421875 280.9575805664062 C 69.10015869140625 298.8223876953125 58.45111083984375 314.7047729492188 49.91619873046875 330.9405212402344 C 40.1181640625 349.5790405273438 33.03485107421875 368.9562377929688 28.26123046875 390.1793212890625 C 25.72802734375 401.4418640136719 23.8001708984375 413.5174560546875 22.5311279296875 426.0706481933594 C 21.2232666015625 439.0082397460938 20.56005859375 452.9919738769531 20.56005859375 467.6337280273438 C 20.56005859375 471.5643920898438 21.05029296875 475.5298461914062 22.01708984375 479.4197082519531 C 22.9530029296875 483.1847839355469 24.3720703125 487.0256958007812 26.23486328125 490.8355712890625 C 29.74420166015625 498.012939453125 34.9171142578125 505.3619995117188 42.04925537109375 513.3026733398438 C 55.5863037109375 528.3746337890625 74.4473876953125 543.6870727539062 96.2867431640625 561.4172973632812 C 113.8228759765625 575.6541137695312 133.69873046875 591.79052734375 153.6500244140625 610.2350463867188 C 176.57470703125 631.4285278320312 195.998046875 652.3463745117188 213.030029296875 674.1839599609375 C 230.8717651367188 697.0599975585938 247.457763671875 722.32666015625 263.7355346679688 751.4278564453125 C 277.8160400390625 776.6008911132812 289.4382019042969 800.6298828125 299.6921997070312 821.8302612304688 C 311.036865234375 845.2855834960938 320.8344421386719 865.542236328125 330.3164672851562 879.6895751953125 C 335.2784423828125 887.093017578125 339.8915100097656 892.441162109375 344.4192504882812 896.039306640625 C 349.24951171875 899.8778686523438 353.9921875 901.7438354492188 358.9183349609375 901.7438354492188 C 381.5616455078125 901.7438354492188 399.4517822265625 899.3130493164062 413.6109924316406 894.3126220703125 C 420.52099609375 891.8722534179688 426.5045776367188 888.860107421875 431.9037780761719 885.1041259765625 C 437.0933837890625 881.4938354492188 441.5981750488281 877.2947998046875 445.6756591796875 872.2669067382812 C 449.5304565429688 867.513427734375 452.9255065917969 862.1105346679688 456.0549926757812 855.7494506835938 C 458.9212646484375 849.9230346679688 461.5528564453125 843.3048095703125 464.1001892089844 835.5162353515625 C 468.9236450195312 820.7684936523438 472.8388671875 803.72119140625 477.3720397949219 783.9819946289062 C 486.4379272460938 744.507080078125 497.7207336425781 695.3790283203125 522.8975219726562 636.725830078125 C 529.4568481445312 621.4449462890625 536.7471313476562 606.0470581054688 544.5660400390625 590.9599609375 C 553.0611572265625 574.5679931640625 562.4699096679688 557.9825439453125 572.5307006835938 541.6641235351562 C 583.3296508789062 524.148681640625 595.2232666015625 506.3831787109375 607.8812255859375 488.8612060546875 C 621.3494873046875 470.2175903320312 636.0947265625 451.2795715332031 651.7071533203125 432.5733337402344 C 658.6113891601562 424.3009033203125 664.581787109375 416.2035827636719 669.4524536132812 408.5063781738281 C 674.190185546875 401.01904296875 678.0436401367188 393.663330078125 680.905517578125 386.643310546875 C 683.675537109375 379.8486633300781 685.6103515625 373.1378479003906 686.6560668945312 366.6975708007812 C 687.6632690429688 360.4951782226562 687.881103515625 354.3230590820312 687.3035278320312 348.352783203125 C 686.8441772460938 343.6043701171875 685.8670043945312 338.8278503417969 684.3994140625 334.1557312011719 C 682.989013671875 329.6661071777344 681.0745849609375 325.1117248535156 678.7095336914062 320.6187744140625 C 674.29541015625 312.2337036132812 668.23095703125 303.8018493652344 660.1697998046875 294.8411865234375 C 645.0101928710938 277.989990234375 624.7064208984375 261.4897155761719 603.2105712890625 244.0205078125 C 588.678955078125 232.2110595703125 573.6527099609375 219.9995727539062 558.8439331054688 206.6267700195312 C 542.02392578125 191.4375610351562 528.1190185546875 177.0693359375 516.33447265625 162.700927734375 C 504.6371154785156 148.4389038085938 492.5513916015625 131.0233154296875 479.3863220214844 109.4586791992188 C 467.7657775878906 90.42401123046875 456.7687072753906 70.61212158203125 446.1336669921875 51.4525146484375 C 429.5121765136719 21.50787353515625 413.8124389648438 -6.7760009765625 398.2489929199219 -27.5115966796875 C 389.9636535644531 -38.55029296875 382.3613891601562 -46.609619140625 375.0076599121094 -52.150146484375 C 371.0799255371094 -55.1094970703125 367.1675109863281 -57.36749267578125 363.3791198730469 -58.8612060546875 C 359.4552612304688 -60.4085693359375 355.5192565917969 -61.19305419921875 351.6804504394531 -61.19305419921875 M 351.680419921875 -62.19305419921875 C 404.9293518066406 -62.19305419921875 450.1177673339844 80.3887939453125 517.107666015625 162.0667724609375 C 606.8876342773438 271.5321044921875 758.28271484375 306.4389038085938 652.474853515625 433.214111328125 C 395.0373840332031 741.6668090820312 543.7640380859375 902.7438354492188 358.9183349609375 902.7438354492188 C 318.7309875488281 902.7438354492188 297.0811157226562 783.5765380859375 212.2415161132812 674.799072265625 C 127.4019165039062 566.021484375 19.56005859375 527.23583984375 19.56005859375 467.6337280273438 C 19.56005859375 258.0731811523438 151.8655395507812 269.7787780761719 293.3545837402344 -4.64678955078125 C 314.5091552734375 -45.67724609375 333.5649108886719 -62.19305419921875 351.680419921875 -62.19305419921875 Z" stroke="none" fill="#aaa"/>
      </g>
      <g id="Path_345" data-name="Path 345" transform="translate(1994 381)" fill="none">
        <path d="M166.4-31.33c44.694-86.687,71.851,30.7,120,89.411S415.746,135.509,359,203.5C220.933,368.927,300.7,455.315,201.562,455.315c-21.553,0-33.164-63.911-78.665-122.25S19.56,253.925,19.56,221.96C19.56,109.57,90.517,115.848,166.4-31.33Z" stroke="none"/>
        <path d="M 197.6802673339844 -61.19302368164062 C 195.3665466308594 -61.19302368164062 193.0228271484375 -60.64358520507812 190.7142639160156 -59.5599365234375 C 188.2833251953125 -58.4189453125 185.8031158447266 -56.646240234375 183.3424682617188 -54.29116821289062 C 180.7742614746094 -51.83306884765625 178.1459045410156 -48.66287231445312 175.5304870605469 -44.86849975585938 C 172.8290405273438 -40.94937133789062 170.0559692382812 -36.24029541015625 167.2881774902344 -30.87200927734375 C 134.6618957519531 32.4085693359375 102.9019165039062 67.41949462890625 77.38232421875 95.55126953125 C 69.00897216796875 104.7817687988281 61.0999755859375 113.5002746582031 54.17568969726562 122.133056640625 C 46.509765625 131.6904144287109 40.81405639648438 140.1847076416016 36.25091552734375 148.8651275634766 C 31.0152587890625 158.8247680664062 27.23004150390625 169.1797027587891 24.67898559570312 180.5216369628906 C 21.90740966796875 192.8442687988281 20.56005859375 206.3987731933594 20.56005859375 221.9597015380859 C 20.56005859375 226.0721282958984 21.54019165039062 230.0758361816406 23.556396484375 234.1994934082031 C 25.41940307617188 238.0097045898438 28.17025756835938 241.9163513183594 31.96624755859375 246.1427001953125 C 39.20196533203125 254.1988525390625 49.30426025390625 262.4004211425781 61.00177001953125 271.8970642089844 C 70.41204833984375 279.5368347167969 81.07791137695312 288.1959228515625 91.78890991210938 298.0980529785156 C 104.1023254394531 309.4815673828125 114.535888671875 320.7182006835938 123.6859741210938 332.4499816894531 C 133.2694091796875 344.7374267578125 142.1773986816406 358.3074951171875 150.9190368652344 373.9356384277344 C 158.4773254394531 387.4482116699219 164.7135314941406 400.3418579101562 170.2157592773438 411.7177124023438 C 176.2923889160156 424.2813415527344 181.5404052734375 435.1317138671875 186.6076202392578 442.6921997070312 C 189.2417602539062 446.6224060058594 191.6841888427734 449.4563598632812 194.0744781494141 451.3559265136719 C 196.5797576904297 453.3468627929688 199.0289764404297 454.3146362304688 201.5620422363281 454.3146362304688 C 213.6524810791016 454.3146362304688 223.1966857910156 453.0196228027344 230.7400512695312 450.3556213378906 C 234.4061889648438 449.0608520507812 237.5791168212891 447.4639282226562 240.4402618408203 445.4735717773438 C 243.1871948242188 443.5626220703125 245.5719757080078 441.3395690917969 247.7308959960938 438.6774291992188 C 251.6214752197266 433.8799133300781 254.7357635498047 427.6640014648438 257.5316772460938 419.115478515625 C 260.112060546875 411.2259826660156 262.2095947265625 402.0927734375 264.6383361816406 391.5174255371094 C 269.504638671875 370.3283386230469 275.5609130859375 343.9578552246094 289.0799560546875 312.4629211425781 C 292.6021728515625 304.2573547363281 296.5169677734375 295.9890747070312 300.7154541015625 287.8876953125 C 305.2767639160156 279.0863342285156 310.3284912109375 270.1812133789062 315.7302551269531 261.4197082519531 C 321.5277709960938 252.0163421630859 327.9127502441406 242.4790649414062 334.7079772949219 233.0726928710938 C 341.9375610351562 223.0651245117188 349.8521728515625 212.8999176025391 358.2322692871094 202.8592071533203 C 361.922119140625 198.4381256103516 365.112060546875 194.1119842529297 367.7134704589844 190.0009918212891 C 370.23974609375 186.0084838867188 372.2937622070312 182.0880584716797 373.8182678222656 178.3484191894531 C 375.2906799316406 174.7367095947266 376.31884765625 171.1715545654297 376.8741149902344 167.7519836425781 C 377.4078979492188 164.46484375 377.5234069824219 161.1947021484375 377.2174682617188 158.0324096679688 C 376.7354125976562 153.0492095947266 375.2445373535156 148.2399139404297 372.6596069335938 143.3296966552734 C 370.3103942871094 138.8671264648438 367.0794677734375 134.3757781982422 362.7821960449219 129.5989227294922 C 354.6760559082031 120.5883483886719 343.800537109375 111.7501373291016 332.2865600585938 102.3929901123047 C 324.4884643554688 96.05563354492188 316.4248962402344 89.50262451171875 308.4738159179688 82.32249450683594 C 299.4356689453125 74.16070556640625 291.9627075195312 66.4384765625 285.627685546875 58.7144775390625 C 279.3406372070312 51.04885864257812 272.8466186523438 41.69149780273438 265.7748413085938 30.10763549804688 C 259.5375366210938 19.89093017578125 253.6373291015625 9.2613525390625 247.931396484375 -1.018310546875 C 239.0249786376953 -17.06365966796875 230.6124725341797 -32.21923828125 222.2846832275391 -43.31451416015625 C 217.8676910400391 -49.19937133789062 213.8205413818359 -53.49166870117188 209.9118957519531 -56.4365234375 C 207.8388366699219 -57.99850463867188 205.7771911621094 -59.18893432617188 203.7843322753906 -59.9747314453125 C 201.7342529296875 -60.78314208984375 199.6805419921875 -61.19302368164062 197.6802673339844 -61.19302368164062 M 197.6802520751953 -62.19305419921875 C 226.2382965087891 -62.19305419921875 250.4734497070312 14.27536010742188 286.4009094238281 58.08035278320312 C 334.5510559082031 116.7879180908203 415.7460327148438 135.5088500976562 358.9999694824219 203.4999847412109 C 220.9331207275391 368.927001953125 300.6971130371094 455.3146362304688 201.5620422363281 455.3146362304688 C 180.0090484619141 455.3146362304688 168.3979797363281 391.4037780761719 122.8974609375 333.0650024414062 C 77.39697265625 274.7262573242188 19.56005859375 253.925048828125 19.56005859375 221.9597015380859 C 19.56005859375 109.5697021484375 90.51712036132812 115.8475646972656 166.3994140625 -31.33029174804688 C 177.7448425292969 -53.33541870117188 187.9646759033203 -62.19305419921875 197.6802520751953 -62.19305419921875 Z" stroke="none" fill="#aaa"/>
      </g>
      <g id="Path_352" data-name="Path 352" transform="translate(1905.873 265.69)" fill="none">
        <path d="M238.526-16.171c66.648-129.268,107.144,45.784,178.946,133.329s192.879,115.461,108.26,216.849c-205.885,246.684-86.941,375.5-234.771,375.5-32.14,0-49.454-95.3-117.3-182.3S19.56,409.2,19.56,361.534C19.56,193.939,125.371,203.3,238.526-16.171Z" stroke="none"/>
        <path d="M 285.1723022460938 -61.1929931640625 C 281.6494140625 -61.1929931640625 278.0842895507812 -60.3580322265625 274.5758361816406 -58.71124267578125 C 270.9027404785156 -56.98712158203125 267.1601867675781 -54.3134765625 263.4523010253906 -50.76470947265625 C 259.5984191894531 -47.07611083984375 255.6572875976562 -42.3231201171875 251.73828125 -36.6375732421875 C 247.6980590820312 -30.7762451171875 243.5520629882812 -23.73602294921875 239.4151916503906 -15.71246337890625 C 190.7924194335938 78.59408569335938 143.4560852050781 130.77587890625 105.420654296875 172.7045288085938 C 92.92919921875 186.4746398925781 81.13043212890625 199.4811096191406 70.795654296875 212.3658752441406 C 59.34405517578125 226.6429748535156 50.83416748046875 239.3346557617188 44.0146484375 252.3074340820312 C 36.18695068359375 267.1978759765625 30.5279541015625 282.6785278320312 26.71417236328125 299.6343078613281 C 24.6900634765625 308.6336669921875 23.1495361328125 318.2830810546875 22.1353759765625 328.3145446777344 C 21.090087890625 338.6546630859375 20.56005859375 349.831298828125 20.56005859375 361.5343017578125 C 20.56005859375 367.7433166503906 22.0379638671875 373.7841186523438 25.07806396484375 380.0018920898438 C 27.87640380859375 385.72509765625 32.0032958984375 391.5875244140625 37.69464111328125 397.9241027832031 C 48.5103759765625 409.9660949707031 63.5887451171875 422.2075500488281 81.048095703125 436.3818664550781 C 95.074951171875 447.7696533203125 110.9732666015625 460.6767578125 126.9339599609375 475.4320983886719 C 145.2759704589844 492.3889770507812 160.8168640136719 509.1257629394531 174.4449462890625 526.59912109375 C 188.7201843261719 544.902099609375 201.9901733398438 565.117431640625 215.0133972167969 588.3999633789062 C 226.2771911621094 608.5372314453125 235.5733032226562 627.7572021484375 243.7751770019531 644.7146606445312 C 252.8446350097656 663.466064453125 260.6773986816406 679.660400390625 268.2528381347656 690.9631958007812 C 272.2095031738281 696.8666381835938 275.8850708007812 701.12890625 279.48974609375 703.9935302734375 C 283.3159484863281 707.0341186523438 287.0680847167969 708.51220703125 290.9607238769531 708.51220703125 C 309.046630859375 708.51220703125 323.3323974609375 706.572021484375 334.6343994140625 702.58056640625 C 340.1434020996094 700.635009765625 344.9131774902344 698.2340087890625 349.21630859375 695.2404174804688 C 353.3509521484375 692.3641357421875 356.940185546875 689.0184326171875 360.1890869140625 685.01220703125 C 366.0297241210938 677.8101806640625 370.7008361816406 668.4912109375 374.8892822265625 655.6848754882812 C 378.7440795898438 643.8989868164062 381.8741760253906 630.26953125 385.4986267089844 614.4879760742188 C 392.7508544921875 582.9100952148438 401.7763977050781 543.6104125976562 421.9186401367188 496.6860961914062 C 427.1661987304688 484.4608764648438 432.9987182617188 472.14208984375 439.2540893554688 460.0718688964844 C 446.0504150390625 446.9580993652344 453.577392578125 433.6895446777344 461.6260681152344 420.634765625 C 470.2650756835938 406.6226501464844 479.7796325683594 392.41064453125 489.9056396484375 378.3936767578125 C 500.6796264648438 363.4796752929688 512.4749755859375 348.3304443359375 524.9638671875 333.3665466308594 C 530.47998046875 326.7574462890625 535.24951171875 320.2887573242188 539.1401977539062 314.1401977539062 C 542.9229736328125 308.1623229980469 545.9992065429688 302.2901000976562 548.2835083007812 296.6868896484375 C 550.4931640625 291.2667541503906 552.036376953125 285.91455078125 552.8703002929688 280.7787780761719 C 553.673095703125 275.8353271484375 553.8467407226562 270.9165344238281 553.3864135742188 266.1589965820312 C 553.0203857421875 262.3752136230469 552.2417602539062 258.5688781738281 551.0720825195312 254.8456420898438 C 549.9478759765625 251.2665405273438 548.4215087890625 247.6353149414062 546.5355224609375 244.0527648925781 C 543.01318359375 237.3617553710938 538.1724243164062 230.6315307617188 531.7367553710938 223.4777526855469 C 519.623291015625 210.0127563476562 503.3914184570312 196.8214416503906 486.2064208984375 182.8556518554688 C 474.5828552246094 173.409423828125 462.5635375976562 163.6416625976562 450.7164001464844 152.9433288574219 C 437.2572021484375 140.7890930175781 426.1299438476562 129.2911071777344 416.698974609375 117.7922058105469 C 407.3381958007812 106.3789978027344 397.6674194335938 92.44354248046875 387.1338500976562 75.1893310546875 C 377.8381958007812 59.962890625 369.0422973632812 44.11651611328125 360.5359497070312 28.7919921875 C 347.2463989257812 4.8499755859375 334.6937255859375 -17.76409912109375 322.2551879882812 -34.33636474609375 C 315.6405029296875 -43.14923095703125 309.5735168457031 -49.581787109375 303.7076416015625 -54.0013427734375 C 300.5809631347656 -56.35711669921875 297.4678344726562 -58.15399169921875 294.4548645019531 -59.34210205078125 C 291.3401794433594 -60.57025146484375 288.2170715332031 -61.1929931640625 285.1723022460938 -61.1929931640625 M 285.1723022460938 -62.19305419921875 C 327.7579345703125 -62.19305419921875 363.8972778320312 51.8363037109375 417.47216796875 117.1581115722656 C 489.2734985351562 204.7025451660156 610.3511962890625 232.6192016601562 525.7316284179688 334.00732421875 C 319.8468627929688 580.6913452148438 438.7906494140625 709.51220703125 290.9607238769531 709.51220703125 C 258.8210754394531 709.51220703125 241.5066223144531 614.2085571289062 173.6564025878906 527.214111328125 C 105.8062744140625 440.2195434570312 19.56005859375 409.2008666992188 19.56005859375 361.5343017578125 C 19.56005859375 193.9388732910156 125.3709716796875 203.3003234863281 238.5263977050781 -16.170654296875 C 255.4447021484375 -48.984619140625 270.6844787597656 -62.19305419921875 285.1723022460938 -62.19305419921875 Z" stroke="none" fill="#aaa"/>
      </g>
      <g id="Path_346" data-name="Path 346" transform="translate(1994 357)" fill="none">
        <path d="M166.4-31.33c44.694-86.687,71.851,30.7,120,89.411S415.746,135.509,359,203.5C220.933,368.927,300.7,455.315,201.562,455.315c-21.553,0-33.164-63.911-78.665-122.25S19.56,253.925,19.56,221.96C19.56,109.57,90.517,115.848,166.4-31.33Z" stroke="none"/>
        <path d="M 197.6802673339844 -61.19302368164062 C 195.3665466308594 -61.19302368164062 193.0228271484375 -60.64358520507812 190.7142639160156 -59.5599365234375 C 188.2833251953125 -58.4189453125 185.8031158447266 -56.646240234375 183.3424682617188 -54.29116821289062 C 180.7742614746094 -51.83306884765625 178.1459045410156 -48.66287231445312 175.5304870605469 -44.86849975585938 C 172.8290405273438 -40.94937133789062 170.0559692382812 -36.24029541015625 167.2881774902344 -30.87200927734375 C 134.6618957519531 32.4085693359375 102.9019165039062 67.41949462890625 77.38232421875 95.55126953125 C 69.00897216796875 104.7817687988281 61.0999755859375 113.5002746582031 54.17568969726562 122.133056640625 C 46.509765625 131.6904144287109 40.81405639648438 140.1847076416016 36.25091552734375 148.8651275634766 C 31.0152587890625 158.8247680664062 27.23004150390625 169.1797027587891 24.67898559570312 180.5216369628906 C 21.90740966796875 192.8442687988281 20.56005859375 206.3987731933594 20.56005859375 221.9597015380859 C 20.56005859375 226.0721282958984 21.54019165039062 230.0758361816406 23.556396484375 234.1994934082031 C 25.41940307617188 238.0097045898438 28.17025756835938 241.9163513183594 31.96624755859375 246.1427001953125 C 39.20196533203125 254.1988525390625 49.30426025390625 262.4004211425781 61.00177001953125 271.8970642089844 C 70.41204833984375 279.5368347167969 81.07791137695312 288.1959228515625 91.78890991210938 298.0980529785156 C 104.1023254394531 309.4815673828125 114.535888671875 320.7182006835938 123.6859741210938 332.4499816894531 C 133.2694091796875 344.7374267578125 142.1773986816406 358.3074951171875 150.9190368652344 373.9356384277344 C 158.4773254394531 387.4482116699219 164.7135314941406 400.3418579101562 170.2157592773438 411.7177124023438 C 176.2923889160156 424.2813415527344 181.5404052734375 435.1317138671875 186.6076202392578 442.6921997070312 C 189.2417602539062 446.6224060058594 191.6841888427734 449.4563598632812 194.0744781494141 451.3559265136719 C 196.5797576904297 453.3468627929688 199.0289764404297 454.3146362304688 201.5620422363281 454.3146362304688 C 213.6524810791016 454.3146362304688 223.1966857910156 453.0196228027344 230.7400512695312 450.3556213378906 C 234.4061889648438 449.0608520507812 237.5791168212891 447.4639282226562 240.4402618408203 445.4735717773438 C 243.1871948242188 443.5626220703125 245.5719757080078 441.3395690917969 247.7308959960938 438.6774291992188 C 251.6214752197266 433.8799133300781 254.7357635498047 427.6640014648438 257.5316772460938 419.115478515625 C 260.112060546875 411.2259826660156 262.2095947265625 402.0927734375 264.6383361816406 391.5174255371094 C 269.504638671875 370.3283386230469 275.5609130859375 343.9578552246094 289.0799560546875 312.4629211425781 C 292.6021728515625 304.2573547363281 296.5169677734375 295.9890747070312 300.7154541015625 287.8876953125 C 305.2767639160156 279.0863342285156 310.3284912109375 270.1812133789062 315.7302551269531 261.4197082519531 C 321.5277709960938 252.0163421630859 327.9127502441406 242.4790649414062 334.7079772949219 233.0726928710938 C 341.9375610351562 223.0651245117188 349.8521728515625 212.8999176025391 358.2322692871094 202.8592071533203 C 361.922119140625 198.4381256103516 365.112060546875 194.1119842529297 367.7134704589844 190.0009918212891 C 370.23974609375 186.0084838867188 372.2937622070312 182.0880584716797 373.8182678222656 178.3484191894531 C 375.2906799316406 174.7367095947266 376.31884765625 171.1715545654297 376.8741149902344 167.7519836425781 C 377.4078979492188 164.46484375 377.5234069824219 161.1947021484375 377.2174682617188 158.0324096679688 C 376.7354125976562 153.0492095947266 375.2445373535156 148.2399139404297 372.6596069335938 143.3296966552734 C 370.3103942871094 138.8671264648438 367.0794677734375 134.3757781982422 362.7821960449219 129.5989227294922 C 354.6760559082031 120.5883483886719 343.800537109375 111.7501373291016 332.2865600585938 102.3929901123047 C 324.4884643554688 96.05563354492188 316.4248962402344 89.50262451171875 308.4738159179688 82.32249450683594 C 299.4356689453125 74.16070556640625 291.9627075195312 66.4384765625 285.627685546875 58.7144775390625 C 279.3406372070312 51.04885864257812 272.8466186523438 41.69149780273438 265.7748413085938 30.10763549804688 C 259.5375366210938 19.89093017578125 253.6373291015625 9.2613525390625 247.931396484375 -1.018310546875 C 239.0249786376953 -17.06365966796875 230.6124725341797 -32.21923828125 222.2846832275391 -43.31451416015625 C 217.8676910400391 -49.19937133789062 213.8205413818359 -53.49166870117188 209.9118957519531 -56.4365234375 C 207.8388366699219 -57.99850463867188 205.7771911621094 -59.18893432617188 203.7843322753906 -59.9747314453125 C 201.7342529296875 -60.78314208984375 199.6805419921875 -61.19302368164062 197.6802673339844 -61.19302368164062 M 197.6802520751953 -62.19305419921875 C 226.2382965087891 -62.19305419921875 250.4734497070312 14.27536010742188 286.4009094238281 58.08035278320312 C 334.5510559082031 116.7879180908203 415.7460327148438 135.5088500976562 358.9999694824219 203.4999847412109 C 220.9331207275391 368.927001953125 300.6971130371094 455.3146362304688 201.5620422363281 455.3146362304688 C 180.0090484619141 455.3146362304688 168.3979797363281 391.4037780761719 122.8974609375 333.0650024414062 C 77.39697265625 274.7262573242188 19.56005859375 253.925048828125 19.56005859375 221.9597015380859 C 19.56005859375 109.5697021484375 90.51712036132812 115.8475646972656 166.3994140625 -31.33029174804688 C 177.7448425292969 -53.33541870117188 187.9646759033203 -62.19305419921875 197.6802520751953 -62.19305419921875 Z" stroke="none" fill="#aaa"/>
      </g>
      <g id="Path_351" data-name="Path 351" transform="translate(1905.873 229.901)" fill="none">
        <path d="M238.526-16.171c66.648-129.268,107.144,45.784,178.946,133.329s192.879,115.461,108.26,216.849c-205.885,246.684-86.941,375.5-234.771,375.5-32.14,0-49.454-95.3-117.3-182.3S19.56,409.2,19.56,361.534C19.56,193.939,125.371,203.3,238.526-16.171Z" stroke="none"/>
        <path d="M 285.1723022460938 -61.1929931640625 C 281.6494140625 -61.1929931640625 278.0842895507812 -60.3580322265625 274.5758361816406 -58.71124267578125 C 270.9027404785156 -56.98712158203125 267.1601867675781 -54.3134765625 263.4523010253906 -50.76470947265625 C 259.5984191894531 -47.07611083984375 255.6572875976562 -42.3231201171875 251.73828125 -36.6375732421875 C 247.6980590820312 -30.7762451171875 243.5520629882812 -23.73602294921875 239.4151916503906 -15.71246337890625 C 190.7924194335938 78.59408569335938 143.4560852050781 130.77587890625 105.420654296875 172.7045288085938 C 92.92919921875 186.4746398925781 81.13043212890625 199.4811096191406 70.795654296875 212.3658752441406 C 59.34405517578125 226.6429748535156 50.83416748046875 239.3346557617188 44.0146484375 252.3074340820312 C 36.18695068359375 267.1978759765625 30.5279541015625 282.6785278320312 26.71417236328125 299.6343078613281 C 24.6900634765625 308.6336669921875 23.1495361328125 318.2830810546875 22.1353759765625 328.3145446777344 C 21.090087890625 338.6546630859375 20.56005859375 349.831298828125 20.56005859375 361.5343017578125 C 20.56005859375 367.7433166503906 22.0379638671875 373.7841186523438 25.07806396484375 380.0018920898438 C 27.87640380859375 385.72509765625 32.0032958984375 391.5875244140625 37.69464111328125 397.9241027832031 C 48.5103759765625 409.9660949707031 63.5887451171875 422.2075500488281 81.048095703125 436.3818664550781 C 95.074951171875 447.7696533203125 110.9732666015625 460.6767578125 126.9339599609375 475.4320983886719 C 145.2759704589844 492.3889770507812 160.8168640136719 509.1257629394531 174.4449462890625 526.59912109375 C 188.7201843261719 544.902099609375 201.9901733398438 565.117431640625 215.0133972167969 588.3999633789062 C 226.2771911621094 608.5372314453125 235.5733032226562 627.7572021484375 243.7751770019531 644.7146606445312 C 252.8446350097656 663.466064453125 260.6773986816406 679.660400390625 268.2528381347656 690.9631958007812 C 272.2095031738281 696.8666381835938 275.8850708007812 701.12890625 279.48974609375 703.9935302734375 C 283.3159484863281 707.0341186523438 287.0680847167969 708.51220703125 290.9607238769531 708.51220703125 C 309.046630859375 708.51220703125 323.3323974609375 706.572021484375 334.6343994140625 702.58056640625 C 340.1434020996094 700.635009765625 344.9131774902344 698.2340087890625 349.21630859375 695.2404174804688 C 353.3509521484375 692.3641357421875 356.940185546875 689.0184326171875 360.1890869140625 685.01220703125 C 366.0297241210938 677.8101806640625 370.7008361816406 668.4912109375 374.8892822265625 655.6848754882812 C 378.7440795898438 643.8989868164062 381.8741760253906 630.26953125 385.4986267089844 614.4879760742188 C 392.7508544921875 582.9100952148438 401.7763977050781 543.6104125976562 421.9186401367188 496.6860961914062 C 427.1661987304688 484.4608764648438 432.9987182617188 472.14208984375 439.2540893554688 460.0718688964844 C 446.0504150390625 446.9580993652344 453.577392578125 433.6895446777344 461.6260681152344 420.634765625 C 470.2650756835938 406.6226501464844 479.7796325683594 392.41064453125 489.9056396484375 378.3936767578125 C 500.6796264648438 363.4796752929688 512.4749755859375 348.3304443359375 524.9638671875 333.3665466308594 C 530.47998046875 326.7574462890625 535.24951171875 320.2887573242188 539.1401977539062 314.1401977539062 C 542.9229736328125 308.1623229980469 545.9992065429688 302.2901000976562 548.2835083007812 296.6868896484375 C 550.4931640625 291.2667541503906 552.036376953125 285.91455078125 552.8703002929688 280.7787780761719 C 553.673095703125 275.8353271484375 553.8467407226562 270.9165344238281 553.3864135742188 266.1589965820312 C 553.0203857421875 262.3752136230469 552.2417602539062 258.5688781738281 551.0720825195312 254.8456420898438 C 549.9478759765625 251.2665405273438 548.4215087890625 247.6353149414062 546.5355224609375 244.0527648925781 C 543.01318359375 237.3617553710938 538.1724243164062 230.6315307617188 531.7367553710938 223.4777526855469 C 519.623291015625 210.0127563476562 503.3914184570312 196.8214416503906 486.2064208984375 182.8556518554688 C 474.5828552246094 173.409423828125 462.5635375976562 163.6416625976562 450.7164001464844 152.9433288574219 C 437.2572021484375 140.7890930175781 426.1299438476562 129.2911071777344 416.698974609375 117.7922058105469 C 407.3381958007812 106.3789978027344 397.6674194335938 92.44354248046875 387.1338500976562 75.1893310546875 C 377.8381958007812 59.962890625 369.0422973632812 44.11651611328125 360.5359497070312 28.7919921875 C 347.2463989257812 4.8499755859375 334.6937255859375 -17.76409912109375 322.2551879882812 -34.33636474609375 C 315.6405029296875 -43.14923095703125 309.5735168457031 -49.581787109375 303.7076416015625 -54.0013427734375 C 300.5809631347656 -56.35711669921875 297.4678344726562 -58.15399169921875 294.4548645019531 -59.34210205078125 C 291.3401794433594 -60.57025146484375 288.2170715332031 -61.1929931640625 285.1723022460938 -61.1929931640625 M 285.1723022460938 -62.19305419921875 C 327.7579345703125 -62.19305419921875 363.8972778320312 51.8363037109375 417.47216796875 117.1581115722656 C 489.2734985351562 204.7025451660156 610.3511962890625 232.6192016601562 525.7316284179688 334.00732421875 C 319.8468627929688 580.6913452148438 438.7906494140625 709.51220703125 290.9607238769531 709.51220703125 C 258.8210754394531 709.51220703125 241.5066223144531 614.2085571289062 173.6564025878906 527.214111328125 C 105.8062744140625 440.2195434570312 19.56005859375 409.2008666992188 19.56005859375 361.5343017578125 C 19.56005859375 193.9388732910156 125.3709716796875 203.3003234863281 238.5263977050781 -16.170654296875 C 255.4447021484375 -48.984619140625 270.6844787597656 -62.19305419921875 285.1723022460938 -62.19305419921875 Z" stroke="none" fill="#aaa"/>
      </g>
      <g id="Path_347" data-name="Path 347" transform="translate(1966.757 317.709)" fill="none">
        <path d="M188.7-26.644c51.481-99.85,82.762,35.365,138.223,102.987s148.986,89.186,83.623,167.5C251.511,434.391,343.387,533.9,229.2,533.9c-24.826,0-38.2-73.616-90.61-140.813S19.56,301.927,19.56,265.108C19.56,135.651,101.292,142.883,188.7-26.644Z" stroke="none"/>
        <path d="M 224.7273864746094 -61.19305419921875 C 222.0398864746094 -61.19305419921875 219.3185424804688 -60.5552978515625 216.6390380859375 -59.29763793945312 C 213.8241271972656 -57.976318359375 210.9537048339844 -55.92514038085938 208.1074523925781 -53.20095825195312 C 205.1417846679688 -50.362548828125 202.1076354980469 -46.70306396484375 199.0892028808594 -42.323974609375 C 195.9739685058594 -37.80447387695312 192.7764587402344 -32.37472534179688 189.58544921875 -26.18563842773438 C 152.0139465332031 46.68618774414062 115.438720703125 87.00527954101562 86.050048828125 119.4022827148438 C 76.40362548828125 130.0361022949219 67.29220581054688 140.0802001953125 59.31353759765625 150.0274353027344 C 50.47738647460938 161.0438690185547 43.91162109375 170.835693359375 38.65097045898438 180.8431091308594 C 32.61404418945312 192.3270263671875 28.24954223632812 204.2665252685547 25.30813598632812 217.3439483642578 C 22.11312866210938 231.5487823486328 20.56002807617188 247.1724395751953 20.56002807617188 265.1076049804688 C 20.56002807617188 269.8681945800781 21.69403076171875 274.5016174316406 24.02679443359375 279.2726135253906 C 26.178955078125 283.6741943359375 29.35519409179688 288.1854553222656 33.73703002929688 293.064208984375 C 42.07952880859375 302.3524475097656 53.72012329101562 311.8029479980469 67.19879150390625 322.74560546875 C 78.03619384765625 331.5440368652344 90.31961059570312 341.516357421875 102.6535339355469 352.9188537597656 C 116.8306274414062 366.0252685546875 128.8431091308594 378.9621887207031 139.37744140625 392.4689331054688 C 150.4112854003906 406.6160278320312 160.6677856445312 422.2403564453125 170.7330322265625 440.23486328125 C 179.4368591308594 455.7953491210938 186.6190490722656 470.644775390625 192.9557800292969 483.74609375 C 199.9576110839844 498.2225952148438 206.0046997070312 510.7250366210938 211.8472900390625 519.4422607421875 C 214.8901977539062 523.9825439453125 217.7138671875 527.258056640625 220.4796142578125 529.4558715820312 C 223.3932189941406 531.7713012695312 226.2452087402344 532.8968505859375 229.1985473632812 532.8968505859375 C 243.1423797607422 532.8968505859375 254.1523742675781 531.40234375 262.8577270507812 528.3280029296875 C 267.0935363769531 526.8320922851562 270.7601318359375 524.9866333007812 274.0670166015625 522.6860961914062 C 277.2429504394531 520.4766845703125 280.0001220703125 517.9066162109375 282.4959716796875 514.8289794921875 C 286.9893798828125 509.2881164550781 290.5849609375 502.1129455566406 293.8113708496094 492.2481079101562 C 296.7857055664062 483.1542053222656 299.2024536132812 472.6309509277344 302.0008544921875 460.4461059570312 C 307.6047058105469 436.0455322265625 314.5789489746094 405.6781005859375 330.1454467773438 369.4133605957031 C 334.2011108398438 359.9651184082031 338.7087097167969 350.4446105957031 343.5430297851562 341.1163635253906 C 348.7952880859375 330.9818725585938 354.6122131347656 320.7278442382812 360.8322143554688 310.6390991210938 C 367.5081176757812 299.81103515625 374.8606262207031 288.82861328125 382.685546875 277.9969482421875 C 391.0108032226562 266.4725952148438 400.1251220703125 254.7666168212891 409.775390625 243.2040252685547 C 414.02978515625 238.1065216064453 417.7080383300781 233.1180267333984 420.7080383300781 228.3771057128906 C 423.6227111816406 223.7709503173828 425.9927062988281 219.2471160888672 427.7521362304688 214.9313659667969 C 429.4524536132812 210.7606048583984 430.6397705078125 206.6429443359375 431.2811889648438 202.6929473876953 C 431.8981323242188 198.8936920166016 432.0316162109375 195.1139526367188 431.6780395507812 191.4584503173828 C 431.1207885742188 185.6986083984375 429.3980407714844 180.1407012939453 426.4112854003906 174.4670257568359 C 423.6993713378906 169.3155212402344 419.9707946777344 164.1321105957031 415.012451171875 158.6205291748047 C 405.6675415039062 148.2328491210938 393.1361083984375 138.0489501953125 379.8689575195312 127.2670288085938 C 370.8883056640625 119.9686889648438 361.6018676757812 112.421875 352.4463500976562 104.1541137695312 C 342.0415344238281 94.75811767578125 333.4387817382812 85.86862182617188 326.1467895507812 76.97769165039062 C 318.9094543457031 68.15353393554688 311.4333801269531 57.380859375 303.2914428710938 44.04409790039062 C 296.1087036132812 32.27862548828125 289.3132934570312 20.036376953125 282.7416381835938 8.197113037109375 C 272.480224609375 -10.28939819335938 262.7878723144531 -27.750732421875 253.1893768310547 -40.5390625 C 248.0929565429688 -47.32913208007812 243.4213714599609 -52.282958984375 238.90771484375 -55.68380737304688 C 236.5089416503906 -57.49114990234375 234.1221923828125 -58.86904907226562 231.8140258789062 -59.77923583984375 C 229.4348754882812 -60.71737670898438 227.050537109375 -61.19305419921875 224.7273864746094 -61.19305419921875 M 224.7273559570312 -62.19305419921875 C 257.6218566894531 -62.19305419921875 285.5370483398438 25.88693237304688 326.9199523925781 76.34353637695312 C 382.3816223144531 143.9656982421875 475.9058837890625 165.5293579101562 410.5431213378906 243.8447723388672 C 251.5111236572266 434.3914489746094 343.3870239257812 533.8968505859375 229.1985473632812 533.8968505859375 C 204.3728637695312 533.8968505859375 190.9986267089844 460.2812805175781 138.5889587402344 393.0839538574219 C 86.17938232421875 325.8865966796875 19.56002807617188 301.9267883300781 19.56002807617188 265.1076049804688 C 19.56002807617188 135.6514587402344 101.2917175292969 142.8825378417969 188.6966247558594 -26.64389038085938 C 201.7648620605469 -51.99044799804688 213.5365295410156 -62.19305419921875 224.7273559570312 -62.19305419921875 Z" stroke="none" fill="#aaa"/>
      </g>
      <g id="Path_348" data-name="Path 348" transform="translate(1949.076 292.209)" fill="none">
        <path d="M203.167-23.6C259.053-132,293.01,14.789,353.217,88.2s161.733,96.816,90.778,181.832C271.356,476.878,371.093,584.9,247.135,584.9c-26.95,0-41.468-79.914-98.362-152.86S19.56,333.08,19.56,293.11C19.56,152.578,108.284,160.428,203.167-23.6Z" stroke="none"/>
        <path d="M 242.2808532714844 -61.19305419921875 C 239.3507690429688 -61.19305419921875 236.3843994140625 -60.498046875 233.464111328125 -59.1273193359375 C 230.3999328613281 -57.68905639648438 227.2762145996094 -55.45712280273438 224.1797485351562 -52.493408203125 C 220.9562072753906 -49.40814208984375 217.6586608886719 -45.43106079101562 214.378662109375 -40.67257690429688 C 210.9948425292969 -35.76339721679688 207.5218505859375 -29.865966796875 204.0562133789062 -23.14413452148438 C 163.275390625 55.95242309570312 123.5750427246094 99.71649169921875 91.67529296875 134.8815002441406 C 81.20266723632812 146.4261474609375 71.31085205078125 157.3305053710938 62.64804077148438 168.1307678222656 C 53.05230712890625 180.0941467285156 45.92193603515625 190.7281494140625 40.20858764648438 201.5966796875 C 33.65158081054688 214.0698699951172 28.91122436523438 227.0377655029297 25.71649169921875 241.2414093017578 C 22.24676513671875 256.6677856445312 20.56005859375 273.6342163085938 20.56005859375 293.1103210449219 C 20.56005859375 298.29150390625 21.7938232421875 303.3335876464844 24.33212280273438 308.5247802734375 C 26.67184448242188 313.3102416992188 30.12420654296875 318.2137756347656 34.88629150390625 323.515869140625 C 43.947021484375 333.6038818359375 56.5859375 343.8647766113281 71.2205810546875 355.7459716796875 C 82.98431396484375 365.2963256835938 96.31747436523438 376.1209716796875 109.7046813964844 388.4971313476562 C 125.0912170410156 402.7217712402344 138.1283874511719 416.7622375488281 149.5612182617188 431.4208679199219 C 161.5363159179688 446.7748718261719 172.6679382324219 463.732421875 183.5922241210938 483.2626037597656 C 193.0393981933594 500.1522216796875 200.8355712890625 516.2708740234375 207.7138366699219 530.4920654296875 C 215.3162231445312 546.2100219726562 221.8818359375 559.7846069335938 228.2276611328125 569.252685546875 C 231.5359497070312 574.1888427734375 234.6070251464844 577.7508544921875 237.6163940429688 580.1423950195312 C 240.7949523925781 582.6683959960938 243.9083862304688 583.8963012695312 247.1344909667969 583.8963012695312 C 262.2812194824219 583.8963012695312 274.2424926757812 582.2723999023438 283.7018432617188 578.9317016601562 C 288.3074951171875 577.3052368164062 292.2944946289062 575.2984008789062 295.8906860351562 572.7965698242188 C 299.3450317382812 570.3936157226562 302.34375 567.5982055664062 305.0582885742188 564.2509765625 C 309.9429321289062 558.2276611328125 313.850830078125 550.4298706054688 317.356689453125 539.7108764648438 C 320.586669921875 529.8351440429688 323.2106628417969 518.4099731445312 326.2489624023438 505.1806030273438 C 332.3314819335938 478.6955871582031 339.9013977050781 445.7342224121094 356.7966918945312 406.3739624023438 C 361.198486328125 396.1192321777344 366.0908508300781 385.7861328125 371.3379516601562 375.6615905761719 C 377.0384826660156 364.661865234375 383.35205078125 353.5324096679688 390.1031188964844 342.5823364257812 C 397.34912109375 330.82958984375 405.3294677734375 318.9093017578125 413.8226623535156 307.1524963378906 C 422.8590393066406 294.6438598632812 432.751953125 281.9378662109375 443.2265625 269.3875732421875 C 447.847412109375 263.8510437011719 451.8425903320312 258.4327697753906 455.1011352539062 253.2830505371094 C 458.2679443359375 248.2785034179688 460.843017578125 243.3631286621094 462.7549438476562 238.6734924316406 C 464.6031188964844 234.1398620605469 465.8938598632812 229.6637725830078 466.5912170410156 225.3693237304688 C 467.2620239257812 221.2378692626953 467.4072265625 217.1273193359375 467.0225830078125 213.1517791748047 C 466.4165649414062 206.8878631591797 464.5433959960938 200.8440399169922 461.2958374023438 194.675048828125 C 458.3485717773438 189.0765075683594 454.2970275878906 183.44384765625 448.90966796875 177.455322265625 C 438.7607421875 166.1740417480469 425.1547546386719 155.1167602539062 410.7498474121094 143.4102172851562 C 401.0015869140625 135.4881286621094 390.9215087890625 127.2963256835938 380.984375 118.3226928710938 C 369.6925048828125 108.1256713867188 360.356689453125 98.47866821289062 352.4434814453125 88.83041381835938 C 344.5894775390625 79.25430297851562 336.4760131835938 67.56314086914062 327.6395874023438 53.08877563476562 C 319.8432006835938 40.31814575195312 312.4668579101562 27.02923583984375 305.3333740234375 14.17794799804688 C 294.1925659179688 -5.892852783203125 283.669677734375 -24.8505859375 273.2463073730469 -38.73776245117188 C 267.7090454101562 -46.11532592773438 262.6322021484375 -51.49859619140625 257.7259521484375 -55.19522094726562 C 255.1156616210938 -57.161865234375 252.5180358886719 -58.66140747070312 250.0052185058594 -59.65234375 C 247.4123840332031 -60.6746826171875 244.8135681152344 -61.19305419921875 242.2808532714844 -61.19305419921875 M 242.2808227539062 -62.19305419921875 C 277.9896545410156 -62.19305419921875 308.2931518554688 33.42269897460938 353.2166748046875 88.19622802734375 C 413.4234008789062 161.6039428710938 514.9492797851562 185.0125122070312 443.9943237304688 270.0283203125 C 271.3560180664062 476.8775939941406 371.0925903320312 584.8963012695312 247.1344909667969 584.8963012695312 C 220.1848449707031 584.8963012695312 205.6663208007812 504.982421875 148.7726745605469 432.0358581542969 C 91.87911987304688 359.0893249511719 19.56005859375 333.07958984375 19.56005859375 293.1103210449219 C 19.56005859375 152.5783996582031 108.2843933105469 160.4281311035156 203.1673889160156 -23.6024169921875 C 217.3536987304688 -51.11752319335938 230.1325073242188 -62.19305419921875 242.2808227539062 -62.19305419921875 Z" stroke="none" fill="#aaa"/>
      </g>
    </g>
    <g id="Group_106" data-name="Group 106" transform="matrix(-0.105, 0.995, -0.995, -0.105, 1338.136, -1568.74)" opacity="0.282">
      <g id="Path_350-2" data-name="Path 350" transform="translate(1852.42 152.81)" fill="none">
        <path d="M127.271-23.116c32.784-109.759,52.7,38.875,88.024,113.207s94.878,98.036,53.253,184.123C167.272,483.669,225.781,593.048,153.063,593.048c-15.81,0-24.327-80.921-57.7-154.786s-75.8-100.2-75.8-140.676C19.56,155.284,71.609,163.233,127.271-23.116Z" stroke="none"/>
        <path d="M 150.2157897949219 -61.19305419921875 C 148.6230621337891 -61.19305419921875 147.0556030273438 -60.5504150390625 145.4238739013672 -59.2283935546875 C 143.6585998535156 -57.79815673828125 141.8495178222656 -55.56298828125 140.0469665527344 -52.5849609375 C 138.1554260253906 -49.46005249023438 136.2196044921875 -45.42950439453125 134.2931518554688 -40.60531616210938 C 132.3049621582031 -35.62661743164062 130.2646026611328 -29.64614868164062 128.2286987304688 -22.83004760742188 C 104.3126983642578 57.238037109375 81.02670288085938 101.5465698242188 62.31607055664062 137.1491088867188 C 56.17214965820312 148.8397521972656 50.36895751953125 159.8820190429688 45.2862548828125 170.8202209472656 C 39.65298461914062 182.9429321289062 35.46633911132812 193.7212219238281 32.11050415039062 204.7400360107422 C 28.25607299804688 217.396484375 25.46923828125 230.5561218261719 23.59088134765625 244.9710388183594 C 21.55142211914062 260.622314453125 20.56005859375 277.8329467773438 20.56005859375 297.5863952636719 C 20.56005859375 302.8970336914062 21.29095458984375 308.0590209960938 22.79461669921875 313.3674011230469 C 24.17269897460938 318.2322082519531 26.20306396484375 323.2115783691406 29.001708984375 328.5901184082031 C 34.31552124023438 338.8023071289062 41.72769165039062 349.1893920898438 50.31033325195312 361.2165832519531 C 57.21261596679688 370.8891296386719 65.03579711914062 381.8521118164062 72.8912353515625 394.3874816894531 C 81.91815185546875 408.7922973632812 89.56605529785156 423.0091247558594 96.27197265625 437.8503112792969 C 103.2938842773438 453.3907470703125 109.8210601806641 470.5538635253906 116.2263336181641 490.3202209472656 C 121.7661437988281 507.4154968261719 126.3384246826172 523.7330322265625 130.3725128173828 538.129638671875 C 134.8347930908203 554.0548706054688 138.6886901855469 567.8082885742188 142.4166107177734 577.4093017578125 C 144.3597869873047 582.413818359375 146.1607818603516 586.0213623046875 147.922607421875 588.4380493164062 C 149.6935119628906 590.8673095703125 151.3749694824219 592.0482177734375 153.0631561279297 592.0482177734375 C 161.8275146484375 592.0482177734375 168.7380676269531 590.4326782226562 174.189697265625 587.109375 C 176.8464202880859 585.4898681640625 179.1498718261719 583.4874267578125 181.2317810058594 580.9874267578125 C 183.2489624023438 578.565185546875 185.0028839111328 575.74169921875 186.5938720703125 572.3552856445312 C 189.46923828125 566.2352294921875 191.7695159912109 558.3125610351562 193.8330535888672 547.422119140625 C 195.7309722900391 537.405517578125 197.2713317871094 525.8282470703125 199.0549621582031 512.4229736328125 C 202.6212463378906 485.6192932128906 207.0595092773438 452.2612915039062 216.9635162353516 412.4348449707031 C 219.5439758300781 402.0579528808594 222.4121398925781 391.6015014648438 225.4883422851562 381.35595703125 C 228.8306884765625 370.2234802246094 232.5326080322266 358.9594116210938 236.4912414550781 347.8765869140625 C 240.7404174804688 335.9800415039062 245.4204254150391 323.91357421875 250.4013366699219 312.0123901367188 C 255.7013244628906 299.3485717773438 261.5037841796875 286.48486328125 267.647705078125 273.7783203125 C 271.2278747558594 266.3738403320312 274.1556091308594 259.2015991210938 276.349609375 252.4608459472656 C 278.4616088867188 245.9721221923828 279.9723205566406 239.6398468017578 280.8399658203125 233.6400299072266 C 282.4602355957031 222.43603515625 281.9655151367188 211.939208984375 279.3275146484375 201.5499267578125 C 277.0489807128906 192.5762939453125 273.2094116210938 183.6748657226562 267.2444152832031 173.5366821289062 C 261.8887939453125 164.4342956542969 255.4345092773438 155.3804931640625 248.6013336181641 145.7951354980469 C 242.8815155029297 137.7715759277344 236.9669799804688 129.474853515625 231.1356964111328 120.3853149414062 C 224.5103302001953 110.0580444335938 219.0332336425781 100.2890319824219 214.3915100097656 90.52001953125 C 209.7864227294922 80.82839965820312 205.0292358398438 68.99603271484375 199.84814453125 54.34677124023438 C 195.2759704589844 41.41958618164062 190.9495086669922 27.965576171875 186.7655181884766 14.95449829101562 C 180.2276916503906 -5.376068115234375 174.0524291992188 -24.57925415039062 167.9333343505859 -38.65151977539062 C 161.3376922607422 -53.819580078125 155.542236328125 -61.19305419921875 150.2157897949219 -61.19305419921875 M 150.2158050537109 -62.19305419921875 C 171.1638336181641 -62.19305419921875 188.94091796875 34.62725830078125 215.2946929931641 90.09085083007812 C 250.6139678955078 164.4233093261719 310.172607421875 188.1267700195312 268.5479736328125 274.2135620117188 C 167.2724304199219 483.6686706542969 225.7813415527344 593.0482177734375 153.0631561279297 593.0482177734375 C 137.2535095214844 593.0482177734375 128.7365112304688 512.1275634765625 95.36070251464844 438.2620239257812 C 61.98486328125 364.3966674804688 19.56005859375 338.0592041015625 19.56005859375 297.5863952636719 C 19.56005859375 155.2840270996094 71.60888671875 163.232666015625 127.2705078125 -23.11624145507812 C 135.5926971435547 -50.97799682617188 143.0891876220703 -62.19305419921875 150.2158050537109 -62.19305419921875 Z" stroke="none" fill="#aaa"/>
      </g>
      <g id="Path_349-2" data-name="Path 349" transform="translate(1838.882 133.285)" fill="none">
        <path d="M138.35-20.787c36.157-116.3,58.126,41.191,97.079,119.954s104.638,103.878,58.731,195.1C182.467,516.2,246.995,632.1,166.8,632.1c-17.436,0-26.829-85.743-63.638-164.011s-83.6-106.174-83.6-149.059C19.56,168.245,76.963,176.667,138.35-20.787Z" stroke="none"/>
        <path d="M 163.6560974121094 -61.19305419921875 C 161.8675842285156 -61.19305419921875 160.11279296875 -60.5037841796875 158.2911834716797 -59.08587646484375 C 156.3369903564453 -57.56463623046875 154.3359832763672 -55.1900634765625 152.3438873291016 -52.028076171875 C 150.2563934326172 -48.71466064453125 148.1201934814453 -44.4417724609375 145.9946899414062 -39.32794189453125 C 143.8016967773438 -34.0516357421875 141.5510864257812 -27.7137451171875 139.3053894042969 -20.49053955078125 C 112.9301910400391 64.345947265625 87.2498779296875 111.2931213378906 66.61538696289062 149.0158386230469 C 59.83920288085938 161.4036254882812 53.43878173828125 173.1045227050781 47.83270263671875 184.6955261230469 C 41.61920166015625 197.5423278808594 37.00128173828125 208.9644470214844 33.29989624023438 220.6413269042969 C 29.04840087890625 234.0534362792969 25.97457885742188 247.9987335205078 23.90289306640625 263.27392578125 C 21.65350341796875 279.8588256835938 20.56008911132812 298.095947265625 20.56008911132812 319.0274353027344 C 20.56008911132812 324.6564331054688 21.36648559570312 330.1280517578125 23.02548217773438 335.7548217773438 C 24.5458984375 340.9118347167969 26.78610229492188 346.1902465820312 29.8739013671875 351.8916320800781 C 35.736083984375 362.7155151367188 43.91180419921875 373.72314453125 53.37847900390625 386.46875 C 60.99029541015625 396.717041015625 69.61767578125 408.3327331542969 78.28030395507812 421.6137390136719 C 88.23458862304688 436.8751220703125 96.66818237304688 451.9373474121094 104.06298828125 467.6611328125 C 111.8065948486328 484.1264343261719 119.0046844482422 502.3111267089844 126.0684967041016 523.2542114257812 C 132.1778869628906 541.3676147460938 137.2204895019531 558.6573486328125 141.6694946289062 573.9117431640625 C 146.5910949707031 590.7867431640625 150.8415832519531 605.3605346679688 154.9536895751953 615.5353393554688 C 157.0981903076172 620.8417358398438 159.0865936279297 624.6678466796875 161.0323944091797 627.2322387695312 C 163.0058898925781 629.8331298828125 164.8912963867188 631.097412109375 166.79638671875 631.097412109375 C 176.4880828857422 631.097412109375 184.1319885253906 629.3798217773438 190.164794921875 625.8465576171875 C 193.1041870117188 624.125 195.6521911621094 621.9970092773438 197.9544830322266 619.3409423828125 C 200.1824951171875 616.7704467773438 202.1194915771484 613.7747192382812 203.8760833740234 610.1826171875 C 207.0484924316406 603.6951293945312 209.5862884521484 595.2979125976562 211.8625946044922 583.7560424804688 C 213.9558868408203 573.1419677734375 215.6546936035156 560.8744506835938 217.6217956542969 546.669921875 C 221.5547943115234 518.26953125 226.4495849609375 482.9242248535156 237.3721008300781 440.7255249023438 C 240.2178955078125 429.7307434082031 243.3809814453125 418.6515502929688 246.7734985351562 407.7957458496094 C 250.4594879150391 396.0003356933594 254.5420837402344 384.0655517578125 258.9076843261719 372.32275390625 C 263.5937805175781 359.7178344726562 268.7550048828125 346.9328308105469 274.2479858398438 334.3229370117188 C 280.0928955078125 320.9051513671875 286.4920043945312 307.2753295898438 293.2674865722656 293.812255859375 C 297.216796875 285.9649353027344 300.4463806152344 278.3637390136719 302.8665771484375 271.2197265625 C 305.1962890625 264.3428344726562 306.8628845214844 257.6317138671875 307.8200073242188 251.2730407714844 C 309.6072998046875 239.3986358642578 309.0614929199219 228.2737426757812 306.1513061523438 217.2624206542969 C 303.6375732421875 207.7508239746094 299.4017028808594 198.3158264160156 292.8208923339844 187.5699462890625 C 286.9130859375 177.9230346679688 279.7940979003906 168.3286437988281 272.2572021484375 158.1709289550781 C 265.9494018554688 149.6698303222656 259.427001953125 140.8793334960938 252.99658203125 131.2492370605469 C 245.6908874511719 120.308349609375 239.6513977050781 109.9589233398438 234.5329895019531 99.60952758789062 C 229.4548950195312 89.34164428710938 224.2088928222656 76.80523681640625 218.4951934814453 61.28414916992188 C 213.4529876708984 47.5870361328125 208.6814880371094 33.3314208984375 204.0671844482422 19.54522705078125 C 196.8564910888672 -1.99786376953125 190.0457916259766 -22.34619140625 183.2964935302734 -37.2586669921875 C 179.7118835449219 -45.1790771484375 176.4279937744141 -50.955078125 173.2572937011719 -54.9168701171875 C 171.5881958007812 -57.00244140625 169.9349975585938 -58.58758544921875 168.3435974121094 -59.628173828125 C 166.7556915283203 -60.66656494140625 165.1785888671875 -61.19305419921875 163.6560974121094 -61.19305419921875 M 163.6560974121094 -62.19305419921875 C 186.7589874267578 -62.19305419921875 206.3647155761719 40.39730834960938 235.4293823242188 99.16622924804688 C 274.3819885253906 177.9285278320312 340.0672912597656 203.0446472167969 294.1607971191406 294.26171875 C 182.4671936035156 516.1993408203125 246.9947814941406 632.097412109375 166.79638671875 632.097412109375 C 149.3603973388672 632.097412109375 139.9671936035156 546.3543090820312 103.1580810546875 468.0867309570312 C 66.34909057617188 389.8192443847656 19.56008911132812 361.9122314453125 19.56008911132812 319.0274353027344 C 19.56008911132812 168.24462890625 76.96298217773438 176.6669311523438 138.3504943847656 -20.7874755859375 C 147.5287475585938 -50.30963134765625 155.79638671875 -62.19305419921875 163.6560974121094 -62.19305419921875 Z" stroke="none" fill="#aaa"/>
      </g>
      <g id="Path_345-2" data-name="Path 345" transform="translate(1918.53 370.558)" fill="none">
        <path d="M73.163-46.346C89.479-90.857,99.392-30.581,116.97-.437s47.217,39.757,26.5,74.668c-50.4,84.941-21.283,129.3-57.472,129.3-7.868,0-12.106-32.816-28.716-62.771S19.56,100.123,19.56,83.71C19.56,26,45.463,29.225,73.163-46.346Z" stroke="none"/>
        <path d="M 84.58232879638672 -61.19303131103516 C 83.09252166748047 -61.19303131103516 81.51671600341797 -60.08856964111328 79.89871215820312 -57.91034698486328 C 78.02359771728516 -55.38599395751953 76.0733642578125 -51.37941741943359 74.10224914550781 -46.00196075439453 C 62.17575073242188 -13.46499633789062 50.5662841796875 4.536117553710938 41.23789978027344 19.00022888183594 C 35.14797973632812 28.44300079345703 29.88851928710938 36.59803771972656 26.2666015625 46.28919219970703 C 24.36375427246094 51.38057708740234 22.98779296875 56.67588424682617 22.06002807617188 62.4777717590332 C 21.05072021484375 68.78965759277344 20.56005859375 75.734619140625 20.56005859375 83.70954132080078 C 20.56005859375 87.66734313964844 21.86289978027344 91.55096435546875 24.66014099121094 95.93157958984375 C 27.28001403808594 100.0344619750977 30.95509338378906 104.2311172485352 35.21044921875 109.090461730957 C 42.08087158203125 116.9360046386719 50.63128662109375 126.7000427246094 58.15760040283203 140.2733459472656 C 66.04724884033203 154.5018920898438 71.10752105712891 169.2177734375 75.17352294921875 181.0421905517578 C 77.38787078857422 187.4817352294922 79.30021667480469 193.0431213378906 81.13983154296875 196.9037780761719 C 82.94351959228516 200.6891174316406 84.53309631347656 202.5292358398438 85.99932861328125 202.5292358398438 C 90.29709625244141 202.5292358398438 93.67540740966797 201.8888549804688 96.32736968994141 200.5715026855469 C 98.79933166503906 199.3435668945312 100.743293762207 197.4591522216797 102.2703704833984 194.810546875 C 103.6690216064453 192.3846130371094 104.7918319702148 189.2276611328125 105.8038711547852 184.8753509521484 C 106.743408203125 180.8347778320312 107.5083312988281 176.1499328613281 108.3940200805664 170.725341796875 C 110.1720199584961 159.8359985351562 112.3847503662109 146.2838439941406 117.3265228271484 130.0904541015625 C 120.0065231323242 121.3086166381836 123.2850189208984 112.4763107299805 127.0709838867188 103.8389282226562 C 131.4425964355469 93.86538696289062 136.6712188720703 83.73223114013672 142.6116027832031 73.72084808349609 C 146.1013641357422 67.83953857421875 148.2226715087891 62.58615493774414 149.0968322753906 57.66049957275391 C 149.8840179443359 53.22454071044922 149.6442565917969 49.07057952880859 148.3638000488281 44.96127319335938 C 145.9202880859375 37.11934661865234 140.0243682861328 30.37980651855469 133.1975250244141 22.57615661621094 C 127.6217498779297 16.20253753662109 121.3020172119141 8.97857666015625 116.1056365966797 0.066925048828125 C 110.9605178833008 -8.756881713867188 106.565559387207 -19.89385223388672 102.3152923583984 -30.66411590576172 C 99.06855773925781 -38.89134979248047 96.00194549560547 -46.66230010986328 92.97379302978516 -52.33704376220703 C 91.38294219970703 -55.31835174560547 89.93255615234375 -57.48506927490234 88.53978729248047 -58.96108245849609 C 87.14232635498047 -60.44211578369141 85.81082916259766 -61.19303131103516 84.58232879638672 -61.19303131103516 M 84.58232116699219 -62.19304656982422 C 95.00734710693359 -62.19304656982422 103.8543014526367 -22.92916107177734 116.9695205688477 -0.4368057250976562 C 134.5466003417969 29.70750427246094 164.1865997314453 39.32003784179688 143.4716033935547 74.23115539550781 C 93.07071685791016 159.1721954345703 122.1883239746094 203.5292358398438 85.99932861328125 203.5292358398438 C 78.13152313232422 203.5292358398438 73.89290618896484 170.7132263183594 57.28305816650391 140.7582702636719 C 40.67324829101562 110.8033447265625 19.56005859375 100.1226577758789 19.56005859375 83.70954132080078 C 19.56005859375 26.00119018554688 45.46270751953125 29.22465515136719 73.163330078125 -46.34610748291016 C 77.30496215820312 -57.64498138427734 81.03567504882812 -62.19304656982422 84.58232116699219 -62.19304656982422 Z" stroke="none" fill="#aaa"/>
      </g>
      <g id="Path_352-2" data-name="Path 352" transform="translate(1873.28 201.271)" fill="none">
        <path d="M110.2-26.7c27.588-99.68,44.351,35.3,74.072,102.812s79.84,89.034,44.812,167.215C143.859,433.544,193.095,532.88,131.9,532.88c-13.3,0-20.471-73.49-48.556-140.573s-63.786-91-63.786-127.758C19.56,135.314,63.359,142.533,110.2-26.7Z" stroke="none"/>
        <path d="M 129.5064086914062 -61.19302368164062 C 126.8117370605469 -61.19302368164062 123.9839019775391 -58.58734130859375 121.1016540527344 -53.4483642578125 C 117.8734893798828 -47.69259643554688 114.5292358398438 -38.60501098632812 111.1617431640625 -26.4378662109375 C 91.035400390625 46.28189086914062 71.43916320800781 86.52423095703125 55.6932373046875 118.8595581054688 C 50.52348327636719 129.4759826660156 45.64048767089844 139.503662109375 41.36390686035156 149.4361572265625 C 36.62440490722656 160.4436492919922 33.10198974609375 170.2303161621094 30.27865600585938 180.2354888916016 C 27.03558349609375 191.7280731201172 24.69082641601562 203.6779022216797 23.11041259765625 216.7676544189453 C 21.39431762695312 230.9808959960938 20.56005859375 246.6103210449219 20.56005859375 264.5489807128906 C 20.56005859375 269.3699951171875 21.17483520507812 274.055908203125 22.4395751953125 278.8744812011719 C 23.59848022460938 283.2898254394531 25.305908203125 287.8091430664062 27.65948486328125 292.6906433105469 C 32.12890625 301.9607238769531 38.36482238769531 311.3919067382812 45.58549499511719 322.3122253417969 C 51.39431762695312 331.0975646972656 57.97824096679688 341.0549926757812 64.58982849121094 352.44140625 C 72.18748474121094 365.5260620117188 78.62440490722656 378.4399108886719 84.26849365234375 391.9208068847656 C 97.56465148925781 423.6788024902344 106.1042327880859 456.5694885253906 112.9659118652344 482.9976501464844 C 116.7207336425781 497.4595642089844 119.9635772705078 509.9493103027344 123.0999908447266 518.6668701171875 C 124.7334136962891 523.2071533203125 126.2464141845703 526.478515625 127.7254028320312 528.66796875 C 129.1648254394531 530.799072265625 130.5702362060547 531.8795776367188 131.9024963378906 531.8795776367188 C 139.2350769042969 531.8795776367188 145.0138244628906 530.4227905273438 149.5688171386719 527.4261474609375 C 151.7905731201172 525.9644775390625 153.7179870605469 524.15576171875 155.4612426757812 521.8965454101562 C 157.1541595458984 519.7025756835938 158.6268310546875 517.1437377929688 159.9632415771484 514.0737915039062 C 162.3813171386719 508.5191650390625 164.3160705566406 501.326904296875 166.0520629882812 491.4393310546875 C 167.6490783691406 482.3431396484375 168.9452514648438 471.8293151855469 170.4460754394531 459.6553039550781 C 173.4471588134766 435.3124084472656 177.1819915771484 405.0168151855469 185.5165710449219 368.8460693359375 C 190.0359039306641 349.2324829101562 195.5649108886719 329.5053100585938 201.9499816894531 310.212646484375 C 209.3249816894531 287.9287414550781 218.1466674804688 265.2861328125 228.1699829101562 242.9137268066406 C 231.1818237304688 236.1912384033203 233.6447448730469 229.6795654296875 235.4904022216797 223.5596466064453 C 237.2670745849609 217.6683959960938 238.5380706787109 211.9193115234375 239.2679901123047 206.4718933105469 C 240.6310729980469 196.29931640625 240.2149047851562 186.7691497802734 237.9957427978516 177.3368225097656 C 236.0792388916016 169.1910705566406 232.8499145507812 161.1110687255859 227.8329162597656 151.9084777832031 C 223.3277435302734 143.6448974609375 217.8973999023438 135.4238891601562 212.1483154296875 126.7201538085938 C 207.3345642089844 119.4325561523438 202.3569946289062 111.8968200683594 197.4489135742188 103.6402282714844 C 191.8721618652344 94.25881958007812 187.2619934082031 85.3843994140625 183.3548278808594 76.50997924804688 C 179.4790649414062 67.70681762695312 175.4754028320312 56.95956420898438 171.1150817871094 43.65414428710938 C 167.2674865722656 31.91348266601562 163.6267395019531 19.69482421875 160.1058349609375 7.878326416015625 C 154.6044921875 -10.58450317382812 149.4083251953125 -28.02334594726562 144.2599029541016 -40.80142211914062 C 141.5279846191406 -47.58203125 139.0268249511719 -52.52468872070312 136.6135711669922 -55.911865234375 C 134.1168212890625 -59.41619873046875 131.7256622314453 -61.19302368164062 129.5064086914062 -61.19302368164062 M 129.5064239501953 -62.19305419921875 C 147.1341705322266 -62.19305419921875 162.0935363769531 25.736572265625 184.2700805664062 76.1070556640625 C 213.9912414550781 143.6138916015625 264.1095581054688 165.1407318115234 229.0825805664062 243.3225708007812 C 143.8594970703125 433.5439758300781 193.0945739746094 532.8795776367188 131.9024963378906 532.8795776367188 C 118.5987396240234 532.8795776367188 111.4316558837891 459.3896484375 83.3460693359375 392.3069763183594 C 55.26040649414062 325.2243041992188 19.56005859375 301.3052978515625 19.56005859375 264.5489807128906 C 19.56005859375 135.3138122558594 63.35899353027344 142.5325622558594 110.1979827880859 -26.70458984375 C 117.2010955810547 -52.00787353515625 123.5093841552734 -62.19305419921875 129.5064239501953 -62.19305419921875 Z" stroke="none" fill="#aaa"/>
      </g>
      <g id="Path_346-2" data-name="Path 346" transform="translate(1918.53 248.155)" fill="none">
        <path d="M73.163-34.489C89.479-112.3,99.392-6.927,116.97,45.773s47.217,69.505,26.5,130.539C93.071,324.81,122.188,402.358,86,402.358c-7.868,0-12.106-57.371-28.716-109.74S19.56,221.577,19.56,192.882C19.56,91.993,45.463,97.629,73.163-34.489Z" stroke="none"/>
        <path d="M 84.58232879638672 -61.19302368164062 C 83.80313110351562 -61.19302368164062 82.17372894287109 -60.43487548828125 80.01632690429688 -55.35720825195312 C 78.10926055908203 -50.86895751953125 76.13292694091797 -43.7786865234375 74.14205932617188 -34.28329467773438 C 62.23873138427734 22.48910522460938 50.64859008789062 53.90731811523438 41.33572387695312 79.15225219726562 C 35.2276611328125 95.709716796875 29.95252990722656 110.0093231201172 26.30780029296875 127.0588531494141 C 24.38986206054688 136.0305938720703 23.00312805175781 145.3595123291016 22.06838989257812 155.5786590576172 C 21.053466796875 166.6751861572266 20.56005859375 178.8773193359375 20.56005859375 192.8822631835938 C 20.56005859375 200.0291137695312 21.89352416992188 207.0086517333984 24.756591796875 214.8473205566406 C 27.39759826660156 222.0779113769531 31.0838623046875 229.4371948242188 35.35220336914062 237.9584503173828 C 38.78839111328125 244.8183898925781 42.68305969238281 252.5936584472656 46.59452819824219 261.48583984375 C 51.08940124511719 271.7041931152344 54.89739990234375 281.7887878417969 58.23625946044922 292.3157958984375 C 66.1004638671875 317.1106567382812 71.15093231201172 342.7881164550781 75.20912933349609 363.4203796386719 C 77.42959594726562 374.7097778320312 79.34732818603516 384.4596557617188 81.20186614990234 391.2639770507812 C 82.16639709472656 394.802734375 83.05846405029297 397.3500366210938 83.92913055419922 399.051513671875 C 84.99439239501953 401.1331787109375 85.73172760009766 401.35791015625 85.99932861328125 401.35791015625 C 94.18299865722656 401.35791015625 99.02413177490234 397.2659301757812 102.1869964599609 387.6753845214844 C 103.6162643432617 383.3415222167969 104.7600631713867 377.7283325195312 105.7865982055664 370.0101928710938 C 106.7311325073242 362.908935546875 107.4976654052734 354.700927734375 108.3853302001953 345.1969909667969 C 110.1601257324219 326.193603515625 112.3689270019531 302.5433349609375 117.2978591918945 274.306396484375 C 119.9706573486328 258.9944458007812 123.2406616210938 243.5938568115234 127.0168609619141 228.5321807861328 C 131.3787994384766 211.1347198486328 136.5963287353516 193.4570617675781 142.524658203125 175.9901123046875 C 146.0523376464844 165.5963897705078 148.19873046875 156.2923126220703 149.0865325927734 147.5462493896484 C 149.8929290771484 139.6025238037109 149.646728515625 132.1607208251953 148.3340606689453 124.7955932617188 C 145.8529968261719 110.8755798339844 139.9226684570312 99.02432250976562 133.0558624267578 85.30165100097656 C 127.4947280883789 74.18818664550781 121.1915969848633 61.5919189453125 116.0209274291992 46.08912658691406 C 110.8983306884766 30.73043823242188 106.5119934082031 11.2984619140625 102.2700653076172 -7.493804931640625 C 99.01673126220703 -21.90634155273438 95.94386291503906 -35.51962280273438 92.89959716796875 -45.4932861328125 C 91.28592681884766 -50.78021240234375 89.80986022949219 -54.63162231445312 88.38713073730469 -57.26760864257812 C 87.42059326171875 -59.058349609375 85.97586059570312 -61.19302368164062 84.58232879638672 -61.19302368164062 M 84.58230590820312 -62.19302368164062 C 95.00733947753906 -62.19302368164062 103.8543167114258 6.4503173828125 116.9695281982422 45.77272033691406 C 134.5466003417969 98.47271728515625 164.1865997314453 115.2779235839844 143.4715881347656 176.3115234375 C 93.07073211669922 324.8103942871094 122.1883239746094 402.35791015625 85.99932861328125 402.35791015625 C 78.13153076171875 402.35791015625 73.89292907714844 344.987060546875 57.28306579589844 292.6181335449219 C 40.67326354980469 240.2491912841797 19.56005859375 221.5765228271484 19.56005859375 192.8822631835938 C 19.56005859375 91.99317932128906 45.46272277832031 97.62858581542969 73.163330078125 -34.48849487304688 C 77.30494689941406 -54.2418212890625 81.03566741943359 -62.19302368164062 84.58230590820312 -62.19302368164062 Z" stroke="none" fill="#aaa"/>
      </g>
      <g id="Path_351-2" data-name="Path 351" transform="translate(1873.28 182.894)" fill="none">
        <path d="M110.2-26.7c27.588-99.68,44.351,35.3,74.072,102.812s79.84,89.034,44.812,167.215C143.859,433.544,193.095,532.88,131.9,532.88c-13.3,0-20.471-73.49-48.556-140.573s-63.786-91-63.786-127.758C19.56,135.314,63.359,142.533,110.2-26.7Z" stroke="none"/>
        <path d="M 129.5064086914062 -61.19302368164062 C 126.8117370605469 -61.19302368164062 123.9839019775391 -58.58734130859375 121.1016540527344 -53.4483642578125 C 117.8734893798828 -47.69259643554688 114.5292358398438 -38.60501098632812 111.1617431640625 -26.4378662109375 C 91.035400390625 46.28189086914062 71.43916320800781 86.52423095703125 55.6932373046875 118.8595581054688 C 50.52348327636719 129.4759826660156 45.64048767089844 139.503662109375 41.36390686035156 149.4361572265625 C 36.62440490722656 160.4436492919922 33.10198974609375 170.2303161621094 30.27865600585938 180.2354888916016 C 27.03558349609375 191.7280731201172 24.69082641601562 203.6779022216797 23.11041259765625 216.7676544189453 C 21.39431762695312 230.9808959960938 20.56005859375 246.6103210449219 20.56005859375 264.5489807128906 C 20.56005859375 269.3699951171875 21.17483520507812 274.055908203125 22.4395751953125 278.8744812011719 C 23.59848022460938 283.2898254394531 25.305908203125 287.8091430664062 27.65948486328125 292.6906433105469 C 32.12890625 301.9607238769531 38.36482238769531 311.3919067382812 45.58549499511719 322.3122253417969 C 51.39431762695312 331.0975646972656 57.97824096679688 341.0549926757812 64.58982849121094 352.44140625 C 72.18748474121094 365.5260620117188 78.62440490722656 378.4399108886719 84.26849365234375 391.9208068847656 C 97.56465148925781 423.6788024902344 106.1042327880859 456.5694885253906 112.9659118652344 482.9976501464844 C 116.7207336425781 497.4595642089844 119.9635772705078 509.9493103027344 123.0999908447266 518.6668701171875 C 124.7334136962891 523.2071533203125 126.2464141845703 526.478515625 127.7254028320312 528.66796875 C 129.1648254394531 530.799072265625 130.5702362060547 531.8795776367188 131.9024963378906 531.8795776367188 C 139.2350769042969 531.8795776367188 145.0138244628906 530.4227905273438 149.5688171386719 527.4261474609375 C 151.7905731201172 525.9644775390625 153.7179870605469 524.15576171875 155.4612426757812 521.8965454101562 C 157.1541595458984 519.7025756835938 158.6268310546875 517.1437377929688 159.9632415771484 514.0737915039062 C 162.3813171386719 508.5191650390625 164.3160705566406 501.326904296875 166.0520629882812 491.4393310546875 C 167.6490783691406 482.3431396484375 168.9452514648438 471.8293151855469 170.4460754394531 459.6553039550781 C 173.4471588134766 435.3124084472656 177.1819915771484 405.0168151855469 185.5165710449219 368.8460693359375 C 190.0359039306641 349.2324829101562 195.5649108886719 329.5053100585938 201.9499816894531 310.212646484375 C 209.3249816894531 287.9287414550781 218.1466674804688 265.2861328125 228.1699829101562 242.9137268066406 C 231.1818237304688 236.1912384033203 233.6447448730469 229.6795654296875 235.4904022216797 223.5596466064453 C 237.2670745849609 217.6683959960938 238.5380706787109 211.9193115234375 239.2679901123047 206.4718933105469 C 240.6310729980469 196.29931640625 240.2149047851562 186.7691497802734 237.9957427978516 177.3368225097656 C 236.0792388916016 169.1910705566406 232.8499145507812 161.1110687255859 227.8329162597656 151.9084777832031 C 223.3277435302734 143.6448974609375 217.8973999023438 135.4238891601562 212.1483154296875 126.7201538085938 C 207.3345642089844 119.4325561523438 202.3569946289062 111.8968200683594 197.4489135742188 103.6402282714844 C 191.8721618652344 94.25881958007812 187.2619934082031 85.3843994140625 183.3548278808594 76.50997924804688 C 179.4790649414062 67.70681762695312 175.4754028320312 56.95956420898438 171.1150817871094 43.65414428710938 C 167.2674865722656 31.91348266601562 163.6267395019531 19.69482421875 160.1058349609375 7.878326416015625 C 154.6044921875 -10.58450317382812 149.4083251953125 -28.02334594726562 144.2599029541016 -40.80142211914062 C 141.5279846191406 -47.58203125 139.0268249511719 -52.52468872070312 136.6135711669922 -55.911865234375 C 134.1168212890625 -59.41619873046875 131.7256622314453 -61.19302368164062 129.5064086914062 -61.19302368164062 M 129.5064239501953 -62.19305419921875 C 147.1341705322266 -62.19305419921875 162.0935363769531 25.736572265625 184.2700805664062 76.1070556640625 C 213.9912414550781 143.6138916015625 264.1095581054688 165.1407318115234 229.0825805664062 243.3225708007812 C 143.8594970703125 433.5439758300781 193.0945739746094 532.8795776367188 131.9024963378906 532.8795776367188 C 118.5987396240234 532.8795776367188 111.4316558837891 459.3896484375 83.3460693359375 392.3069763183594 C 55.26040649414062 325.2243041992188 19.56005859375 301.3052978515625 19.56005859375 264.5489807128906 C 19.56005859375 135.3138122558594 63.35899353027344 142.5325622558594 110.1979827880859 -26.70458984375 C 117.2010955810547 -52.00787353515625 123.5093841552734 -62.19305419921875 129.5064239501953 -62.19305419921875 Z" stroke="none" fill="#aaa"/>
      </g>
      <g id="Path_347-2" data-name="Path 347" transform="translate(1904.541 227.98)" fill="none">
        <path d="M84.612-32.082c19.8-84.575,31.831,29.955,53.163,87.232s57.3,75.542,32.163,141.877c-61.166,161.4-25.829,245.68-69.747,245.68-9.548,0-14.692-62.354-34.85-119.271s-45.78-77.212-45.78-108.4C19.56,105.385,51,111.51,84.612-32.082Z" stroke="none"/>
        <path d="M 98.47003173828125 -61.19302368164062 C 96.70196533203125 -61.19302368164062 94.7120361328125 -58.96844482421875 92.71539306640625 -54.7598876953125 C 90.40068054199219 -49.88095092773438 88.00196075439453 -42.17437744140625 85.5858154296875 -31.85421752929688 C 71.14010620117188 29.84942626953125 57.07460021972656 63.99627685546875 45.77275085449219 91.43362426757812 C 38.35997009277344 109.4295501708984 31.95803833007812 124.9713439941406 27.53489685058594 143.5015563964844 C 25.20745849609375 153.2519073486328 23.52467346191406 163.3902740478516 22.39039611816406 174.4961242675781 C 21.15875244140625 186.5556335449219 20.56002807617188 199.8166961669922 20.56002807617188 215.0372009277344 C 20.56002807617188 222.8022766113281 22.17817687988281 230.386474609375 25.65254211425781 238.9053344726562 C 28.85818481445312 246.7654876708984 33.33232116699219 254.7648315429688 38.51289367675781 264.0272827148438 C 42.68267822265625 271.4826354980469 47.40888977050781 279.9326171875 52.1553955078125 289.5962829589844 C 57.60981750488281 300.7013549804688 62.23095703125 311.6611328125 66.28274536132812 323.1018981933594 C 75.8265380859375 350.0503540039062 81.95582580566406 377.9582824707031 86.88075256347656 400.3826904296875 C 89.57553863525391 412.6525573730469 91.90274810791016 423.2491455078125 94.15338897705078 430.644287109375 C 95.32418060302734 434.4913330078125 96.40753173828125 437.2614135742188 97.46532440185547 439.1126098632812 C 98.4351806640625 440.8099975585938 99.37725067138672 441.7072143554688 100.1897506713867 441.7072143554688 C 110.2476043701172 441.7072143554688 116.1868209838867 437.2322692871094 120.0489654541016 426.7442626953125 C 121.7833938598633 422.0341186523438 123.1713943481445 415.933837890625 124.417106628418 407.5462646484375 C 125.5632476806641 399.82861328125 126.493537902832 390.9079895019531 127.5706787109375 380.578857421875 C 129.724609375 359.9244995117188 132.4052429199219 334.219482421875 138.3871154785156 303.5291137695312 C 141.6308898925781 286.8869934082031 145.5993194580078 270.1484069824219 150.1821746826172 253.7783508300781 C 155.4756774902344 234.8697662353516 161.8076019287109 215.6567077636719 169.0021057128906 196.6728363037109 C 173.2831115722656 185.3765563964844 175.8878173828125 175.2651214599609 176.9651031494141 165.7606201171875 C 177.9434661865234 157.1295623779297 177.6448211669922 149.0437774658203 176.0521850585938 141.0412750244141 C 174.6773223876953 134.1331329345703 172.3609619140625 127.2812042236328 168.7623901367188 119.4779052734375 C 165.5306091308594 112.4701232910156 161.6342468261719 105.4967041015625 157.5091094970703 98.11390686035156 C 150.7607421875 86.03619384765625 143.1120300292969 72.34706115722656 136.8375244140625 55.49920654296875 C 130.6208953857422 38.80670166015625 125.2976760864258 17.686767578125 120.1496810913086 -2.73779296875 C 116.2015380859375 -18.402099609375 112.4723892211914 -33.19766235351562 108.777961730957 -44.03750610351562 C 106.8191070556641 -49.78494262695312 105.0269622802734 -53.97265625 103.2989654541016 -56.83987426757812 C 101.55810546875 -59.72836303710938 99.93339538574219 -61.19302368164062 98.47003173828125 -61.19302368164062 M 98.47006988525391 -62.19302368164062 C 111.1217041015625 -62.19302368164062 121.8582382202148 12.4124755859375 137.7746887207031 55.15020751953125 C 159.10595703125 112.4275512695312 195.0765991210938 130.6924896240234 169.9371795654297 197.0271911621094 C 108.7714614868164 358.4241333007812 144.1081085205078 442.7072143554688 100.1897506713867 442.7072143554688 C 90.64146423339844 442.7072143554688 85.49752807617188 380.353271484375 65.34010314941406 323.4357604980469 C 45.18267822265625 266.5182800292969 19.56002807617188 246.2238464355469 19.56002807617188 215.0372009277344 C 19.56002807617188 105.3852691650391 50.99510192871094 111.5101318359375 84.6121826171875 -32.0821533203125 C 89.63838958740234 -53.55120849609375 94.16592407226562 -62.19302368164062 98.47006988525391 -62.19302368164062 Z" stroke="none" fill="#aaa"/>
      </g>
      <g id="Path_348-2" data-name="Path 348" transform="translate(1895.463 214.887)" fill="none">
        <path d="M92.042-30.52C114.1-119.482,127.509.988,151.277,61.236s63.847,79.46,35.836,149.235C118.961,380.239,158.334,468.894,109.4,468.894c-10.639,0-16.37-65.588-38.83-125.457S19.56,262.22,19.56,229.416C19.56,114.077,54.586,120.519,92.042-30.52Z" stroke="none"/>
        <path d="M 107.4831085205078 -61.19308471679688 C 106.5381164550781 -61.19308471679688 105.545654296875 -60.69216918945312 104.5332641601562 -59.7042236328125 C 103.3643341064453 -58.56353759765625 102.1614227294922 -56.77093505859375 100.9579620361328 -54.376220703125 C 98.37834167480469 -49.24307250976562 95.70526123046875 -41.13592529296875 93.01303100585938 -30.27984619140625 C 76.91741943359375 34.62353515625 61.24557495117188 70.54083251953125 48.65303039550781 99.40084838867188 C 40.39334106445312 118.3306121826172 33.26004028320312 134.6789245605469 28.33149719238281 154.1708374023438 C 25.73818969726562 164.4267578125 23.86326599121094 175.0909118652344 22.59941101074219 186.7726898193359 C 21.22711181640625 199.4573822021484 20.56002807617188 213.4059906005859 20.56002807617188 229.4156188964844 C 20.56002807617188 237.5829925537109 22.36318969726562 245.5608520507812 26.23472595214844 254.5223083496094 C 29.80711364746094 262.7915344238281 34.792724609375 271.20654296875 40.56556701660156 280.9502258300781 C 45.21141052246094 288.7918395996094 50.47718811035156 297.6797485351562 55.76541137695312 307.84375 C 61.84249877929688 319.5239868164062 66.99110412597656 331.0514526367188 71.50541687011719 343.0849914550781 C 82.1390380859375 371.4304504394531 88.96833801269531 400.7856140136719 94.45571899414062 424.3728332519531 C 97.45834350585938 437.2792358398438 100.0514221191406 448.4254760742188 102.5591888427734 456.2044677734375 C 103.8641815185547 460.2523803710938 105.0719604492188 463.1675415039062 106.2516479492188 465.1166076660156 C 107.3669586181641 466.9592895507812 108.4259567260742 467.8936157226562 109.3992614746094 467.8936157226562 C 115.203727722168 467.8936157226562 119.775032043457 466.6089172363281 123.3744964599609 463.966064453125 C 126.8056488037109 461.4468383789062 129.5095825195312 457.5663757324219 131.6407165527344 452.1028442382812 C 133.573486328125 447.1479187011719 135.1201171875 440.7309875488281 136.5081176757812 431.9082336425781 C 137.7851867675781 423.7904663085938 138.8217163085938 414.4072265625 140.0218811035156 403.5423889160156 C 142.4218139648438 381.8166809082031 145.4086456298828 354.7783813476562 152.0737915039062 322.4962158203125 C 155.6880340576172 304.9909973144531 160.1097259521484 287.3843078613281 165.2160339355469 270.1653137207031 C 171.1141052246094 250.2763824462891 178.169189453125 230.067138671875 186.1852722167969 210.0989990234375 C 190.9554901123047 198.21630859375 193.8578796386719 187.580078125 195.0581817626953 177.5826110839844 C 196.1481018066406 168.5046081542969 195.8154144287109 160 194.0409545898438 151.5829162597656 C 192.5089569091797 144.31591796875 189.9276428222656 137.1079254150391 185.9174957275391 128.898681640625 C 182.3161010742188 121.5264587402344 177.9744262695312 114.1908416748047 173.3778076171875 106.4245300292969 C 165.8591918945312 93.72129821777344 157.3374176025391 79.3232421875 150.3468780517578 61.60324096679688 C 143.42041015625 44.0455322265625 137.4892578125 21.8304443359375 131.7533416748047 0.346771240234375 C 127.3541870117188 -16.13006591796875 123.1990356445312 -31.69314575195312 119.0824966430664 -43.095703125 C 116.8994216918945 -49.1427001953125 114.9016494750977 -53.54922485351562 112.9750366210938 -56.56707763671875 C 111.0154190063477 -59.63668823242188 109.1676483154297 -61.19308471679688 107.4831085205078 -61.19308471679688 M 107.4831390380859 -62.19308471679688 C 121.5798492431641 -62.19308471679688 133.542724609375 16.28182983398438 151.277099609375 61.23623657226562 C 175.0447998046875 121.4842224121094 215.1240386962891 140.6963806152344 187.1132659912109 210.4715270996094 C 118.9611129760742 380.2392272949219 158.3339538574219 468.8936157226562 109.3992614746094 468.8936157226562 C 98.76034545898438 468.8936157226562 93.02888488769531 403.3058471679688 70.56910705566406 343.4362182617188 C 48.10934448242188 283.5667724609375 19.56002807617188 262.2196960449219 19.56002807617188 229.4156188964844 C 19.56002807617188 114.0766906738281 54.58564758300781 120.5192260742188 92.04241943359375 -30.52053833007812 C 97.64271545410156 -53.10305786132812 102.6873779296875 -62.19308471679688 107.4831390380859 -62.19308471679688 Z" stroke="none" fill="#aaa"/>
      </g>
    </g>
  </g>
</svg>
