<svg xmlns="http://www.w3.org/2000/svg" width="171.275" height="117.733" viewBox="0 0 171.275 117.733">
  <path id="red-luxe_x" d="M569.593,356.817a61.732,61.732,0,0,1-23.343-5.907l-2.554-1.9q15.174,7.149,28.888,7.147,25.53,0,48.944-26.331l.292-.22-2.406.144c-.245,0-.365-.289-.365-.874v-.437a4.966,4.966,0,0,1,2.407-1.24,16.121,16.121,0,0,0,2.847-1.824q3.717-3.723,14.8-20.861l1.6-2.482-.144-.365a15.084,15.084,0,0,0-4.159-2.7l2.117-.874-1.459-2.262q-5.106-7.95-12.548-18.891c-.827-.878-1.485-1.6-1.969-2.19-1.264-.339-1.947-1.022-2.041-2.041.047-.488.217-.73.509-.73q1.458,0,4.412.217t4.415.22h10.137a.906.906,0,0,1,.293.658q0,.873-1.46,1.311-4.372.657-4.082,2.334.434,2.553,8.169,14.882l.657-3.722q.217.879.654,3.794a14.966,14.966,0,0,0,.806,3.064l.365.437,11.886-17.215a1.4,1.4,0,0,0,.293-.654q0-1.458-4.668-2.482-1.312-.217-1.969-.293c-1.023-.437-1.532-.874-1.532-1.312,0-.292.34-.585,1.022-.874H659.9l2.626-.365,2.992-4.086q10.063-13.711,18.819-20.572,10.5-8.1,21.226-8.1a28.688,28.688,0,0,1,6.929.8l2.482,1.171a31.341,31.341,0,0,0-8.389-1.171q-21.52,0-41.942,30.637l-.73,1.1,1.969-.293a8.86,8.86,0,0,1,.438,1.023,2.8,2.8,0,0,1-.365,1.094,27.47,27.47,0,0,1-2.479,1.24,5.539,5.539,0,0,0-1.9,1.969l-13.5,18.967-1.094,1.532,1.6.947a16.49,16.49,0,0,0,2.334.95l-2.334,1.311v.072q13.787,21.082,16.337,24.293a18.308,18.308,0,0,0,2.19,1.969q1.821,1.313,2.847,1.9c0,.047.021.242.072.582a.517.517,0,0,1-.585.585,30.8,30.8,0,0,1-3.866-.292,35.279,35.279,0,0,0-4.375-.221h-13.57a1.046,1.046,0,0,1-.437-.8,1.1,1.1,0,0,1,.292-.654c.2-.246.314-.365.365-.365a27.216,27.216,0,0,0,3.064-.657q4.009-1.1,3.793-2.19-.438-2.113-7.077-12.471l-3.136-4.889-.947,4.452a32.743,32.743,0,0,1-.513-3.649,15.36,15.36,0,0,0-.654-3.429l-.148-.293-9.263,13.35a28.245,28.245,0,0,0-3.5,6.275.981.981,0,0,0-.073.438q0,1.527,4.524,2.55a28.771,28.771,0,0,0,4.74.73l.946.072v1.532h-15.9l-1.167,1.387q-21.01,24.947-45.955,26.042-3.208.147-3.5.145Q572.368,356.962,569.593,356.817Z" transform="translate(-543.696 -239.229)" fill="#d9001c"/>
</svg>
