<svg xmlns="http://www.w3.org/2000/svg" width="700.468" height="117.733" viewBox="0 0 700.468 117.733">
  <g id="Group_5" data-name="Group 5" transform="translate(-70.516 -239.229)">
    <g id="Group_2" data-name="Group 2">
      <path id="Path_1" data-name="Path 1" d="M105.988,286.781c0,8.8-5.342,13.687-12.268,15.275l13.186,25.622h-3.463l-12.9-25.038H73.479v25.038H70.516V270.964h18.4C99.478,270.964,105.988,277.35,105.988,286.781ZM88.42,299.97c8.888,0,14.522-5.01,14.522-13.147,0-8.179-5.634-13.188-14.481-13.188H73.479V299.97Z" fill="#fff"/>
      <path id="Path_2" data-name="Path 2" d="M213.576,327.678H181.4V270.964h32.177v2.754H184.362v23.494h27.794v2.758H184.362v24.954h29.214Z" fill="#fff"/>
      <path id="Path_3" data-name="Path 3" d="M303.344,270.964c17.819,0,25.457,11.019,25.457,28.335,0,17.36-7.345,28.379-25.457,28.379H288.487V270.964Zm-11.894,53.96h11.936c15.733,0,22.41-9.891,22.41-25.625,0-15.607-6.843-25.581-22.41-25.581H291.45Z" fill="#fff"/>
      <path id="Path_4" data-name="Path 4" d="M435.716,327.678H404V270.964h2.965v54h28.753Z" fill="#fff"/>
      <path id="Path_5" data-name="Path 5" d="M509.212,308.148c0,10.933,6.134,18.028,17.191,18.028,11.185,0,17.2-7.054,17.2-18.028V270.964H546.6v37.309c0,12.479-7.3,20.74-20.2,20.74-12.852,0-20.156-8.261-20.156-20.74V270.964h2.965Z" fill="#fff"/>
      <path id="Path_6" data-name="Path 6" d="M770.984,327.678H738.809V270.964h32.175v2.754h-29.21v23.494h27.791v2.758H741.774v24.954h29.21Z" fill="#fff"/>
    </g>
    <g id="Group_3" data-name="Group 3">
      <path id="Path_7" data-name="Path 7" d="M569.593,356.817a61.732,61.732,0,0,1-23.343-5.907l-2.554-1.9q15.174,7.149,28.888,7.147,25.53,0,48.944-26.331l.292-.22-2.406.144c-.245,0-.365-.289-.365-.874v-.437a4.966,4.966,0,0,1,2.407-1.24,16.121,16.121,0,0,0,2.847-1.824q3.717-3.723,14.8-20.861l1.6-2.482-.144-.365a15.084,15.084,0,0,0-4.159-2.7l2.117-.874-1.459-2.262q-5.106-7.95-12.548-18.891c-.827-.878-1.485-1.6-1.969-2.19-1.264-.339-1.947-1.022-2.041-2.041.047-.488.217-.73.509-.73q1.458,0,4.412.217t4.415.22h10.137a.906.906,0,0,1,.293.658q0,.873-1.46,1.311-4.372.657-4.082,2.334.434,2.553,8.169,14.882l.657-3.722q.217.879.654,3.794a14.966,14.966,0,0,0,.806,3.064l.365.437,11.886-17.215a1.4,1.4,0,0,0,.293-.654q0-1.458-4.668-2.482-1.312-.217-1.969-.293c-1.023-.437-1.532-.874-1.532-1.312,0-.292.34-.585,1.022-.874H659.9l2.626-.365,2.992-4.086q10.063-13.711,18.819-20.572,10.5-8.1,21.226-8.1a28.688,28.688,0,0,1,6.929.8l2.482,1.171a31.341,31.341,0,0,0-8.389-1.171q-21.52,0-41.942,30.637l-.73,1.1,1.969-.293a8.86,8.86,0,0,1,.438,1.023,2.8,2.8,0,0,1-.365,1.094,27.47,27.47,0,0,1-2.479,1.24,5.539,5.539,0,0,0-1.9,1.969l-13.5,18.967-1.094,1.532,1.6.947a16.49,16.49,0,0,0,2.334.95l-2.334,1.311v.072q13.787,21.082,16.337,24.293a18.308,18.308,0,0,0,2.19,1.969q1.821,1.313,2.847,1.9c0,.047.021.242.072.582a.517.517,0,0,1-.585.585,30.8,30.8,0,0,1-3.866-.292,35.279,35.279,0,0,0-4.375-.221h-13.57a1.046,1.046,0,0,1-.437-.8,1.1,1.1,0,0,1,.292-.654c.2-.246.314-.365.365-.365a27.216,27.216,0,0,0,3.064-.657q4.009-1.1,3.793-2.19-.438-2.113-7.077-12.471l-3.136-4.889-.947,4.452a32.743,32.743,0,0,1-.513-3.649,15.36,15.36,0,0,0-.654-3.429l-.148-.293-9.263,13.35a28.245,28.245,0,0,0-3.5,6.275.981.981,0,0,0-.073.438q0,1.527,4.524,2.55a28.771,28.771,0,0,0,4.74.73l.946.072v1.532h-15.9l-1.167,1.387q-21.01,24.947-45.955,26.042-3.208.147-3.5.145Q572.368,356.962,569.593,356.817Z" fill="#d9001c"/>
    </g>
  </g>
</svg>
