<svg xmlns="http://www.w3.org/2000/svg" width="220.761" height="120.458" viewBox="0 0 220.761 120.458">
  <g id="undraw_teacher_35j2_1_" data-name="undraw_teacher_35j2 (1)" transform="translate(0 -0.035)" style="isolation: isolate">
    <path id="Path_10" data-name="Path 10" d="M243.422,248.048a36.194,36.194,0,0,1-3.15,6.058,26.059,26.059,0,0,1-1.908,2.624.137.137,0,0,1-.021.023H25l.029-.023c.192-.15,1.319-1.062,3.071-2.624,1.257-1.119,2.835-2.574,4.607-4.325,14.492-14.254,42.329-47.992,19.145-78.9-21.552-28.732,1.653-33.945,16.96-34.554a43.732,43.732,0,0,1,17.25,2.82,153.262,153.262,0,0,0,36.837,8.7c.553.061,1.11.123,1.674.179a161.271,161.271,0,0,0,26.833.488h0c.263-.015.528-.035.795-.054a159.45,159.45,0,0,0,26.246-4.06c.559-.136,1.11-.265,1.659-.394,28.724-6.646,55.2,16,48.583,41.6-2.448,9.468-1.826,19.56,6.335,27.724C248.384,226.655,246.766,239.78,243.422,248.048Z" transform="translate(-25 -136.26)" fill="#ffe9e8"/>
    <path id="Path_11" data-name="Path 11" d="M243.543,704.833a36.2,36.2,0,0,1-3.15,6.058,26.066,26.066,0,0,1-1.908,2.624H25.15c.192-.15,1.319-1.062,3.071-2.624,1.257-1.119,2.835-2.574,4.607-4.325l22.485-4.646a4.37,4.37,0,0,1,.883-.09l23.971-.035h.025l11.873-.015h.027l10.021-.012h13.278l27.532-.038H154.77l4.728-.054h1.563l13.753-.019h6.5l15.885-.021h4.73l15.046-.021,12.7-.015a4.5,4.5,0,0,1,1.05.125Z" transform="translate(-25.121 -593.045)" fill="#454b69"/>
    <path id="Path_12" data-name="Path 12" d="M28.221,750H240.393a26.08,26.08,0,0,1-1.908,2.624H25.15C25.338,752.465,26.465,751.553,28.221,750Z" transform="translate(-25.121 -632.154)" fill="none"/>
    <path id="Path_13" data-name="Path 13" d="M28.221,750H240.393a26.08,26.08,0,0,1-1.908,2.624H25.15C25.338,752.465,26.465,751.553,28.221,750Z" transform="translate(-25.121 -632.154)" opacity="0.4"/>
    <path id="Path_14" data-name="Path 14" d="M527.149,206.82l-.426.083-19.266,3.7c-5.6,1.075-11.272,2.156-16.956,1.743-4.118-.3-7.965-1.52-11.921-2.592-2.236-.607-4.607-.848-5.365-3.352-1.046-3.455.657-8.571,1.058-12.073a33.681,33.681,0,0,0-.073-10.355,18.406,18.406,0,0,0-.6-2.254c-.685-2.033-1.762-4.146-1.181-6.21.459-1.637,1.858-2.807,3.168-3.889,2.565-2.112,5.183-4.479,6.2-7.644.5-1.536.593-3.189,1.131-4.713a11.006,11.006,0,0,1,6.429-6.214,24.157,24.157,0,0,1,9.055-1.392,61.344,61.344,0,0,1,8.111.539,23.235,23.235,0,0,1,8.475,2.471,10.543,10.543,0,0,1,5.352,6.746c.85,4.11-1.511,8.487-.244,12.478.637,2.018,2.112,3.647,3.135,5.494a13.086,13.086,0,0,1,.96,10.174c-1.225,3.8-4.223,7.635-2.687,11.315.977,2.34,3.473,3.59,5.212,5.444Q526.948,206.57,527.149,206.82Z" transform="translate(-386.396 -148.675)" fill="#454b69"/>
    <path id="Path_15" data-name="Path 15" d="M529.359,304.383v.566l-19.266,3.7c-5.6,1.075-11.272,2.156-16.956,1.743-4.118-.3-7.965-1.52-11.921-2.592-2.236-.607-4.607-.848-5.365-3.352-1.046-3.455.657-8.571,1.058-12.073.384-3.436,6.295-15.981,5.611-19.377l35.322,1.536c.238,1.875,9.573,11.29,8.992,13.088-1.225,3.8-4.223,7.635-2.687,11.315C525.124,301.279,527.62,302.528,529.359,304.383Z" transform="translate(-389.031 -246.722)" opacity="0.1"/>
    <path id="Path_16" data-name="Path 16" d="M519.682,339.488a5.225,5.225,0,0,1-.286,3.532c-.808,1.39-2.57,1.833-4.146,2.148l-5.471,1.094a2.124,2.124,0,0,0-1.046.415,1.83,1.83,0,0,0-.488,1.2,13.74,13.74,0,0,0,1.119,5.82c1.292,3.822,2.377,7.725,4.01,11.412a24.478,24.478,0,0,0,7.076,9.673,13.683,13.683,0,0,0,11.353,2.814c3.413-.839,6.212-3.248,8.625-5.8a20.877,20.877,0,0,0,4.818-7.155,25.474,25.474,0,0,0,1.092-5.87l.971-9.13c.152-1.428.252-3.035-.676-4.131a4.92,4.92,0,0,0-1.524-1.1,62.553,62.553,0,0,1-6.266-3.381,10.05,10.05,0,0,1-4.281-5.49c-.355-1.378-.292-2.88-.9-4.164a5.622,5.622,0,0,0-3.647-2.843,12.441,12.441,0,0,0-4.738-.192c-1.582.179-7.679.635-8.333,2.419-.351.96,1.106,3.02,1.451,3.964A27.674,27.674,0,0,1,519.682,339.488Z" transform="translate(-415.445 -291.325)" fill="#efb7b9"/>
    <path id="Path_17" data-name="Path 17" d="M519.682,339.488a5.225,5.225,0,0,1-.286,3.532c-.808,1.39-2.57,1.833-4.146,2.148l-5.471,1.094a2.124,2.124,0,0,0-1.046.415,1.83,1.83,0,0,0-.488,1.2,13.74,13.74,0,0,0,1.119,5.82c1.292,3.822,2.377,7.725,4.01,11.412a24.478,24.478,0,0,0,7.076,9.673,13.683,13.683,0,0,0,11.353,2.814c3.413-.839,6.212-3.248,8.625-5.8a20.877,20.877,0,0,0,4.818-7.155,25.474,25.474,0,0,0,1.092-5.87l.971-9.13c.152-1.428.252-3.035-.676-4.131a4.92,4.92,0,0,0-1.524-1.1,62.553,62.553,0,0,1-6.266-3.381,10.05,10.05,0,0,1-4.281-5.49c-.355-1.378-.292-2.88-.9-4.164a5.622,5.622,0,0,0-3.647-2.843,12.441,12.441,0,0,0-4.738-.192c-1.582.179-7.679.635-8.333,2.419-.351.96,1.106,3.02,1.451,3.964A27.674,27.674,0,0,1,519.682,339.488Z" transform="translate(-415.445 -291.325)" opacity="0.1"/>
    <path id="Path_18" data-name="Path 18" d="M522.341,416.418l3.208-6.792c1.5-3.183,3.039-6.527,2.88-10.042-.031-.7-.038-1.572.576-1.889a1.647,1.647,0,0,1,.843-.108,34.093,34.093,0,0,1,9.888,2,3.924,3.924,0,0,1,1.68.971,4.01,4.01,0,0,1,.754,1.785,52.133,52.133,0,0,1,1.1,6.5,102.679,102.679,0,0,1,0,16.317l-.852,16.592a1.585,1.585,0,0,1-.14.683,1.475,1.475,0,0,1-1.115.586,24.219,24.219,0,0,1-5,.161c-11.748-.445-23.558-1.129-35.23.3q.079-2.59-.083-5.183c-.463-7.466-2.4-14.749-4.3-21.982-1.108-4.223-2.181-8.83-.4-12.81a5.488,5.488,0,0,1,1.112-1.693,6.316,6.316,0,0,1,2.818-1.415,17.936,17.936,0,0,1,5.431-.614l12.1,26.351c.553,1.206,1.008,2.474,1.559,3.665.5-2.056-.1-4.465.5-6.694A42.154,42.154,0,0,1,522.341,416.418Z" transform="translate(-404.936 -347.381)" fill="#fff"/>
    <path id="Path_19" data-name="Path 19" d="M462.786,432.644a7.551,7.551,0,0,0,5.759-2.542,17.8,17.8,0,0,0,3.3-5.567,54.9,54.9,0,0,0,2.839-8.852,21.364,21.364,0,0,0,.587-7.842c-.549-3.6-2.586-6.87-2.933-10.495a1.915,1.915,0,0,1,.488-1.757,2.026,2.026,0,0,1,1.121-.292c3.62-.215,7.6-.175,10.4,2.123.854.7,1.547,1.572,2.382,2.292,1.989,1.728,4.8,2.607,6.076,4.9a17,17,0,0,1,.969,2.563,23.578,23.578,0,0,0,3.263,5.584c-1.223,5.16-2.628,10.324-3.851,15.484a67.708,67.708,0,0,1-2.563,8.965c-.737,1.9-1.664,3.839-1.438,5.874a13.416,13.416,0,0,0,.589,2.338,26.876,26.876,0,0,1,1.131,8.356l-54.776.134c2.624-3.763,3.394-8.377,3.127-12.956a14.157,14.157,0,0,0-1.728-6.3c-1.739-2.975-4.8-4.914-7.815-6.575-2.112-1.152-4.379,5.329-6.661,4.586a149.418,149.418,0,0,0,.384-15.294,7.008,7.008,0,0,1,.138-2.565c.18-.562.513-1.065.737-1.613.9-2.19.042-4.991,1.5-6.855,1.006-1.3,2.77-1.664,4.2-2.463a25.258,25.258,0,0,0,3.893-3.214,17.313,17.313,0,0,1,8.861-3.956,11.161,11.161,0,0,1,1.691,4.991c.1,1.115.027,2.246.182,3.356a16.522,16.522,0,0,0,1.451,4.3,156.333,156.333,0,0,0,8.395,17.05,18.06,18.06,0,0,0,3.252,4.267A7.431,7.431,0,0,0,462.786,432.644Z" transform="translate(-346.646 -345.476)" fill="#d70900"/>
    <path id="Path_20" data-name="Path 20" d="M462.786,432.644a7.551,7.551,0,0,0,5.759-2.542,17.8,17.8,0,0,0,3.3-5.567,54.9,54.9,0,0,0,2.839-8.852,21.364,21.364,0,0,0,.587-7.842c-.549-3.6-2.586-6.87-2.933-10.495a1.915,1.915,0,0,1,.488-1.757,2.026,2.026,0,0,1,1.121-.292c3.62-.215,7.6-.175,10.4,2.123.854.7,1.547,1.572,2.382,2.292,1.989,1.728,4.8,2.607,6.076,4.9a17,17,0,0,1,.969,2.563,23.578,23.578,0,0,0,3.263,5.584c-1.223,5.16-2.628,10.324-3.851,15.484a67.708,67.708,0,0,1-2.563,8.965c-.737,1.9-1.664,3.839-1.438,5.874a13.416,13.416,0,0,0,.589,2.338,26.876,26.876,0,0,1,1.131,8.356l-54.776.134c2.624-3.763,3.394-8.377,3.127-12.956a14.157,14.157,0,0,0-1.728-6.3c-1.739-2.975-4.8-4.914-7.815-6.575-2.112-1.152-4.379,5.329-6.661,4.586a149.418,149.418,0,0,0,.384-15.294,7.008,7.008,0,0,1,.138-2.565c.18-.562.513-1.065.737-1.613.9-2.19.042-4.991,1.5-6.855,1.006-1.3,2.77-1.664,4.2-2.463a25.258,25.258,0,0,0,3.893-3.214,17.313,17.313,0,0,1,8.861-3.956,11.161,11.161,0,0,1,1.691,4.991c.1,1.115.027,2.246.182,3.356a16.522,16.522,0,0,0,1.451,4.3,156.333,156.333,0,0,0,8.395,17.05,18.06,18.06,0,0,0,3.252,4.267A7.431,7.431,0,0,0,462.786,432.644Z" transform="translate(-346.646 -345.476)" opacity="0.1"/>
    <circle id="Ellipse_10" data-name="Ellipse 10" cx="16.455" cy="16.455" r="16.455" transform="translate(96.788 14.816)" fill="#efb7b9"/>
    <path id="Path_21" data-name="Path 21" d="M515.051,219.143c.451-4.258-1.319-8.424-3.323-12.207a24.6,24.6,0,0,1-2.471-5.6,7.05,7.05,0,0,1,.889-5.87c1.048-1.39,2.711-2.14,4.248-2.956,4.34-2.3,8.308-5.69,10.216-10.218-1.079.587-.8,2.34.154,3.114a9.854,9.854,0,0,0,3.421,1.292c4.269,1.344,6.83,5.6,8.884,9.579a4.578,4.578,0,0,1,.674,2.066,4.191,4.191,0,0,1-.687,2c-1.014,1.8-2.254,3.538-2.714,5.556a13.407,13.407,0,0,0,.753,6.986,14.959,14.959,0,0,0,3.63,6.55c1.843,1.724,4.7,2.58,6.968,1.467-2.263-3.891-4.607-8.239-3.724-12.651.426-2.112,1.572-4.031,2.06-6.131.929-4.006-.618-8.128-2.137-11.952l-4.538-11.412c-.693-1.745-1.482-3.607-3.071-4.6a8.318,8.318,0,0,0-3.636-.96,26.17,26.17,0,0,0-12.029,1.267c-6.876,2.747-11.188,9.52-14.609,16.089-1.025,1.968-2.037,4.058-1.995,6.277a17.421,17.421,0,0,0,.639,3.588c1.125,4.83,1.186,9.834,1.244,14.793.044,3.8-.154,7.391-1.818,10.856,2.281.453,5.588,1.676,7.846.781C512.868,225.689,514.68,222.1,515.051,219.143Z" transform="translate(-410.443 -165.943)" fill="#454b69"/>
    <g id="Group_21" data-name="Group 21" transform="translate(91.562 16.046)" opacity="0.1">
      <path id="Path_22" data-name="Path 22" d="M503.85,311.169q.012-.812,0-1.639c-.058-4.958-.119-9.963-1.244-14.793a24.963,24.963,0,0,1-.587-2.856,7.47,7.47,0,0,0-.052,1,17.418,17.418,0,0,0,.639,3.588C503.725,301.265,503.794,306.239,503.85,311.169Z" transform="translate(-501.966 -278.024)"/>
      <path id="Path_23" data-name="Path 23" d="M711.405,310.171a11.62,11.62,0,0,0,.25-3.421,10.687,10.687,0,0,1-.25,1.693c-.488,2.112-1.634,4.014-2.06,6.131a10.174,10.174,0,0,0-.154,2.837,10.05,10.05,0,0,1,.154-1.11C709.771,314.185,710.917,312.275,711.405,310.171Z" transform="translate(-669.381 -290.039)"/>
      <path id="Path_24" data-name="Path 24" d="M567,235.173a2.764,2.764,0,0,0,.15-.847,4.626,4.626,0,0,0-.674-2.066c-2.054-3.978-4.607-8.232-8.884-9.579a9.867,9.867,0,0,1-3.421-1.292,2.434,2.434,0,0,1-.841-1.689,22.754,22.754,0,0,1-9.529,8.794c-1.536.816-3.2,1.566-4.248,2.956a6.549,6.549,0,0,0-1.1,4.648,5.878,5.878,0,0,1,1.1-2.92c1.048-1.39,2.711-2.14,4.248-2.956a22.754,22.754,0,0,0,9.529-8.794,2.434,2.434,0,0,0,.841,1.689,10.028,10.028,0,0,0,3.421,1.292c4.269,1.344,6.83,5.6,8.884,9.579a7.561,7.561,0,0,1,.524,1.184Z" transform="translate(-531.412 -219.7)"/>
      <path id="Path_25" data-name="Path 25" d="M673.935,360.658a15.02,15.02,0,0,1-3.63-6.55,18.961,18.961,0,0,1-.921-4.168,15.179,15.179,0,0,0,.921,5.9,14.961,14.961,0,0,0,3.63,6.55c1.843,1.724,4.7,2.58,6.968,1.467-.273-.466-.543-.941-.812-1.419A6.723,6.723,0,0,1,673.935,360.658Z" transform="translate(-637.215 -324.938)"/>
      <path id="Path_26" data-name="Path 26" d="M515.3,402.123c-.371,2.962-2.183,6.546-5.133,7.717-2.048.812-4.964-.121-7.189-.637a16.636,16.636,0,0,1-.656,1.584c2.281.453,5.588,1.676,7.846.781,2.951-1.171,4.763-4.755,5.133-7.717a13.347,13.347,0,0,0,.042-2.231C515.33,401.787,515.312,401.956,515.3,402.123Z" transform="translate(-502.252 -366.697)"/>
    </g>
    <path id="Path_27" data-name="Path 27" d="M633.867,648.088c-2.966-.47-5.976-1.378-8.917-.768a12.4,12.4,0,0,0-4.68,2.227,5.389,5.389,0,0,1,2.872,3.943,16.126,16.126,0,0,1,.672,3.525,5.365,5.365,0,0,1-.906,3.411c3.74.369,7.364-.553,11.011-1.453a3.016,3.016,0,0,0,1.165-.47,2.5,2.5,0,0,0,.749-1.995,13.655,13.655,0,0,0-.743-3.853C634.644,651.144,634.314,649.589,633.867,648.088Z" transform="translate(-505.998 -549.02)" fill="#fff"/>
    <path id="Path_28" data-name="Path 28" d="M700.371,482.995a5.411,5.411,0,0,1,3.455,2.6c2.359,3.4,3.377,7.517,4.509,11.5a153.032,153.032,0,0,0,4.966,14.612,22,22,0,0,0,1.49,3.206,8.967,8.967,0,0,1,1.259,2.455c.507,2.177-1.288,4.223-3.16,5.436a12.506,12.506,0,0,1-3.235,1.559,19.271,19.271,0,0,1-3.44.587L695.56,526.1c-4.9.534-9.854,1.067-14.76.553-.309-1.075.3-1.835.253-2.954a6.6,6.6,0,0,0-.7-2.283,14.589,14.589,0,0,1-1.138-4.129,5.6,5.6,0,0,0-.274-1.549,1.452,1.452,0,0,0-1.152-.96c2.88-.286,5.066-.829,7.946-1.117a7.093,7.093,0,0,0,3.093-.8,6.444,6.444,0,0,0,2.267-3.208,16.969,16.969,0,0,0,1.394-9.648c-.538-2.651-2.037-5.12-2.029-7.825a11.708,11.708,0,0,1,1.2-4.646,7.68,7.68,0,0,1,3.093-3.943A10.474,10.474,0,0,1,700.371,482.995Z" transform="translate(-552.476 -416.306)" fill="#d70900"/>
    <path id="Path_29" data-name="Path 29" d="M700.371,482.995a5.411,5.411,0,0,1,3.455,2.6c2.359,3.4,3.377,7.517,4.509,11.5a153.032,153.032,0,0,0,4.966,14.612,22,22,0,0,0,1.49,3.206,8.967,8.967,0,0,1,1.259,2.455c.507,2.177-1.288,4.223-3.16,5.436a12.506,12.506,0,0,1-3.235,1.559,19.271,19.271,0,0,1-3.44.587L695.56,526.1c-4.9.534-9.854,1.067-14.76.553-.309-1.075.3-1.835.253-2.954a6.6,6.6,0,0,0-.7-2.283,14.589,14.589,0,0,1-1.138-4.129,5.6,5.6,0,0,0-.274-1.549,1.452,1.452,0,0,0-1.152-.96c2.88-.286,5.066-.829,7.946-1.117a7.093,7.093,0,0,0,3.093-.8,6.444,6.444,0,0,0,2.267-3.208,16.969,16.969,0,0,0,1.394-9.648c-.538-2.651-2.037-5.12-2.029-7.825a11.708,11.708,0,0,1,1.2-4.646,7.68,7.68,0,0,1,3.093-3.943A10.474,10.474,0,0,1,700.371,482.995Z" transform="translate(-552.476 -416.306)" opacity="0.08"/>
    <path id="Path_30" data-name="Path 30" d="M441.713,345.315a13.952,13.952,0,0,0,1.424-5.158,17.879,17.879,0,0,0-1.371-5.627,32.534,32.534,0,0,1-1.48-6.947.96.96,0,0,1,.1-.666,1.145,1.145,0,0,1,.737-.33,5.98,5.98,0,0,0,3.162-2.457,26.942,26.942,0,0,0,3.237-5.406c.635-1.415,1.5-3.141,3.047-3.154a88.009,88.009,0,0,1-2.319,8.686c1.622-.415,3.164-1.017,4.786-1.432a2.866,2.866,0,0,1,.983-.131,1.483,1.483,0,0,1,1,2.213c.793.929,2.112,1.179,3.148,1.816s1.781,2.215.86,3.016a2.569,2.569,0,0,0-.539.465c-.445.687.645,1.476.555,2.29-.073.666-.927.977-1.574.8a7.083,7.083,0,0,1-1.728-1.016,1.807,1.807,0,0,0-1.887-.207,15.071,15.071,0,0,1-1.092,5.293c-.286.6-.653,1.163-.883,1.787a8.8,8.8,0,0,0-.407,2.1l-.7,6.371A11.289,11.289,0,0,1,441.713,345.315Z" transform="translate(-360.548 -281.12)" fill="#efb7b9"/>
    <path id="Path_31" data-name="Path 31" d="M440.59,466.955l-.612-4.145a5.061,5.061,0,0,1,.733-3.77,25.235,25.235,0,0,0,10.789,2.146,1.685,1.685,0,0,0,1.363-.432,3.128,3.128,0,0,1,.384,2.837c-.271.929-.791,1.766-1.136,2.672a3.81,3.81,0,0,1-.651,1.313,2.809,2.809,0,0,1-2.123.651,13.576,13.576,0,0,1-2.4-.228C444.894,467.619,442.637,466.588,440.59,466.955Z" transform="translate(-360.237 -397.048)" fill="#fff"/>
    <path id="Path_32" data-name="Path 32" d="M430.816,490.995q-3.945-.449-7.838-1.267a15.852,15.852,0,0,0-3.855-.513,4.629,4.629,0,0,1-2.5-.215,12.016,12.016,0,0,1-.1,7.475c-.513,1.44-1.294,2.782-1.67,4.264-.783,3.1.292,6.481-.687,9.525a2.412,2.412,0,0,1-.591,1.06c-.3.275-.708.417-.985.714a2.438,2.438,0,0,0-.434,1.693l-.017,5.289c-.012,3.367.033,6.938,1.81,9.79a9.3,9.3,0,0,0,10.009,3.962,7.44,7.44,0,0,0,2.718-1.33,12.69,12.69,0,0,0,2.916-3.951,16.949,16.949,0,0,0,2.229-5.438,15.452,15.452,0,0,0-.061-4.166c-.868-7.679-2.751-15.292-2.346-23A6.97,6.97,0,0,1,430.816,490.995Z" transform="translate(-337.825 -421.257)" fill="#d70900"/>
    <path id="Path_33" data-name="Path 33" d="M468.94,661.793a23.258,23.258,0,0,1-4.006,0c-.96-.115-1.9-.351-2.849-.513a18.258,18.258,0,0,0-14.7,4.085c-.737.63-1.482,1.6-1.075,2.476.438.948,1.776.921,2.807.745a8.446,8.446,0,0,0-2.88,2.252,1.7,1.7,0,0,0-.5,1.223c.117.95,1.407,1.123,2.361,1.04a.8.8,0,0,0,.294,1.152,1.969,1.969,0,0,0,1.334.1,9.888,9.888,0,0,0,2.833-.981,1.08,1.08,0,0,0,.576,1.255,2.372,2.372,0,0,0,1.48.136c2.346-.384,4.3-2.016,6.592-2.657,3.659-1.023,7.487.609,11.29.724a7.877,7.877,0,0,0,3.5-.576c1.33-.6,2.4-1.739,3.809-2.142,1.561-.445,3.352.067,4.78-.7,1.039-.559.1-4.864-.163-5.694-.486-1.517-.973-2.523-2.592-2.676C477.724,660.637,473.065,661.555,468.94,661.793Z" transform="translate(-364.957 -560.189)" fill="#efb7b9"/>
    <path id="Path_34" data-name="Path 34" d="M619.88,656.256s6.2,5.246,2.622,10.971l6.911-2.386v-5.008c0-.238-2.624-3.814-2.624-3.814l-3.1-.478Z" transform="translate(-505.683 -555.827)" fill="#fff"/>
    <path id="Path_35" data-name="Path 35" d="M236.589,521.32h2.325a4.8,4.8,0,0,1,4.8,4.8v7.124H231.79v-7.124A4.8,4.8,0,0,1,236.589,521.32Z" transform="translate(-187.294 -421.215)" fill="#3f3d56"/>
    <path id="Path_36" data-name="Path 36" d="M236.589,521.32h2.325a4.8,4.8,0,0,1,4.8,4.8v7.124H231.79v-7.124A4.8,4.8,0,0,1,236.589,521.32Z" transform="translate(-187.294 -421.215)" opacity="0.1"/>
    <circle id="Ellipse_11" data-name="Ellipse 11" cx="0.954" cy="0.954" r="0.954" transform="translate(49.026 100.819)" fill="#3f3d56"/>
    <circle id="Ellipse_12" data-name="Ellipse 12" cx="0.954" cy="0.954" r="0.954" transform="translate(49.026 99.627)" fill="#3f3d56"/>
    <circle id="Ellipse_13" data-name="Ellipse 13" cx="0.954" cy="0.954" r="0.954" transform="translate(49.026 98.435)" fill="#3f3d56"/>
    <circle id="Ellipse_14" data-name="Ellipse 14" cx="0.954" cy="0.954" r="0.954" transform="translate(49.026 97.242)" fill="#3f3d56"/>
    <circle id="Ellipse_15" data-name="Ellipse 15" cx="0.954" cy="0.954" r="0.954" transform="translate(49.026 96.05)" fill="#3f3d56"/>
    <circle id="Ellipse_16" data-name="Ellipse 16" cx="0.954" cy="0.954" r="0.954" transform="translate(49.026 94.858)" fill="#3f3d56"/>
    <circle id="Ellipse_17" data-name="Ellipse 17" cx="0.954" cy="0.954" r="0.954" transform="translate(49.026 93.664)" fill="#3f3d56"/>
    <circle id="Ellipse_18" data-name="Ellipse 18" cx="0.954" cy="0.954" r="0.954" transform="translate(50.458 94.142)" fill="#3f3d56"/>
    <circle id="Ellipse_19" data-name="Ellipse 19" cx="0.954" cy="0.954" r="0.954" transform="translate(51.413 93.664)" fill="#3f3d56"/>
    <circle id="Ellipse_20" data-name="Ellipse 20" cx="0.954" cy="0.954" r="0.954" transform="translate(52.367 93.188)" fill="#3f3d56"/>
    <circle id="Ellipse_21" data-name="Ellipse 21" cx="0.954" cy="0.954" r="0.954" transform="translate(49.026 92.472)" fill="#3f3d56"/>
    <circle id="Ellipse_22" data-name="Ellipse 22" cx="0.954" cy="0.954" r="0.954" transform="translate(49.026 91.28)" fill="#3f3d56"/>
    <circle id="Ellipse_23" data-name="Ellipse 23" cx="0.954" cy="0.954" r="0.954" transform="translate(49.026 90.088)" fill="#3f3d56"/>
    <circle id="Ellipse_24" data-name="Ellipse 24" cx="0.954" cy="0.954" r="0.954" transform="translate(49.026 88.896)" fill="#3f3d56"/>
    <path id="Path_37" data-name="Path 37" d="M272.263,573.968q-.357.052-.714.075a5.489,5.489,0,0,0,.614-.63,4.031,4.031,0,0,0-.576-1.119,1.96,1.96,0,0,1-.768.242c-.236.035-.474.06-.712.077a11.882,11.882,0,0,0,.912-.96,4.051,4.051,0,1,0,1.33,3,3.969,3.969,0,0,0-.061-.7Z" transform="translate(-218.321 -487.196)" fill="#d70900"/>
    <path id="Path_38" data-name="Path 38" d="M306.578,610.853a1.851,1.851,0,0,1-.8.267c-.236.035-.474.061-.712.077a6.993,6.993,0,0,0,.706-.733,2.388,2.388,0,1,0,.808.384Z" transform="translate(-249.455 -519.34)" fill="#d70900"/>
    <circle id="Ellipse_25" data-name="Ellipse 25" cx="0.954" cy="0.954" r="0.954" transform="translate(47.596 94.142)" fill="#3f3d56"/>
    <circle id="Ellipse_26" data-name="Ellipse 26" cx="0.954" cy="0.954" r="0.954" transform="translate(46.642 93.664)" fill="#3f3d56"/>
    <circle id="Ellipse_27" data-name="Ellipse 27" cx="0.954" cy="0.954" r="0.954" transform="translate(45.688 93.188)" fill="#3f3d56"/>
    <path id="Path_39" data-name="Path 39" d="M244.045,610.853a1.852,1.852,0,0,0,.8.267c.236.035.474.061.712.077a6.8,6.8,0,0,1-.706-.733,2.388,2.388,0,1,1-.808.384Z" transform="translate(-201.206 -519.341)" fill="#d70900"/>
    <path id="Path_40" data-name="Path 40" d="M236.565,525h2.325a4.8,4.8,0,0,1,4.8,4.8v6.31a.814.814,0,0,1-.814.814h-10.3a.814.814,0,0,1-.814-.814V529.8a4.8,4.8,0,0,1,4.8-4.8Z" transform="translate(-187.27 -424.189)" fill="#3f3d56"/>
    <g id="Group_22" data-name="Group 22" transform="translate(45.984 83.462)" opacity="0.1">
      <path id="Path_41" data-name="Path 41" d="M305.047,589.49a3.611,3.611,0,0,1-.307.292,3.132,3.132,0,0,0,.326-.029C305.062,589.665,305.057,589.576,305.047,589.49Z" transform="translate(-297.023 -585.918)"/>
      <path id="Path_42" data-name="Path 42" d="M297.28,580.2c.24-.015.476-.04.714-.075a2.3,2.3,0,0,0,.62-.169,4.213,4.213,0,0,0-.334-.551,1.444,1.444,0,0,1-.384.163A5.52,5.52,0,0,1,297.28,580.2Z" transform="translate(-290.995 -577.773)"/>
      <path id="Path_43" data-name="Path 43" d="M264.96,575.364a4.047,4.047,0,0,1,6.239-3.409l.061-.065a4.05,4.05,0,1,0-5.341,6.091,4.032,4.032,0,0,1-.96-2.617Z" transform="translate(-264.54 -570.885)"/>
    </g>
    <g id="Group_23" data-name="Group 23" transform="translate(53.321 91.042)" opacity="0.1">
      <path id="Path_44" data-name="Path 44" d="M314.68,613.615c.238-.015.476-.04.712-.075a1.854,1.854,0,0,0,.8-.269,2.386,2.386,0,0,1,.96,1.689,2.184,2.184,0,0,0,.013-.251,2.377,2.377,0,0,0-.96-1.92,1.851,1.851,0,0,1-.8.267l-.192.025A4.866,4.866,0,0,1,314.68,613.615Z" transform="translate(-312.392 -612.326)"/>
      <path id="Path_45" data-name="Path 45" d="M305.144,610.846a1.965,1.965,0,0,1,.238.017c.125-.132.248-.275.372-.413a2.38,2.38,0,0,0-2.995,2.3,1.638,1.638,0,0,0,.012.238A2.384,2.384,0,0,1,305.144,610.846Z" transform="translate(-302.76 -610.37)"/>
    </g>
    <g id="Group_24" data-name="Group 24" transform="translate(41.866 91.042)" opacity="0.1">
      <path id="Path_46" data-name="Path 46" d="M245.578,613.615c-.238-.015-.476-.04-.712-.075a1.854,1.854,0,0,1-.8-.269,2.386,2.386,0,0,0-.96,1.689,2.187,2.187,0,0,1-.013-.251,2.377,2.377,0,0,1,.96-1.92,1.851,1.851,0,0,0,.8.267l.192.025A4.545,4.545,0,0,0,245.578,613.615Z" transform="translate(-243.09 -612.326)"/>
      <path id="Path_47" data-name="Path 47" d="M252.98,610.846a2.01,2.01,0,0,0-.24.017c-.123-.132-.246-.274-.37-.413a2.38,2.38,0,0,1,2.995,2.3,1.634,1.634,0,0,1-.012.238,2.384,2.384,0,0,0-2.373-2.146Z" transform="translate(-250.589 -610.37)"/>
    </g>
    <path id="Path_48" data-name="Path 48" d="M139.552,691.319H120.8a.8.8,0,0,1-.8-.8v-8.877a.8.8,0,0,1,1.138-.72c5.389,2.557,11.194,3.434,18.045.04a.8.8,0,0,1,1.152.712v8.831A.8.8,0,0,1,139.552,691.319Z" transform="translate(-101.763 -576.277)" fill="#d70900"/>
    <path id="Path_49" data-name="Path 49" d="M139.552,691.319H120.8a.8.8,0,0,1-.8-.8v-8.877a.8.8,0,0,1,1.138-.72c5.389,2.557,11.194,3.434,18.045.04a.8.8,0,0,1,1.152.712v8.831A.8.8,0,0,1,139.552,691.319Z" transform="translate(-101.763 -576.277)" opacity="0.1"/>
    <ellipse id="Ellipse_28" data-name="Ellipse 28" cx="1.11" cy="1.453" rx="1.11" ry="1.453" transform="translate(27.171 105.388)" fill="#3f3d56"/>
    <ellipse id="Ellipse_29" data-name="Ellipse 29" cx="1.11" cy="1.453" rx="1.11" ry="1.453" transform="translate(27.171 103.612)" fill="#3f3d56"/>
    <ellipse id="Ellipse_30" data-name="Ellipse 30" cx="1.11" cy="1.453" rx="1.11" ry="1.453" transform="translate(27.171 101.834)" fill="#3f3d56"/>
    <ellipse id="Ellipse_31" data-name="Ellipse 31" cx="1.11" cy="1.453" rx="1.11" ry="1.453" transform="translate(27.171 100.059)" fill="#3f3d56"/>
    <ellipse id="Ellipse_32" data-name="Ellipse 32" cx="1.11" cy="1.453" rx="1.11" ry="1.453" transform="translate(27.171 98.281)" fill="#3f3d56"/>
    <ellipse id="Ellipse_33" data-name="Ellipse 33" cx="1.11" cy="1.453" rx="1.11" ry="1.453" transform="translate(27.171 96.503)" fill="#3f3d56"/>
    <ellipse id="Ellipse_34" data-name="Ellipse 34" cx="1.11" cy="1.453" rx="1.11" ry="1.453" transform="translate(27.171 94.728)" fill="#3f3d56"/>
    <path id="Path_50" data-name="Path 50" d="M154.012,537.48a5.649,5.649,0,0,0,.413-.609l-2.918-.48,3.156.023a5.319,5.319,0,0,0,.1-4.223l-4.233,2.2,3.9-2.88a5.319,5.319,0,1,0-8.786,5.951,5.21,5.21,0,0,0-.607.969l3.786,1.989-4.031-1.363a5.325,5.325,0,0,0,.858,4.991,5.319,5.319,0,1,0,8.362,0,5.319,5.319,0,0,0,0-6.577Z" transform="translate(-121.569 -453.458)" fill="#d70900"/>
    <path id="Path_51" data-name="Path 51" d="M144.49,590.6a5.3,5.3,0,0,0,1.138,3.288,5.319,5.319,0,1,0,8.362,0C154.7,592.984,144.49,590,144.49,590.6Z" transform="translate(-121.551 -503.29)" opacity="0.1"/>
    <path id="Path_52" data-name="Path 52" d="M139.552,691.789H120.8a.8.8,0,0,1-.8-.8v-9.347a.8.8,0,0,1,1.138-.72c5.389,2.557,9.662,5.538,18.045.04a.781.781,0,0,1,1.152.712v9.31A.8.8,0,0,1,139.552,691.789Z" transform="translate(-101.763 -576.277)" fill="#d70900"/>
    <path id="Path_53" data-name="Path 53" d="M742.592,547.045l-27.67,3.661-1.384.182-13.528-7.226v-1.691l42.275-4.611Z" transform="translate(-565.631 -434.176)" fill="#9c9ca1"/>
    <path id="Path_54" data-name="Path 54" d="M740.85,559.314l29.976-3.534-.307,5.534-23.349,1.712Z" transform="translate(-598.631 -449.06)" fill="#939498"/>
    <path id="Path_55" data-name="Path 55" d="M739.914,704.557v1.816l-1.384.192L725,699.331V697.64l12.914,6.911A8.551,8.551,0,0,0,739.914,704.557Z" transform="translate(-590.623 -589.845)" opacity="0.4"/>
    <path id="Path_56" data-name="Path 56" d="M804.036,569.129l-6.212,28.8a1.839,1.839,0,0,0,2.039,2.213l39.3-5.2a1.839,1.839,0,0,0,1.505-1.244l8.479-25.57a1.843,1.843,0,0,0-1.835-2.419l-41.565,1.973A1.843,1.843,0,0,0,804.036,569.129Z" transform="translate(-649.433 -483.241)" fill="#3f3d56"/>
    <ellipse id="Ellipse_35" data-name="Ellipse 35" cx="1.67" cy="1.073" rx="1.67" ry="1.073" transform="translate(173.889 97.951) rotate(-84)" fill="#fff"/>
  </g>
</svg>
