<svg xmlns="http://www.w3.org/2000/svg" width="354" height="106" viewBox="0 0 177 53"><defs><clipPath id="a"><path fill="#fff" d="M173.394 31.013c-.166-1.958-.988-3.593-2.464-4.904-1.477-1.31-3.26-1.966-5.351-1.966-2.058 0-3.75.481-5.078 1.444-1.327.962-2.281 2.124-2.862 3.484-.58 1.36-.871 2.622-.871 3.784 0 1.46.332 2.77.996 3.932a7.36 7.36 0 0 0 2.762 2.763c1.178.68 2.514 1.02 4.007 1.02 2.025 0 3.85-.638 5.476-1.916s2.638-2.862 3.036-4.754zm3.394-8.264l-2.54 20.46c-.298 2.489-1.336 4.522-3.112 6.098-1.776 1.576-4.258 2.365-7.445 2.365-1.925 0-3.635-.316-5.129-.946-1.494-.63-2.988-1.776-4.482-3.435l1.594-1.543c1.328 1.493 2.639 2.505 3.934 3.036 1.295.531 2.706.797 4.233.797 2.523 0 4.424-.606 5.702-1.817 1.278-1.211 2.066-2.846 2.365-4.904l.598-4.58c-.93 1.328-2.158 2.374-3.685 3.137a10.88 10.88 0 0 1-4.93 1.145c-1.793 0-3.42-.415-4.88-1.245a8.768 8.768 0 0 1-3.412-3.46c-.813-1.476-1.22-3.144-1.22-5.002 0-1.46.382-3.012 1.145-4.655.764-1.643 1.959-3.053 3.586-4.231 1.627-1.178 3.652-1.768 6.075-1.768 2.025 0 3.818.449 5.379 1.345 1.56.896 2.656 2.09 3.286 3.584l.897-4.38zm-26.539.821c1.013.913 1.52 2.133 1.52 3.66 0 .364-.017.63-.05.796l-1.744 14.187h-2.34l1.643-13.59.05-.597c0-1.129-.373-2.033-1.12-2.713-.748-.68-1.785-1.02-3.113-1.02-2.059 0-3.868.713-5.429 2.14-1.56 1.427-2.457 3.219-2.69 5.376l-1.294 10.404h-2.341l2.39-19.464h2.042l-.199 3.684c.93-1.294 2.125-2.323 3.586-3.087 1.461-.763 3.088-1.145 4.881-1.145 1.793 0 3.196.457 4.208 1.37zm-22.413 15.952c.4-.381.849-.572 1.348-.572.366 0 .7.15.999.448.3.299.449.664.449 1.095 0 .498-.2.93-.6 1.294-.399.366-.831.548-1.297.548-.4 0-.75-.141-1.049-.423a1.405 1.405 0 0 1-.449-1.07c0-.498.2-.938.6-1.32zm-3.609-15.703c.996 1.079 1.411 2.481 1.245 4.207l-1.743 14.187h-2.34l1.643-13.74c.1-1.194-.183-2.181-.847-2.961-.664-.78-1.644-1.187-2.938-1.22a8.32 8.32 0 0 0-3.935.971 8.889 8.889 0 0 0-3.088 2.688 8.047 8.047 0 0 0-1.494 3.858l-1.295 10.404h-2.34l4.631-37.833h2.34l-2.738 22.252c.896-1.328 2.116-2.398 3.66-3.21 1.544-.814 3.213-1.22 5.006-1.22 1.826 0 3.237.539 4.233 1.617zm-21.881-9.632l-1.097 8.808h6.082l-.249 1.94H101l-2.094 17.268h-2.343l2.094-17.267h-4.188l.25-1.941h4.187l1.047-8.808zM94.099 4.38l-4.686 37.833H87.07L91.706 4.38zM80.925 30.963c-.166-1.925-.98-3.543-2.44-4.854-1.461-1.31-3.238-1.966-5.33-1.966-1.959 0-3.586.473-4.88 1.419-1.296.946-2.242 2.09-2.84 3.435-.597 1.344-.896 2.63-.896 3.858 0 1.427.332 2.73.996 3.907a7.31 7.31 0 0 0 2.764 2.788c1.18.68 2.516 1.02 4.01 1.02 2.025 0 3.818-.63 5.379-1.891 1.56-1.261 2.54-2.887 2.939-4.879zm3.336-8.214L81.92 42.213h-2.34l.497-3.932c-.896 1.194-2.141 2.198-3.735 3.011-1.593.813-3.353 1.22-5.278 1.22-1.66 0-3.17-.407-4.532-1.22-1.361-.813-2.44-1.941-3.237-3.385-.797-1.443-1.195-3.045-1.195-4.804 0-1.659.398-3.335 1.195-5.027.797-1.693 2-3.103 3.61-4.232 1.61-1.128 3.594-1.692 5.951-1.692 2.059 0 3.835.473 5.329 1.418 1.494.946 2.573 2.216 3.237 3.809l.797-4.63zm-37.227 2.564a8.54 8.54 0 0 0-3.064 3.136 8.451 8.451 0 0 0-1.12 4.256c0 .432.016.747.05.946l14.942-4.63c-.498-1.427-1.311-2.596-2.44-3.51-1.13-.912-2.474-1.368-4.035-1.368-1.594 0-3.038.39-4.333 1.17zm8.865 13.416l.996 1.792a11.439 11.439 0 0 1-3.138 1.518 11.428 11.428 0 0 1-3.386.523c-1.926 0-3.636-.407-5.13-1.22a8.725 8.725 0 0 1-3.486-3.41c-.83-1.46-1.245-3.12-1.245-4.978 0-1.858.465-3.609 1.394-5.252.93-1.643 2.225-2.97 3.885-3.982 1.66-1.012 3.536-1.519 5.628-1.519 2.39 0 4.382.664 5.976 1.992 1.593 1.327 2.656 3.285 3.187 5.874L43.3 35.443a7.232 7.232 0 0 0 2.714 3.709c1.312.946 2.83 1.419 4.557 1.419 1.959 0 3.735-.614 5.329-1.842z"/></clipPath></defs><path fill="#063a79" d="M173.394 31.013c-.166-1.958-.988-3.593-2.464-4.904-1.477-1.31-3.26-1.966-5.351-1.966-2.058 0-3.75.481-5.078 1.444-1.327.962-2.281 2.124-2.862 3.484-.58 1.36-.871 2.622-.871 3.784 0 1.46.332 2.77.996 3.932a7.36 7.36 0 0 0 2.762 2.763c1.178.68 2.514 1.02 4.007 1.02 2.025 0 3.85-.638 5.476-1.916s2.638-2.862 3.036-4.754zm3.394-8.264l-2.54 20.46c-.298 2.489-1.336 4.522-3.112 6.098-1.776 1.576-4.258 2.365-7.445 2.365-1.925 0-3.635-.316-5.129-.946-1.494-.63-2.988-1.776-4.482-3.435l1.594-1.543c1.328 1.493 2.639 2.505 3.934 3.036 1.295.531 2.706.797 4.233.797 2.523 0 4.424-.606 5.702-1.817 1.278-1.211 2.066-2.846 2.365-4.904l.598-4.58c-.93 1.328-2.158 2.374-3.685 3.137a10.88 10.88 0 0 1-4.93 1.145c-1.793 0-3.42-.415-4.88-1.245a8.768 8.768 0 0 1-3.412-3.46c-.813-1.476-1.22-3.144-1.22-5.002 0-1.46.382-3.012 1.145-4.655.764-1.643 1.959-3.053 3.586-4.231 1.627-1.178 3.652-1.768 6.075-1.768 2.025 0 3.818.449 5.379 1.345 1.56.896 2.656 2.09 3.286 3.584l.897-4.38zm-26.539.821c1.013.913 1.52 2.133 1.52 3.66 0 .364-.017.63-.05.796l-1.744 14.187h-2.34l1.643-13.59.05-.597c0-1.129-.373-2.033-1.12-2.713-.748-.68-1.785-1.02-3.113-1.02-2.059 0-3.868.713-5.429 2.14-1.56 1.427-2.457 3.219-2.69 5.376l-1.294 10.404h-2.341l2.39-19.464h2.042l-.199 3.684c.93-1.294 2.125-2.323 3.586-3.087 1.461-.763 3.088-1.145 4.881-1.145 1.793 0 3.196.457 4.208 1.37zm-22.413 15.952c.4-.381.849-.572 1.348-.572.366 0 .7.15.999.448.3.299.449.664.449 1.095 0 .498-.2.93-.6 1.294-.399.366-.831.548-1.297.548-.4 0-.75-.141-1.049-.423a1.405 1.405 0 0 1-.449-1.07c0-.498.2-.938.6-1.32zm-3.609-15.703c.996 1.079 1.411 2.481 1.245 4.207l-1.743 14.187h-2.34l1.643-13.74c.1-1.194-.183-2.181-.847-2.961-.664-.78-1.644-1.187-2.938-1.22a8.32 8.32 0 0 0-3.935.971 8.889 8.889 0 0 0-3.088 2.688 8.047 8.047 0 0 0-1.494 3.858l-1.295 10.404h-2.34l4.631-37.833h2.34l-2.738 22.252c.896-1.328 2.116-2.398 3.66-3.21 1.544-.814 3.213-1.22 5.006-1.22 1.826 0 3.237.539 4.233 1.617zm-21.881-9.632l-1.097 8.808h6.082l-.249 1.94H101l-2.094 17.268h-2.343l2.094-17.267h-4.188l.25-1.941h4.187l1.047-8.808zM94.099 4.38l-4.686 37.833H87.07L91.706 4.38zM80.925 30.963c-.166-1.925-.98-3.543-2.44-4.854-1.461-1.31-3.238-1.966-5.33-1.966-1.959 0-3.586.473-4.88 1.419-1.296.946-2.242 2.09-2.84 3.435-.597 1.344-.896 2.63-.896 3.858 0 1.427.332 2.73.996 3.907a7.31 7.31 0 0 0 2.764 2.788c1.18.68 2.516 1.02 4.01 1.02 2.025 0 3.818-.63 5.379-1.891 1.56-1.261 2.54-2.887 2.939-4.879zm3.336-8.214L81.92 42.213h-2.34l.497-3.932c-.896 1.194-2.141 2.198-3.735 3.011-1.593.813-3.353 1.22-5.278 1.22-1.66 0-3.17-.407-4.532-1.22-1.361-.813-2.44-1.941-3.237-3.385-.797-1.443-1.195-3.045-1.195-4.804 0-1.659.398-3.335 1.195-5.027.797-1.693 2-3.103 3.61-4.232 1.61-1.128 3.594-1.692 5.951-1.692 2.059 0 3.835.473 5.329 1.418 1.494.946 2.573 2.216 3.237 3.809l.797-4.63zm-37.227 2.564a8.54 8.54 0 0 0-3.064 3.136 8.451 8.451 0 0 0-1.12 4.256c0 .432.016.747.05.946l14.942-4.63c-.498-1.427-1.311-2.596-2.44-3.51-1.13-.912-2.474-1.368-4.035-1.368-1.594 0-3.038.39-4.333 1.17zm8.865 13.416l.996 1.792a11.439 11.439 0 0 1-3.138 1.518 11.428 11.428 0 0 1-3.386.523c-1.926 0-3.636-.407-5.13-1.22a8.725 8.725 0 0 1-3.486-3.41c-.83-1.46-1.245-3.12-1.245-4.978 0-1.858.465-3.609 1.394-5.252.93-1.643 2.225-2.97 3.885-3.982 1.66-1.012 3.536-1.519 5.628-1.519 2.39 0 4.382.664 5.976 1.992 1.593 1.327 2.656 3.285 3.187 5.874L43.3 35.443a7.232 7.232 0 0 0 2.714 3.709c1.312.946 2.83 1.419 4.557 1.419 1.959 0 3.735-.614 5.329-1.842z"/><path fill="none" stroke="#063a79" stroke-linecap="square" stroke-miterlimit="50" d="M173.394 31.013c-.166-1.958-.988-3.593-2.464-4.904-1.477-1.31-3.26-1.966-5.351-1.966-2.058 0-3.75.481-5.078 1.444-1.327.962-2.281 2.124-2.862 3.484-.58 1.36-.871 2.622-.871 3.784 0 1.46.332 2.77.996 3.932a7.36 7.36 0 0 0 2.762 2.763c1.178.68 2.514 1.02 4.007 1.02 2.025 0 3.85-.638 5.476-1.916s2.638-2.862 3.036-4.754zm3.394-8.264l-2.54 20.46c-.298 2.489-1.336 4.522-3.112 6.098-1.776 1.576-4.258 2.365-7.445 2.365-1.925 0-3.635-.316-5.129-.946-1.494-.63-2.988-1.776-4.482-3.435l1.594-1.543c1.328 1.493 2.639 2.505 3.934 3.036 1.295.531 2.706.797 4.233.797 2.523 0 4.424-.606 5.702-1.817 1.278-1.211 2.066-2.846 2.365-4.904l.598-4.58c-.93 1.328-2.158 2.374-3.685 3.137a10.88 10.88 0 0 1-4.93 1.145c-1.793 0-3.42-.415-4.88-1.245a8.768 8.768 0 0 1-3.412-3.46c-.813-1.476-1.22-3.144-1.22-5.002 0-1.46.382-3.012 1.145-4.655.764-1.643 1.959-3.053 3.586-4.231 1.627-1.178 3.652-1.768 6.075-1.768 2.025 0 3.818.449 5.379 1.345 1.56.896 2.656 2.09 3.286 3.584l.897-4.38zm-26.539.821c1.013.913 1.52 2.133 1.52 3.66 0 .364-.017.63-.05.796l-1.744 14.187h-2.34l1.643-13.59.05-.597c0-1.129-.373-2.033-1.12-2.713-.748-.68-1.785-1.02-3.113-1.02-2.059 0-3.868.713-5.429 2.14-1.56 1.427-2.457 3.219-2.69 5.376l-1.294 10.404h-2.341l2.39-19.464h2.042l-.199 3.684c.93-1.294 2.125-2.323 3.586-3.087 1.461-.763 3.088-1.145 4.881-1.145 1.793 0 3.196.457 4.208 1.37zm-22.413 15.952c.4-.381.849-.572 1.348-.572.366 0 .7.15.999.448.3.299.449.664.449 1.095 0 .498-.2.93-.6 1.294-.399.366-.831.548-1.297.548-.4 0-.75-.141-1.049-.423a1.405 1.405 0 0 1-.449-1.07c0-.498.2-.938.6-1.32zm-3.609-15.703c.996 1.079 1.411 2.481 1.245 4.207l-1.743 14.187h-2.34l1.643-13.74c.1-1.194-.183-2.181-.847-2.961-.664-.78-1.644-1.187-2.938-1.22a8.32 8.32 0 0 0-3.935.971 8.889 8.889 0 0 0-3.088 2.688 8.047 8.047 0 0 0-1.494 3.858l-1.295 10.404h-2.34l4.631-37.833h2.34l-2.738 22.252c.896-1.328 2.116-2.398 3.66-3.21 1.544-.814 3.213-1.22 5.006-1.22 1.826 0 3.237.539 4.233 1.617zm-21.881-9.632l-1.097 8.808h6.082l-.249 1.94H101l-2.094 17.268h-2.343l2.094-17.267h-4.188l.25-1.941h4.187l1.047-8.808zM94.099 4.38l-4.686 37.833H87.07L91.706 4.38zM80.925 30.963c-.166-1.925-.98-3.543-2.44-4.854-1.461-1.31-3.238-1.966-5.33-1.966-1.959 0-3.586.473-4.88 1.419-1.296.946-2.242 2.09-2.84 3.435-.597 1.344-.896 2.63-.896 3.858 0 1.427.332 2.73.996 3.907a7.31 7.31 0 0 0 2.764 2.788c1.18.68 2.516 1.02 4.01 1.02 2.025 0 3.818-.63 5.379-1.891 1.56-1.261 2.54-2.887 2.939-4.879zm3.336-8.214L81.92 42.213h-2.34l.497-3.932c-.896 1.194-2.141 2.198-3.735 3.011-1.593.813-3.353 1.22-5.278 1.22-1.66 0-3.17-.407-4.532-1.22-1.361-.813-2.44-1.941-3.237-3.385-.797-1.443-1.195-3.045-1.195-4.804 0-1.659.398-3.335 1.195-5.027.797-1.693 2-3.103 3.61-4.232 1.61-1.128 3.594-1.692 5.951-1.692 2.059 0 3.835.473 5.329 1.418 1.494.946 2.573 2.216 3.237 3.809l.797-4.63zm-37.227 2.564a8.54 8.54 0 0 0-3.064 3.136 8.451 8.451 0 0 0-1.12 4.256c0 .432.016.747.05.946l14.942-4.63c-.498-1.427-1.311-2.596-2.44-3.51-1.13-.912-2.474-1.368-4.035-1.368-1.594 0-3.038.39-4.333 1.17zm8.865 13.416l.996 1.792a11.439 11.439 0 0 1-3.138 1.518 11.428 11.428 0 0 1-3.386.523c-1.926 0-3.636-.407-5.13-1.22a8.725 8.725 0 0 1-3.486-3.41c-.83-1.46-1.245-3.12-1.245-4.978 0-1.858.465-3.609 1.394-5.252.93-1.643 2.225-2.97 3.885-3.982 1.66-1.012 3.536-1.519 5.628-1.519 2.39 0 4.382.664 5.976 1.992 1.593 1.327 2.656 3.285 3.187 5.874L43.3 35.443a7.232 7.232 0 0 0 2.714 3.709c1.312.946 2.83 1.419 4.557 1.419 1.959 0 3.735-.614 5.329-1.842z" clip-path="url(&quot;#a&quot;)"/><path fill="#ffc105" d="M0 48.535c11.076-2.215 25.838-2.577 38.797.497 3.062.726 2.212 4.377-.358 3.543-9.96-3.233-27.228-4.413-38.439-4.04z"/><g><path fill="#0fefff" d="M41.308 7.35l-4-.152a.5.5 0 0 1-.278-.902L45.466.097a.5.5 0 0 1 .796.403v10.574a.5.5 0 0 1-.92.272l-2.211-3.413-11.235 34.604a1 1 0 0 1-1.828.172l-8.154-14.891-7.513 13.294a1 1 0 0 1-1.794-.108L4.999 22.725a.5.5 0 0 1 .88-.464l8.058 12.403 7.15-15.242a1 1 0 0 1 1.778-.063l7.294 13.056z"/><path fill="#063a79" d="M41.308 7.35l-4-.152a.5.5 0 0 1-.278-.902L45.466.097a.5.5 0 0 1 .796.403v10.574a.5.5 0 0 1-.92.272l-2.211-3.413-11.235 34.604a1 1 0 0 1-1.828.172l-8.154-14.891-7.513 13.294a1 1 0 0 1-1.794-.108L4.999 22.725a.5.5 0 0 1 .88-.464l8.058 12.403 7.15-15.242a1 1 0 0 1 1.778-.063l7.294 13.056z"/></g></svg>